<?xml version="1.0" encoding="UTF-8"?>
<svg preserveAspectRatio="xMidYMid slice" xmlns="http://www.w3.org/2000/svg" width="34px" height="13px" viewBox="0 0 84 34" fill="none">
  <path d="M0.547852 31.4993H16.6858V33.7889H0.547852V31.4993Z" fill="#2170B8"></path>
  <path d="M0.547852 27.1077H16.6858V29.4054H0.547852V27.1077Z" fill="#2170B8"></path>
  <path d="M5.15186 22.7236H12.074V25.0214H5.15186V22.7236Z" fill="#2170B8"></path>
  <path d="M5.15186 18.3401H12.074V20.6379H5.15186V18.3401Z" fill="#2170B8"></path>
  <path d="M5.15186 13.9565H12.074V16.2543H5.15186V13.9565Z" fill="#2170B8"></path>
  <path d="M5.15186 9.5647H12.074V11.8625H5.15186V9.5647Z" fill="#2170B8"></path>
  <path d="M16.6858 5.18066H0.547852V7.47845H16.6858V5.18066Z" fill="#2170B8"></path>
  <path d="M16.6858 0.797119H0.547852V3.0949H16.6858V0.797119Z" fill="#2170B8"></path>
  <path d="M18.9878 29.4052H43.8072C44.2264 28.6963 44.5388 27.9222 44.728 27.1074H18.9878V29.4052Z" fill="#2170B8"></path>
  <path d="M41.8755 18.3401H23.6001V20.6379H43.8075C43.2813 19.7578 42.6318 18.9838 41.8755 18.3401Z" fill="#2170B8"></path>
  <path d="M23.6001 13.9565V16.2543H41.8755C42.6483 15.6106 43.2977 14.8365 43.8075 13.9565H23.6001Z" fill="#2170B8"></path>
  <path d="M43.8073 5.18066H18.9878V7.47845H44.728C44.5143 6.66363 44.2019 5.88961 43.8073 5.18066Z" fill="#2170B8"></path>
  <path d="M36.1781 0.797119H18.9878V3.0949H42.1054C40.5599 1.67709 38.4636 0.797119 36.1781 0.797119Z" fill="#2170B8"></path>
  <path d="M30.514 9.5647H23.6001V11.8625H30.514V9.5647Z" fill="#2170B8"></path>
  <path d="M37.436 11.8625H44.6706C44.8761 11.1292 44.983 10.3551 44.983 9.5647H37.436V11.8625Z" fill="#2170B8"></path>
  <path d="M23.6001 22.7236H30.514V25.0214H23.6001V22.7236Z" fill="#2170B8"></path>
  <path d="M37.436 22.7236V25.0214H44.983C44.983 24.231 44.8761 23.457 44.6706 22.7236H37.436Z" fill="#2170B8"></path>
  <path d="M18.9878 33.7726L36.1781 33.797C38.48 33.797 40.5599 32.9171 42.1137 31.4993H18.9878V33.7726Z" fill="#2170B8"></path>
  <path d="M46.6601 31.4993H58.186V33.7889H46.6601V31.4993Z" fill="#2170B8"></path>
  <path d="M46.6601 27.1077H58.186V29.4054H46.6601V27.1077Z" fill="#2170B8"></path>
  <path d="M51.2636 22.7236H58.1857V25.0214H51.2636V22.7236Z" fill="#2170B8"></path>
  <path d="M51.2636 18.3401H58.1857V20.6379H51.2636V18.3401Z" fill="#2170B8"></path>
  <path d="M61.3923 5.18066H46.6601V7.47845H62.1896L61.3923 5.18066Z" fill="#2170B8"></path>
  <path d="M59.8631 0.797119H46.6602V3.0949H60.6606L59.8631 0.797119Z" fill="#2170B8"></path>
  <path d="M72.0136 31.4993H83.5478V33.7889H72.0136V31.4993Z" fill="#2170B8"></path>
  <path d="M72.0136 27.1077H83.5478V29.4054H72.0136V27.1077Z" fill="#2170B8"></path>
  <path d="M72.0136 22.7236H78.9357V25.0214H72.0136V22.7236Z" fill="#2170B8"></path>
  <path d="M72.0136 18.3401H78.9357V20.6379H72.0136V18.3401Z" fill="#2170B8"></path>
  <path d="M72.0136 16.2543H78.9357V13.9565H72.0136H65.7492L65.0997 15.8144L64.4502 13.9565H58.1857H51.2636V16.2543H58.1857V14.1439L58.9175 16.2543H71.282L72.0136 14.1439V16.2543Z" fill="#2170B8"></path>
  <path d="M78.9358 9.5647H67.2784L66.4809 11.8625H78.9358V9.5647Z" fill="#2170B8"></path>
  <path d="M70.3451 0.797119L69.5476 3.0949H83.5481V0.797119H70.3451Z" fill="#2170B8"></path>
  <path d="M65.1001 33.7726L65.8975 31.4993H64.3027L65.1001 33.7726Z" fill="#2170B8"></path>
  <path d="M63.5707 29.4054H66.6289L67.451 27.1077H62.7568L63.5707 29.4054Z" fill="#2170B8"></path>
  <path d="M62.0172 25.0214H68.183L68.9969 22.7236H61.2033L62.0172 25.0214Z" fill="#2170B8"></path>
  <path d="M60.4717 20.6379H69.7368L70.5261 18.3401H59.6743L60.4717 20.6379Z" fill="#2170B8"></path>
  <path d="M51.2636 11.8625H63.7185L62.9211 9.5647H51.2636V11.8625Z" fill="#2170B8"></path>
  <path d="M68.0185 7.47845H83.5481V5.18066H68.8077L68.0185 7.47845Z" fill="#2170B8"></path>
</svg>
