<?xml version="1.0" encoding="UTF-8"?>
<svg preserveAspectRatio="xMidYMid slice" xmlns="http://www.w3.org/2000/svg" width="120px" height="119px" viewBox="0 0 273 272" fill="none">
  <ellipse cx="29.7362" cy="147.96" rx="6.14887" ry="6.1483" transform="rotate(-126.451 29.7362 147.96)" fill="white"></ellipse>
  <ellipse cx="56.1341" cy="153.688" rx="6.14887" ry="6.1483" transform="rotate(-126.451 56.1341 153.688)" fill="white"></ellipse>
  <ellipse cx="49.0685" cy="127.564" rx="6.14887" ry="6.1483" transform="rotate(-126.451 49.0685 127.564)" fill="white"></ellipse>
  <ellipse cx="74.9713" cy="133.658" rx="6.14887" ry="6.1483" transform="rotate(-126.451 74.9713 133.658)" fill="white"></ellipse>
  <ellipse cx="82.8968" cy="159.91" rx="6.14887" ry="6.1483" transform="rotate(-126.451 82.8968 159.91)" fill="white"></ellipse>
  <ellipse cx="66.9164" cy="108.266" rx="6.14887" ry="6.1483" transform="rotate(-126.451 66.9164 108.266)" fill="white"></ellipse>
  <ellipse cx="85.6244" cy="89.0957" rx="6.14887" ry="6.1483" transform="rotate(-126.451 85.6244 89.0957)" fill="white"></ellipse>
  <ellipse cx="92.8196" cy="114.359" rx="6.14887" ry="6.1483" transform="rotate(-126.451 92.8196 114.359)" fill="white"></ellipse>
  <ellipse cx="100.746" cy="140.611" rx="6.14887" ry="6.1483" transform="rotate(-126.451 100.746 140.611)" fill="white"></ellipse>
  <ellipse cx="108.8" cy="166.003" rx="6.14887" ry="6.1483" transform="rotate(-126.451 108.8 166.003)" fill="white"></ellipse>
  <ellipse cx="135.069" cy="172.591" rx="6.14887" ry="6.1483" transform="rotate(-126.451 135.069 172.591)" fill="white"></ellipse>
  <ellipse cx="127.143" cy="146.339" rx="6.14887" ry="6.1483" transform="rotate(-126.451 127.143 146.339)" fill="white"></ellipse>
  <ellipse cx="119.583" cy="120.581" rx="6.14887" ry="6.1483" transform="rotate(-126.451 119.583 120.581)" fill="white"></ellipse>
  <ellipse cx="111.528" cy="95.189" rx="6.14887" ry="6.1483" transform="rotate(-126.451 111.528 95.189)" fill="white"></ellipse>
  <ellipse cx="103.967" cy="69.4314" rx="6.14887" ry="6.1483" transform="rotate(-126.451 103.967 69.4314)" fill="white"></ellipse>
  <ellipse cx="122.311" cy="49.7666" rx="6.14887" ry="6.1483" transform="rotate(-126.451 122.311 49.7666)" fill="white"></ellipse>
  <ellipse cx="130.365" cy="75.1592" rx="6.14887" ry="6.1483" transform="rotate(-126.451 130.365 75.1592)" fill="white"></ellipse>
  <ellipse cx="137.926" cy="100.917" rx="6.14887" ry="6.1483" transform="rotate(-126.451 137.926 100.917)" fill="white"></ellipse>
  <ellipse cx="145.851" cy="127.169" rx="6.14887" ry="6.1483" transform="rotate(-126.451 145.851 127.169)" fill="white"></ellipse>
  <ellipse cx="153.046" cy="152.432" rx="6.14887" ry="6.1483" transform="rotate(-126.451 153.046 152.432)" fill="white"></ellipse>
  <ellipse cx="160.972" cy="178.684" rx="6.14887" ry="6.1483" transform="rotate(-126.451 160.972 178.684)" fill="white"></ellipse>
  <ellipse cx="186.875" cy="184.778" rx="6.14887" ry="6.1483" transform="rotate(-126.451 186.875 184.778)" fill="white"></ellipse>
  <ellipse cx="179.315" cy="159.02" rx="6.14887" ry="6.1483" transform="rotate(-126.451 179.315 159.02)" fill="white"></ellipse>
  <ellipse cx="171.754" cy="133.262" rx="6.14887" ry="6.1483" transform="rotate(-126.451 171.754 133.262)" fill="white"></ellipse>
  <ellipse cx="164.194" cy="107.504" rx="6.14887" ry="6.1483" transform="rotate(-126.451 164.194 107.504)" fill="white"></ellipse>
  <ellipse cx="156.634" cy="81.7468" rx="6.14887" ry="6.1483" transform="rotate(-126.451 156.634 81.7468)" fill="white"></ellipse>
  <ellipse cx="149.073" cy="55.9893" rx="6.14887" ry="6.1483" transform="rotate(-126.451 149.073 55.9893)" fill="white"></ellipse>
  <ellipse cx="139.922" cy="29.1133" rx="6.14887" ry="6.1483" transform="rotate(-126.451 139.922 29.1133)" fill="white"></ellipse>
  <ellipse cx="158.266" cy="9.4485" rx="6.14887" ry="6.1483" transform="rotate(-126.451 158.266 9.4485)" fill="white"></ellipse>
  <ellipse cx="165.826" cy="35.2063" rx="6.14887" ry="6.1483" transform="rotate(-126.451 165.826 35.2063)" fill="white"></ellipse>
  <ellipse cx="173.386" cy="60.9641" rx="6.14887" ry="6.1483" transform="rotate(-126.451 173.386 60.9641)" fill="white"></ellipse>
  <ellipse cx="181.311" cy="87.2166" rx="6.14887" ry="6.1483" transform="rotate(-126.451 181.311 87.2166)" fill="white"></ellipse>
  <ellipse cx="189.366" cy="112.609" rx="6.14887" ry="6.1483" transform="rotate(-126.451 189.366 112.609)" fill="white"></ellipse>
  <ellipse cx="196.927" cy="138.366" rx="6.14887" ry="6.1483" transform="rotate(-126.451 196.927 138.366)" fill="white"></ellipse>
  <ellipse cx="204.487" cy="164.124" rx="6.14887" ry="6.1483" transform="rotate(-126.451 204.487 164.124)" fill="white"></ellipse>
  <ellipse cx="212.413" cy="190.376" rx="6.14887" ry="6.1483" transform="rotate(-126.451 212.413 190.376)" fill="white"></ellipse>
</svg>
