<?xml version="1.0" encoding="UTF-8"?>
<svg preserveAspectRatio="xMidYMid slice" xmlns="http://www.w3.org/2000/svg" width="120px" height="119px" class="flex-shrink-0" viewBox="0 0 26 26" fill="none">
  <circle cx="13" cy="13" r="13" fill="#FFFFFF"></circle>
  <path d="M11.2023 15.1733C11.3013 15.0348 11.3409 14.9556 11.4101 14.8864C13.5377 12.7588 15.6652 10.6214 17.8026 8.49385C18.3172 7.97928 18.9604 7.91991 19.4651 8.32563C19.9599 8.72145 20.0489 9.43392 19.6729 9.9386C19.5937 10.0376 19.5047 10.1365 19.4156 10.2256C17.0011 12.6401 14.5965 15.0546 12.182 17.4592C11.5289 18.1123 10.8857 18.1123 10.2227 17.4493C8.99562 16.2223 7.76858 14.9952 6.54153 13.7682C5.97749 13.2041 5.98738 12.4323 6.55143 11.9573C6.97693 11.5911 7.58056 11.5813 8.02586 11.9276C8.11492 11.9969 8.20398 12.0859 8.29304 12.1651C9.19353 13.0656 10.1039 13.976 11.0044 14.8765C11.0638 14.9457 11.1034 15.0249 11.2023 15.1733Z" fill="#F26839"></path>
</svg>
