<?xml version="1.0" encoding="UTF-8"?>
<svg preserveAspectRatio="xMidYMid slice" xmlns="http://www.w3.org/2000/svg" width="120px" height="116px" viewBox="0 0 93 90" fill="none">
  <path d="M52.6067 1.5943L62.2438 11.2313L39.2018 34.2733L48.2402 43.3117L57.2668 34.285L68.3593 45.3776L82.363 31.3622L92 40.9993V1.5943H52.6067Z" fill="#F26839" stroke="#333333" stroke-width="1.68973" stroke-miterlimit="10"></path>
  <path d="M55.6009 45.7843L49.4174 51.9678L55.6009 58.1514L61.7844 51.9678L55.6009 45.7843Z" fill="#E2C64F" stroke="#333333" stroke-width="1.68973" stroke-miterlimit="10"></path>
  <path d="M33.2524 40.5219L27.1768 46.5975L33.2524 52.6732L39.328 46.5975L33.2524 40.5219Z" fill="#E2C64F" stroke="#333333" stroke-width="1.68973" stroke-miterlimit="10"></path>
  <path d="M43.9697 57.7159L37.8941 63.7916L43.9697 69.8672L50.0454 63.7916L43.9697 57.7159Z" fill="#E2C64F" stroke="#333333" stroke-width="1.68973" stroke-miterlimit="10"></path>
  <path d="M29.4614 73.6291L23.3857 79.7047L29.4614 85.7803L35.537 79.7047L29.4614 73.6291Z" fill="#E2C64F" stroke="#333333" stroke-width="1.68973" stroke-miterlimit="10"></path>
  <path d="M23.8822 56.7574L17.873 62.7666L23.8822 68.7758L29.8915 62.7666L23.8822 56.7574Z" fill="#E2C64F" stroke="#333333" stroke-width="1.68973" stroke-miterlimit="10"></path>
  <path d="M8.00923 65.7583L2 71.7675L8.00923 77.7768L14.0185 71.7675L8.00923 65.7583Z" fill="#E2C64F" stroke="#333333" stroke-width="1.68973" stroke-miterlimit="10"></path>
  <path d="M75.1439 56.5524L58.9688 72.7276" stroke="#333333" stroke-width="1.68973" stroke-miterlimit="10"></path>
  <path d="M54.9076 76.8007L52.6187 79.0779" stroke="#333333" stroke-width="1.68973" stroke-miterlimit="10"></path>
  <path d="M50.0479 81.6484L47.759 83.9373" stroke="#333333" stroke-width="1.68973" stroke-miterlimit="10"></path>
  <path d="M45.2001 86.4965L42.9112 88.7855" stroke="#333333" stroke-width="1.68973" stroke-miterlimit="10"></path>
  <path d="M33.9901 20.3049L17.8149 36.4801" stroke="#333333" stroke-width="1.68973" stroke-miterlimit="10"></path>
</svg>
