<?xml version="1.0" encoding="UTF-8"?>
<svg preserveAspectRatio="xMidYMid slice" xmlns="http://www.w3.org/2000/svg" width="68px" height="67px" viewBox="0 0 91 90" fill="none">
  <g filter="url(#filter0_d_0_59)">
    <circle cx="45.7778" cy="33" r="20" stroke="#F2EAE0" stroke-width="2"></circle>
    <path fill-rule="evenodd" clip-rule="evenodd" d="M54.0856 26.8989C54.6267 27.519 54.8177 28.9222 54.8177 28.9222C54.8177 28.9222 55.0087 30.5866 55.0087 32.2509V33.7847C55.0087 35.4164 54.8177 37.0808 54.8177 37.0808C54.8177 37.0808 54.6267 38.484 54.0856 39.1041C53.4196 39.8489 52.6673 39.9149 52.2941 39.9477C52.2748 39.9494 52.2566 39.951 52.2394 39.9526C49.6612 40.181 45.7779 40.181 45.7779 40.181C45.7779 40.181 40.9715 40.1484 39.5073 39.9852C39.4295 39.9668 39.3337 39.953 39.2248 39.9374C38.7543 39.8696 38.0388 39.7666 37.4702 39.1041C36.9291 38.4841 36.7381 37.0808 36.7381 37.0808C36.7381 37.0808 36.5471 35.4491 36.5471 33.7848V32.2509C36.5471 30.5866 36.7381 28.9222 36.7381 28.9222C36.7381 28.9222 36.8972 27.519 37.4702 26.8989C38.1362 26.1541 38.8885 26.0881 39.2617 26.0553C39.281 26.0536 39.2992 26.052 39.3164 26.0504C41.8946 25.8547 45.7779 25.822 45.7779 25.822C45.7779 25.822 49.6612 25.8547 52.2394 26.0504C52.266 26.0529 52.2952 26.0552 52.3266 26.0577C52.7098 26.0878 53.4385 26.145 54.0856 26.8989ZM43.5498 36.7858V29.7042L49.5975 33.3266L43.5498 36.7858Z" fill="#333333"></path>
  </g>
  <defs>
    <filter id="filter0_d_0_59" x="0.777832" y="0" width="90" height="90" filterUnits="userSpaceOnUse" color-interpolation-filters="sRGB">
      <feFlood flood-opacity="0" result="BackgroundImageFix"></feFlood>
      <feColorMatrix in="SourceAlpha" type="matrix" values="0 0 0 0 0 0 0 0 0 0 0 0 0 0 0 0 0 0 127 0" result="hardAlpha"></feColorMatrix>
      <feOffset dy="12"></feOffset>
      <feGaussianBlur stdDeviation="12"></feGaussianBlur>
      <feColorMatrix type="matrix" values="0 0 0 0 0 0 0 0 0 0 0 0 0 0 0 0 0 0 0.1 0"></feColorMatrix>
      <feBlend mode="normal" in2="BackgroundImageFix" result="effect1_dropShadow_0_59"></feBlend>
      <feBlend mode="normal" in="SourceGraphic" in2="effect1_dropShadow_0_59" result="shape"></feBlend>
    </filter>
  </defs>
</svg>
