<?xml version="1.0" encoding="UTF-8"?>
<svg preserveAspectRatio="xMidYMid slice" xmlns="http://www.w3.org/2000/svg" width="240px" height="160px" viewBox="0 0 69 46" fill="none">
  <path d="M56.7326 8.62142C54.3112 7.9035 52.8785 7.74395 52.8785 6.38786C52.8785 5.45721 53.7424 4.76587 55.2375 4.76587C57.0182 4.76587 60.138 6.16305 60.138 6.16305L61.7267 2.46221C61.7267 2.46221 58.9213 0.803955 55.4175 0.803955C50.7234 0.803955 47.7044 3.38319 47.7044 6.78671C47.7044 9.7382 49.617 11.0677 53.7136 12.1579C56.0175 12.7695 57.4214 13.2481 57.4214 14.7637C57.4214 15.8805 56.3751 16.7048 55.0287 16.7048C52.0049 16.7048 48.7531 14.8532 48.7531 14.8532L47.0564 18.4791C47.0564 18.4791 49.8642 20.7199 54.34 20.7199C59.4253 20.7199 62.5955 18.0343 62.5955 14.3649C62.5955 11.5197 60.6828 9.79139 56.7326 8.62142Z" fill="#14427D"></path>
  <path d="M12.8779 1.1665C10.5932 1.1665 8.25818 1.1665 8.25818 1.1665V20.159H13.0531L13.0291 8.8752C13.0291 8.8752 16.7753 15.397 20.1087 20.159C23.3437 20.1663 24.1044 20.159 24.1044 20.159V1.16892H19.4007L19.4056 11.0652C19.4056 11.0652 16.7753 6.44583 12.8779 1.1665Z" fill="#14427D"></path>
  <path d="M39.5451 20.1228V11.9428H32.4271V20.1228H27.6322V1.17139H32.4271V8.37729H39.5451V1.17139H44.3304V20.1228H39.5451Z" fill="#14427D"></path>
  <path d="M11.5023 39.3643C11.1663 39.1347 10.7224 38.9268 10.276 38.9268C9.63763 38.9268 9.28965 39.287 9.28965 39.7366C9.28965 40.2369 9.82003 40.6189 10.7128 41.3296C11.7303 42.1466 12.2727 42.792 12.2727 43.7299C12.2727 44.692 11.3607 45.8039 9.64724 45.8039C8.85528 45.8039 7.97693 45.5646 7.41296 45.0401L7.96733 44.1674C8.36811 44.4623 8.83368 44.7766 9.51764 44.7766C10.1464 44.7766 10.7008 44.4406 10.7008 43.7178C10.7008 42.879 9.68083 42.323 9.07127 41.842C8.33451 41.2425 7.71775 40.7736 7.71775 39.7559C7.71775 38.731 8.74728 37.9019 10.1248 37.9019C10.9936 37.9019 11.6871 38.2185 12.0447 38.5666L11.5023 39.3643Z" fill="#14427D"></path>
  <path d="M19.091 39.4199C18.7214 39.2241 18.1047 38.9945 17.5191 38.9945C15.9592 38.9945 14.8312 40.0967 14.8312 41.8323C14.8312 43.6405 16.0768 44.7113 17.5623 44.7113C18.1479 44.7113 18.6902 44.5469 19.091 44.3294L19.5134 45.2794C19.0478 45.5525 18.2342 45.8039 17.4975 45.8039C14.8648 45.8039 13.2065 44.0562 13.2065 41.8082C13.2065 39.7269 14.8528 37.9019 17.5191 37.9019C18.311 37.9019 19.0478 38.1871 19.5686 38.4917L19.091 39.4199Z" fill="#14427D"></path>
  <path d="M23.8643 44.7113C22.2708 44.7113 21.7069 43.2054 21.7069 41.7429C21.7069 40.3361 22.3452 38.9945 23.8643 38.9945C25.381 38.9945 26.0218 40.3361 26.0218 41.7429C26.0218 43.2054 25.4578 44.7113 23.8643 44.7113ZM23.8643 45.8039C26.1946 45.8039 27.6465 44.0224 27.6465 41.7429C27.6465 39.606 26.0434 37.9019 23.8643 37.9019C21.6853 37.9019 20.0822 39.606 20.0822 41.7429C20.0822 44.0224 21.5341 45.8039 23.8643 45.8039Z" fill="#14427D"></path>
  <path d="M30.2045 45.6711V39.0623H27.8646V38.0374H34.0755V39.0623H31.7356V45.6711H30.2045Z" fill="#14427D"></path>
  <path d="M34.9587 38.0349H36.4875V44.6437H39.5017V45.6687H34.9587V38.0349Z" fill="#14427D"></path>
  <path d="M42.4461 42.6519C42.8037 41.6487 43.1613 40.7205 43.4756 39.5409H43.4973C43.8548 40.7205 44.1788 41.6487 44.5052 42.6519H42.4461ZM43.0317 38.0349L39.9454 45.6711H41.2678L42.0453 43.585H44.7332L45.4363 45.6711H47.1474L44.2988 38.0349H43.0317Z" fill="#14427D"></path>
  <path d="M54.64 45.6711H53.536C52.0841 43.9137 50.6322 42.1685 49.2043 40.1935H49.1827V45.6711H47.9587V38.0349H49.0747C50.5266 39.7802 51.9665 41.5158 53.3944 43.4786H53.416V38.0349H54.64V45.6711Z" fill="#14427D"></path>
  <path d="M57.4936 39.0623H58.5975C60.2006 39.0623 61.1101 40.0437 61.1101 41.6246C61.1101 43.7494 60.167 44.6438 58.4247 44.6438H57.4936V39.0623ZM55.9648 38.0374V45.6687H58.4463C61.1317 45.6687 62.7348 44.1531 62.7348 41.6343C62.7348 39.7923 61.6741 38.0374 58.5855 38.0374H55.9648Z" fill="#14427D"></path>
  <path d="M34.8844 31.7258C33.3269 28.9097 28.0112 24.2492 18.5701 25.7793C14.9847 26.0936 13.4944 26.3208 11.5937 26.1733C4.07737 25.5908 2.76705 21.4113 2.69745 21.1841H0.818359C0.818359 21.1841 1.8527 29.3134 10.0746 30.6864C12.0881 31.0224 16.2855 30.6235 18.9997 30.1763C25.6617 29.0765 30.7614 28.9024 34.8964 34.658C34.8964 34.658 34.9491 34.7208 34.9948 34.7208C35.0811 34.7208 35.1003 34.658 35.1003 34.658C35.1003 34.658 35.6379 33.5557 34.8844 31.7258Z" fill="#0097DE"></path>
  <path d="M66.9418 21.1841C66.8698 21.4113 65.4803 25.5714 57.9615 26.154C56.0608 26.3015 54.5729 26.0742 50.9851 25.7624C41.6257 24.2444 37.6635 28.8904 36.5164 31.4188C35.7652 33.1133 36.1756 34.658 36.1756 34.658C36.1756 34.658 36.202 34.7208 36.2716 34.7208C36.3172 34.7208 36.37 34.658 36.37 34.658C40.5025 28.9024 43.8935 29.0596 50.5556 30.157C53.2722 30.6042 57.4672 31.0055 59.483 30.6671C67.7049 29.294 68.8185 21.1841 68.8185 21.1841H66.9418Z" fill="#0097DE"></path>
</svg>
