<?xml version="1.0" encoding="UTF-8"?>
<svg preserveAspectRatio="xMidYMid slice" xmlns="http://www.w3.org/2000/svg" width="68px" height="16px" viewBox="0 0 116 28" fill="none">
  <path d="M10.5799 27.7859C16.6851 27.7859 20.8284 23.4693 20.8284 17.4696V14.2859H15.5227V17.4696C15.5227 20.6151 13.5958 22.6638 10.5799 22.6638C7.74437 22.6638 6.10844 20.8716 5.81756 18.3471H0.547852C0.838734 23.8709 4.8006 27.7859 10.5799 27.7859ZM15.5227 10.9199H20.8296V0.785889H10.4694V5.83489H15.5204V10.9199H15.5227ZM35.2587 27.274H39.9827C39.6208 25.7373 39.366 23.2128 39.366 21.4566V15.5661C39.366 11.0301 36.5677 8.24914 31.6238 8.24914C26.2808 8.24914 23.9549 11.6523 23.5918 14.359H28.3158C28.6067 13.1519 29.6609 12.3835 31.4783 12.3835C33.2597 12.3835 34.4221 13.2981 34.4221 15.1274V15.8958L29.8424 16.1151C25.009 16.3716 23.0461 18.8219 23.0461 22.1148C23.0461 25.6641 25.5547 27.7859 29.3711 27.7859C32.2055 27.7859 34.023 26.3954 34.9317 25.2614C35.0039 26.0298 35.1493 26.761 35.2587 27.274ZM34.4232 20.578C34.4232 23.0305 32.351 23.8349 30.679 23.8349C28.9709 23.8349 28.0261 23.1756 28.0261 21.7863C28.0261 20.578 28.7894 19.7005 30.8605 19.5903L34.4232 19.408V20.578ZM51.2505 27.7859C53.7579 27.7859 56.3386 26.9084 57.9024 25.4808L56.0838 21.64C54.7027 22.5175 52.9225 23.1025 51.5402 23.1025C48.7058 23.1025 46.8883 21.1641 46.8883 18.0175C46.8883 14.98 48.6697 12.9325 51.795 12.9325C53.1028 12.9325 54.6305 13.5175 55.9023 14.359L57.9013 10.3709C56.3026 8.98151 54.1209 8.24914 51.6856 8.24914C45.3979 8.24914 41.7269 12.7491 41.7269 18.0175C41.7269 24.0171 45.3618 27.7859 51.2505 27.7859ZM67.7518 27.7859C73.4218 27.7859 77.4558 24.0171 77.4558 18.0175C77.4558 12.0179 73.6033 8.24914 67.9333 8.24914C62.3716 8.24914 58.4098 12.3464 58.4098 18.0175C58.4098 23.8338 62.1912 27.7859 67.7518 27.7859ZM67.9322 23.2128C65.2793 23.2128 63.5712 21.2733 63.5712 18.0175C63.5712 14.7618 65.2804 12.8234 67.9356 12.8234C70.5885 12.8234 72.2966 14.7629 72.2966 18.0186C72.2966 21.2744 70.5885 23.2139 67.9356 23.2139L67.9322 23.2128ZM90.2524 27.7859C94.6494 27.7859 98.5752 24.2005 98.5752 18.0175C98.5752 12.0179 95.0125 8.24914 90.4339 8.24914C87.9625 8.24914 86.0718 9.31001 84.9094 11.0661V0.785889H79.8922V22.1159C79.8922 23.8709 79.8201 25.4076 79.6746 27.274H84.3998C84.473 26.5428 84.5463 25.7733 84.5824 24.9318C85.9241 26.8341 87.9986 27.7859 90.2524 27.7859ZM89.0527 23.2128C86.3987 23.2128 84.6906 21.2733 84.6906 18.0175C84.6906 14.7618 86.3976 12.8234 89.0527 12.8234C91.7056 12.8234 93.4137 14.7629 93.4137 18.0186C93.4137 21.2744 91.7056 23.2139 89.0527 23.2139V23.2128ZM107.407 27.7859C112.204 27.7859 115.548 25.2985 115.548 21.6771C115.548 18.5665 113.73 16.7373 109.914 15.9318L107.516 15.4199C106.316 15.1645 105.661 14.6155 105.661 13.9203C105.661 12.9685 106.57 12.3835 108.06 12.3835C109.732 12.3835 111.331 12.8594 113.222 13.9563L114.857 10.1875C113.149 8.94439 110.823 8.24914 108.242 8.24914C103.554 8.24914 100.501 10.6634 100.501 14.4321C100.501 17.4325 102.282 19.1886 106.061 19.9559L108.278 20.4318C109.769 20.7614 110.278 21.2001 110.278 22.0788C110.278 23.0294 109.224 23.5784 107.333 23.5784C105.771 23.5784 103.481 22.7369 101.554 21.4566L99.9552 25.2614C101.59 26.7981 104.426 27.7499 107.407 27.7859Z" fill="#272727"></path>
</svg>
