<?xml version="1.0" encoding="UTF-8"?>
<svg preserveAspectRatio="xMidYMid slice" xmlns="http://www.w3.org/2000/svg" width="120px" height="35px" viewBox="0 0 121 36" fill="none">
  <path d="M4.62229 31.8468H23.8994C22.7438 30.5366 22.2974 28.152 22.1661 25.0076C22.1661 24.9027 22.2448 24.8765 22.3236 24.9027C22.3762 24.929 22.4287 24.9814 22.4549 25.0862C23.0327 27.9948 23.5317 30.6676 25.2388 31.7682C25.6328 32.0302 26.2631 31.7682 26.8672 31.4537C26.2894 30.1173 26.1055 28.3355 26.0005 26.1867C26.0005 26.0819 26.0793 26.0557 26.158 26.0819C26.2106 26.1081 26.2631 26.1605 26.2894 26.2654C26.657 28.4141 27.051 29.9601 27.655 30.9821C30.2026 29.3836 33.0915 24.9027 34.7986 18.7448C36.4795 12.6655 36.5057 7.03168 35.0875 4.30647C33.9057 4.96157 32.645 6.27176 31.3056 8.10604C31.2268 8.21085 31.148 8.21085 31.0693 8.18465C31.0167 8.15845 30.9905 8.07983 31.0167 8.02743C32.2248 6.19315 33.0127 4.88296 34.3259 3.96582H30.3601C29.5197 4.69953 28.3904 5.69528 27.4712 6.92686C27.3924 7.03168 27.3136 7.03168 27.2611 7.00547C27.2086 6.97927 27.1823 6.90066 27.2086 6.84825C27.9702 5.69528 28.548 4.72573 29.3621 3.96582H4.62229C2.07477 3.96582 -1.52588e-05 5.56426 -1.52588e-05 7.55576V28.2568C-1.52588e-05 30.2483 2.07477 31.8468 4.62229 31.8468Z" fill="#17B5CC"></path>
  <path d="M8.11508 12.5342V16.4648H11.9232V12.5342H14.2081V22.7275H11.9232V18.4825H8.11508V22.7275H5.80392V12.5342H8.11508Z" fill="#F9F4EE"></path>
  <path d="M16.3095 20.3687C16.9135 20.6832 17.8853 20.9976 18.8833 20.9976C19.9338 20.9976 20.5116 20.5522 20.5116 19.8709C20.5116 19.242 20.0388 18.8751 18.8045 18.4559C17.0974 17.8532 15.9943 16.9098 15.9943 15.4162C15.9943 13.6867 17.465 12.3503 19.855 12.3503C21.0106 12.3503 21.851 12.5862 22.455 12.8744L21.9298 14.7087C21.5358 14.5253 20.8005 14.237 19.8025 14.237C18.8045 14.237 18.3055 14.7087 18.3055 15.2328C18.3055 15.8879 18.857 16.1761 20.1964 16.674C22.0086 17.3291 22.8227 18.2724 22.8227 19.7398C22.8227 21.4431 21.5096 22.9105 18.7257 22.9105C17.5701 22.9105 16.4145 22.5961 15.8367 22.2816L16.3095 20.3687Z" fill="#F9F4EE"></path>
  <path d="M31.9097 22.4388C31.4895 22.6223 30.544 22.8843 29.3097 22.8843C25.7904 22.8843 23.952 20.6832 23.952 17.7483C23.952 14.2632 26.447 12.3503 29.5198 12.3503C30.7279 12.3503 31.6208 12.5862 32.041 12.7958L31.5683 14.6039C31.1218 14.4205 30.4652 14.237 29.6248 14.237C27.8127 14.237 26.3945 15.3376 26.3945 17.6173C26.3945 19.6612 27.6026 20.9452 29.6511 20.9452C30.3602 20.9452 31.1218 20.8142 31.5946 20.6046L31.9097 22.4388Z" fill="#F9F4EE"></path>
  <path d="M36.8474 19.2951C35.1929 25.2434 31.91 29.8815 29.0473 31.8468H31.8575C34.2737 29.8553 37.1101 25.453 38.6333 19.8978C40.6819 12.5607 40.2879 5.87871 37.8717 4.14925C37.4778 4.04443 37.0576 3.96582 36.6111 3.96582C38.4232 6.95307 38.6333 12.9276 36.8474 19.2951Z" fill="#17B5CC"></path>
  <path d="M34.3261 31.8465H36.3746C38.9221 31.8465 40.9969 30.2481 40.9969 28.2566V19.321C40.9181 19.6879 40.8131 20.081 40.708 20.4478C39.3161 25.4266 36.7948 29.5144 34.3261 31.8465Z" fill="#17B5CC"></path>
  <path d="M54.7216 14H53.087V9.48603H48.4773V14H46.8358V4.00087H48.4773V8.0908H53.087V4.00087H54.7216V14ZM60.2204 6.28521C60.8953 6.28521 61.4743 6.42428 61.9576 6.70241C62.441 6.98054 62.8126 7.37495 63.0725 7.88562C63.3324 8.39629 63.4623 9.00727 63.4623 9.71856V10.5803H58.408C58.4263 11.3144 58.6223 11.8798 58.9962 12.2765C59.3746 12.6732 59.9036 12.8715 60.5829 12.8715C61.0662 12.8715 61.4994 12.8259 61.8824 12.7347C62.27 12.639 62.6689 12.4999 63.0793 12.3175V13.6238C62.7009 13.8017 62.3156 13.9316 61.9234 14.0137C61.5313 14.0958 61.0617 14.1368 60.5145 14.1368C59.7713 14.1368 59.117 13.9932 58.5516 13.7059C57.9908 13.4141 57.5508 12.9809 57.2316 12.4064C56.917 11.8319 56.7597 11.1184 56.7597 10.2657C56.7597 9.41763 56.9034 8.69722 57.1906 8.10448C57.4779 7.51173 57.8814 7.06034 58.4012 6.75029C58.921 6.44023 59.5274 6.28521 60.2204 6.28521ZM60.2204 7.49577C59.7143 7.49577 59.304 7.65992 58.9894 7.98821C58.6793 8.3165 58.4969 8.79753 58.4422 9.43131H61.8892C61.8847 9.05287 61.8209 8.71774 61.6977 8.42593C61.5792 8.13411 61.3968 7.90614 61.1506 7.74199C60.9089 7.57785 60.5989 7.49577 60.2204 7.49577ZM68.243 6.28521C69.2005 6.28521 69.9232 6.49723 70.4111 6.92127C70.9035 7.34531 71.1497 8.00645 71.1497 8.90468V14H70.0076L69.6998 12.9262H69.6451C69.4308 13.1998 69.2096 13.4255 68.9817 13.6033C68.7537 13.7811 68.4892 13.9134 68.1883 14C67.8919 14.0912 67.5294 14.1368 67.1008 14.1368C66.6494 14.1368 66.2459 14.0547 65.8903 13.8906C65.5346 13.7219 65.2542 13.4665 65.049 13.1246C64.8438 12.7826 64.7413 12.3494 64.7413 11.8251C64.7413 11.0454 65.0308 10.4595 65.6099 10.0674C66.1935 9.67525 67.0735 9.45867 68.2498 9.41763L69.563 9.36976V8.97308C69.563 8.44872 69.4399 8.07484 69.1937 7.85142C68.952 7.628 68.6101 7.51629 68.1678 7.51629C67.7893 7.51629 67.4223 7.57101 67.0666 7.68044C66.711 7.78987 66.3645 7.92437 66.0271 8.08396L65.5073 6.94863C65.8766 6.75256 66.2961 6.59298 66.7657 6.46987C67.2399 6.34676 67.7323 6.28521 68.243 6.28521ZM69.5562 10.382L68.5781 10.4162C67.7757 10.4435 67.2125 10.5803 66.8888 10.8265C66.5651 11.0728 66.4032 11.4102 66.4032 11.8388C66.4032 12.2126 66.5149 12.4862 66.7384 12.6595C66.9618 12.8282 67.2559 12.9125 67.6206 12.9125C68.1769 12.9125 68.6374 12.7552 69.0022 12.4406C69.3715 12.1215 69.5562 11.6541 69.5562 11.0386V10.382ZM75.014 14H73.3999V3.35797H75.014V14ZM80.1298 12.8373C80.3395 12.8373 80.547 12.8191 80.7522 12.7826C80.9574 12.7416 81.1443 12.6937 81.313 12.639V13.8564C81.1352 13.9339 80.9049 14 80.6222 14.0547C80.3395 14.1094 80.0455 14.1368 79.74 14.1368C79.3114 14.1368 78.9261 14.0661 78.5841 13.9248C78.2421 13.7789 77.9708 13.5304 77.7702 13.1793C77.5696 12.8282 77.4693 12.3426 77.4693 11.7225V7.65308H76.4366V6.93495L77.5445 6.36728L78.0712 4.74635H79.0834V6.42884H81.2515V7.65308H79.0834V11.702C79.0834 12.085 79.1791 12.37 79.3706 12.5569C79.5621 12.7438 79.8152 12.8373 80.1298 12.8373ZM84.4591 3.35797V6.03215C84.4591 6.31029 84.45 6.58158 84.4318 6.84604C84.4181 7.11049 84.4021 7.31567 84.3839 7.46158H84.4728C84.6324 7.19712 84.8284 6.98054 85.061 6.81184C85.2935 6.63858 85.5534 6.50863 85.8407 6.422C86.1325 6.33536 86.4425 6.29205 86.7708 6.29205C87.3499 6.29205 87.8423 6.39008 88.2481 6.58614C88.6539 6.77764 88.964 7.07629 89.1783 7.4821C89.3971 7.8879 89.5066 8.41453 89.5066 9.06199V14H87.8993V9.36292C87.8993 8.77473 87.7785 8.33474 87.5368 8.04292C87.2952 7.74655 86.9213 7.59837 86.4152 7.59837C85.9273 7.59837 85.5397 7.70096 85.2525 7.90614C84.9698 8.10676 84.7669 8.40541 84.6438 8.80209C84.5207 9.19421 84.4591 9.67297 84.4591 10.2384V14H82.8519V3.35797H84.4591ZM98.3635 6.28521C99.321 6.28521 100.044 6.49723 100.532 6.92127C101.024 7.34531 101.27 8.00645 101.27 8.90468V14H100.128L99.8203 12.9262H99.7656C99.5513 13.1998 99.3302 13.4255 99.1022 13.6033C98.8742 13.7811 98.6097 13.9134 98.3088 14C98.0124 14.0912 97.6499 14.1368 97.2213 14.1368C96.77 14.1368 96.3664 14.0547 96.0108 13.8906C95.6551 13.7219 95.3747 13.4665 95.1695 13.1246C94.9644 12.7826 94.8618 12.3494 94.8618 11.8251C94.8618 11.0454 95.1513 10.4595 95.7304 10.0674C96.314 9.67525 97.194 9.45867 98.3704 9.41763L99.6835 9.36976V8.97308C99.6835 8.44872 99.5604 8.07484 99.3142 7.85142C99.0725 7.628 98.7306 7.51629 98.2883 7.51629C97.9098 7.51629 97.5428 7.57101 97.1872 7.68044C96.8315 7.78987 96.485 7.92437 96.1476 8.08396L95.6278 6.94863C95.9971 6.75256 96.4166 6.59298 96.8862 6.46987C97.3604 6.34676 97.8529 6.28521 98.3635 6.28521ZM99.6767 10.382L98.6987 10.4162C97.8962 10.4435 97.3331 10.5803 97.0093 10.8265C96.6856 11.0728 96.5237 11.4102 96.5237 11.8388C96.5237 12.2126 96.6354 12.4862 96.8589 12.6595C97.0823 12.8282 97.3764 12.9125 97.7411 12.9125C98.2974 12.9125 98.7579 12.7552 99.1227 12.4406C99.492 12.1215 99.6767 11.6541 99.6767 11.0386V10.382ZM107.467 6.28521C108.319 6.28521 108.983 6.50635 109.457 6.94863C109.936 7.38635 110.175 8.0908 110.175 9.06199V14H108.568V9.36292C108.568 8.77473 108.447 8.33474 108.205 8.04292C107.964 7.74655 107.59 7.59837 107.084 7.59837C106.35 7.59837 105.839 7.82406 105.552 8.27546C105.269 8.72686 105.128 9.38116 105.128 10.2384V14H103.52V6.42884H104.772L104.998 7.45474H105.087C105.251 7.19028 105.454 6.9737 105.695 6.805C105.942 6.63174 106.215 6.50179 106.516 6.41516C106.822 6.32853 107.138 6.28521 107.467 6.28521ZM114.969 14.1368C114.067 14.1368 113.342 13.8085 112.795 13.1519C112.252 12.4908 111.981 11.5173 111.981 10.2315C111.981 8.93204 112.257 7.94945 112.808 7.28375C113.365 6.61806 114.096 6.28521 115.004 6.28521C115.387 6.28521 115.722 6.33764 116.009 6.44251C116.296 6.54282 116.543 6.67961 116.748 6.85288C116.957 7.02614 117.135 7.21992 117.281 7.43422H117.356C117.334 7.29287 117.306 7.08997 117.274 6.82552C117.247 6.5565 117.233 6.30801 117.233 6.08003V3.35797H118.847V14H117.589L117.302 12.9673H117.233C117.097 13.1861 116.923 13.3845 116.714 13.5623C116.508 13.7355 116.262 13.8746 115.975 13.9795C115.692 14.0844 115.357 14.1368 114.969 14.1368ZM115.421 12.8305C116.109 12.8305 116.595 12.6321 116.878 12.2354C117.16 11.8388 117.306 11.2437 117.315 10.4504V10.2384C117.315 9.39028 117.179 8.74054 116.905 8.28914C116.631 7.83318 116.132 7.6052 115.407 7.6052C114.828 7.6052 114.386 7.84002 114.08 8.30966C113.779 8.77473 113.629 9.42447 113.629 10.2589C113.629 11.0933 113.779 11.7316 114.08 12.1739C114.386 12.6116 114.833 12.8305 115.421 12.8305ZM52.6082 29.2779C52.6082 29.8707 52.4623 30.3814 52.1705 30.81C51.8833 31.2386 51.4684 31.5668 50.9258 31.7948C50.3877 32.0228 49.7448 32.1368 48.9971 32.1368C48.6323 32.1368 48.2835 32.1163 47.9506 32.0752C47.6178 32.0342 47.3032 31.9749 47.0068 31.8974C46.715 31.8153 46.4483 31.7173 46.2066 31.6033V30.0576C46.6124 30.2354 47.0661 30.3973 47.5676 30.5432C48.0692 30.6846 48.5799 30.7552 49.0997 30.7552C49.5237 30.7552 49.8748 30.7005 50.1529 30.5911C50.4356 30.4771 50.6454 30.3175 50.7821 30.1123C50.9189 29.9026 50.9873 29.6587 50.9873 29.3805C50.9873 29.0842 50.9075 28.8334 50.7479 28.6282C50.5884 28.423 50.3467 28.2361 50.023 28.0674C49.7038 27.8941 49.3026 27.7094 48.8192 27.5134C48.491 27.3812 48.1763 27.2307 47.8754 27.062C47.579 26.8933 47.3146 26.6949 47.082 26.467C46.8495 26.239 46.6648 25.97 46.5281 25.6599C46.3958 25.3453 46.3297 24.976 46.3297 24.5519C46.3297 23.9866 46.4642 23.5032 46.7332 23.102C47.0068 22.7008 47.3898 22.393 47.8823 22.1787C48.3792 21.9644 48.9583 21.8572 49.6194 21.8572C50.1438 21.8572 50.6362 21.912 51.0967 22.0214C51.5618 22.1308 52.0178 22.2858 52.4646 22.4865L51.9448 23.8065C51.5345 23.6378 51.1355 23.5032 50.7479 23.4029C50.3649 23.3026 49.9728 23.2525 49.5716 23.2525C49.225 23.2525 48.931 23.3049 48.6893 23.4098C48.4476 23.5146 48.263 23.6628 48.1353 23.8543C48.0122 24.0413 47.9506 24.2647 47.9506 24.5246C47.9506 24.8164 48.0213 25.0626 48.1627 25.2632C48.3086 25.4593 48.532 25.6394 48.8329 25.8035C49.1384 25.9677 49.5305 26.1501 50.0093 26.3507C50.561 26.5787 51.0284 26.818 51.4114 27.0688C51.7989 27.3196 52.0953 27.6205 52.3005 27.9716C52.5057 28.3181 52.6082 28.7536 52.6082 29.2779ZM61.0754 28.1973C61.0754 28.8265 60.9933 29.3851 60.8291 29.873C60.665 30.3608 60.4256 30.7735 60.111 31.1109C59.7964 31.4437 59.418 31.6991 58.9757 31.8769C58.5334 32.0502 58.0341 32.1368 57.4779 32.1368C56.9581 32.1368 56.4816 32.0502 56.0484 31.8769C55.6153 31.6991 55.2391 31.4437 54.9199 31.1109C54.6053 30.7735 54.3614 30.3608 54.1881 29.873C54.0149 29.3851 53.9282 28.8265 53.9282 28.1973C53.9282 27.3629 54.0719 26.6562 54.3591 26.0771C54.6509 25.4935 55.0659 25.0489 55.6039 24.7434C56.1419 24.438 56.7825 24.2852 57.5257 24.2852C58.2234 24.2852 58.8389 24.438 59.3724 24.7434C59.9058 25.0489 60.323 25.4935 60.624 26.0771C60.9249 26.6607 61.0754 27.3675 61.0754 28.1973ZM55.5834 28.1973C55.5834 28.749 55.6495 29.2209 55.7817 29.6131C55.9185 30.0052 56.1282 30.3061 56.4109 30.5159C56.6936 30.721 57.0584 30.8236 57.5052 30.8236C57.9521 30.8236 58.3168 30.721 58.5995 30.5159C58.8822 30.3061 59.0897 30.0052 59.2219 29.6131C59.3541 29.2209 59.4202 28.749 59.4202 28.1973C59.4202 27.6456 59.3541 27.1783 59.2219 26.7953C59.0897 26.4077 58.8822 26.1136 58.5995 25.913C58.3168 25.7078 57.9498 25.6052 57.4984 25.6052C56.8327 25.6052 56.3471 25.8286 56.0416 26.2755C55.7361 26.7223 55.5834 27.3629 55.5834 28.1973ZM65.9723 32.1368C65.2565 32.1368 64.6364 31.9977 64.112 31.7196C63.5877 31.4415 63.1842 31.0151 62.9015 30.4406C62.6188 29.8661 62.4774 29.1366 62.4774 28.252C62.4774 27.331 62.6325 26.5787 62.9425 25.995C63.2526 25.4114 63.6812 24.9805 64.2283 24.7024C64.78 24.4243 65.4115 24.2852 66.1228 24.2852C66.5742 24.2852 66.9823 24.3308 67.3471 24.422C67.7164 24.5086 68.0287 24.6158 68.284 24.7434L67.8053 26.0292C67.5272 25.9153 67.2422 25.8195 66.9504 25.742C66.6586 25.6645 66.3781 25.6257 66.1091 25.6257C65.6669 25.6257 65.2975 25.7238 65.0012 25.9198C64.7093 26.1159 64.4905 26.4077 64.3446 26.7953C64.2032 27.1828 64.1326 27.6638 64.1326 28.2384C64.1326 28.7946 64.2055 29.2643 64.3514 29.6473C64.4973 30.0257 64.7139 30.313 65.0012 30.509C65.2884 30.7005 65.6418 30.7963 66.0613 30.7963C66.4762 30.7963 66.8478 30.7461 67.1761 30.6458C67.5044 30.5455 67.8144 30.4155 68.1062 30.256V31.6512C67.819 31.8153 67.5112 31.9362 67.1829 32.0137C66.8546 32.0958 66.4511 32.1368 65.9723 32.1368ZM71.4917 24.4288V32H69.8845V24.4288H71.4917ZM70.6983 21.5289C70.9446 21.5289 71.1566 21.5951 71.3344 21.7273C71.5168 21.8595 71.608 22.0875 71.608 22.4112C71.608 22.7304 71.5168 22.9584 71.3344 23.0952C71.1566 23.2274 70.9446 23.2935 70.6983 23.2935C70.443 23.2935 70.2264 23.2274 70.0486 23.0952C69.8753 22.9584 69.7887 22.7304 69.7887 22.4112C69.7887 22.0875 69.8753 21.8595 70.0486 21.7273C70.2264 21.5951 70.443 21.5289 70.6983 21.5289ZM76.7648 24.2852C77.7224 24.2852 78.445 24.4972 78.9329 24.9213C79.4254 25.3453 79.6716 26.0064 79.6716 26.9047V32H78.5294L78.2216 30.9262H78.1669C77.9526 31.1998 77.7315 31.4255 77.5035 31.6033C77.2755 31.7811 77.0111 31.9134 76.7101 32C76.4138 32.0912 76.0513 32.1368 75.6227 32.1368C75.1713 32.1368 74.7678 32.0547 74.4121 31.8906C74.0565 31.7219 73.776 31.4665 73.5709 31.1246C73.3657 30.7826 73.2631 30.3494 73.2631 29.8251C73.2631 29.0454 73.5526 28.4595 74.1317 28.0674C74.7153 27.6752 75.5953 27.4587 76.7717 27.4176L78.0848 27.3698V26.9731C78.0848 26.4487 77.9617 26.0748 77.7155 25.8514C77.4739 25.628 77.1319 25.5163 76.6896 25.5163C76.3112 25.5163 75.9441 25.571 75.5885 25.6804C75.2328 25.7899 74.8863 25.9244 74.5489 26.084L74.0291 24.9486C74.3984 24.7526 74.8179 24.593 75.2875 24.4699C75.7617 24.3468 76.2542 24.2852 76.7648 24.2852ZM78.078 28.382L77.1 28.4162C76.2975 28.4435 75.7344 28.5803 75.4107 28.8265C75.0869 29.0728 74.9251 29.4102 74.9251 29.8388C74.9251 30.2126 75.0368 30.4862 75.2602 30.6595C75.4836 30.8282 75.7777 30.9125 76.1425 30.9125C76.6987 30.9125 77.1592 30.7552 77.524 30.4406C77.8933 30.1215 78.078 29.6541 78.078 29.0386V28.382ZM83.5358 32H81.9217V21.358H83.5358V32ZM93.8974 23.2525C93.4187 23.2525 92.9901 23.3391 92.6116 23.5124C92.2377 23.6856 91.9208 23.9364 91.661 24.2647C91.4011 24.5884 91.2027 24.9828 91.0659 25.4479C90.9291 25.9084 90.8607 26.4282 90.8607 27.0073C90.8607 27.7824 90.9702 28.4504 91.189 29.0112C91.4079 29.5675 91.7407 29.9961 92.1876 30.297C92.6344 30.5934 93.1998 30.7416 93.8837 30.7416C94.3078 30.7416 94.7204 30.7005 95.1217 30.6185C95.5229 30.5364 95.9378 30.4247 96.3664 30.2833V31.6786C95.9606 31.8381 95.5503 31.9544 95.1353 32.0274C94.7204 32.1003 94.2417 32.1368 93.6991 32.1368C92.6777 32.1368 91.8297 31.9248 91.1548 31.5007C90.4846 31.0767 89.983 30.4794 89.6502 29.7088C89.3219 28.9382 89.1578 28.0355 89.1578 27.0004C89.1578 26.2435 89.2626 25.5505 89.4724 24.9213C89.6821 24.292 89.9876 23.7495 90.3888 23.2935C90.7901 22.833 91.2848 22.4796 91.873 22.2334C92.4657 21.9826 93.1428 21.8572 93.9043 21.8572C94.4058 21.8572 94.8982 21.9142 95.3816 22.0282C95.8694 22.1377 96.3208 22.295 96.7358 22.5001L96.1612 23.8543C95.8147 23.6902 95.4522 23.5488 95.0738 23.4303C94.6953 23.3117 94.3032 23.2525 93.8974 23.2525ZM101.318 24.2852C102.276 24.2852 102.998 24.4972 103.486 24.9213C103.979 25.3453 104.225 26.0064 104.225 26.9047V32H103.083L102.775 30.9262H102.72C102.506 31.1998 102.285 31.4255 102.057 31.6033C101.829 31.7811 101.564 31.9134 101.263 32C100.967 32.0912 100.605 32.1368 100.176 32.1368C99.7246 32.1368 99.321 32.0547 98.9654 31.8906C98.6097 31.7219 98.3293 31.4665 98.1241 31.1246C97.919 30.7826 97.8164 30.3494 97.8164 29.8251C97.8164 29.0454 98.1059 28.4595 98.685 28.0674C99.2686 27.6752 100.149 27.4587 101.325 27.4176L102.638 27.3698V26.9731C102.638 26.4487 102.515 26.0748 102.269 25.8514C102.027 25.628 101.685 25.5163 101.243 25.5163C100.864 25.5163 100.497 25.571 100.142 25.6804C99.7861 25.7899 99.4396 25.9244 99.1022 26.084L98.5824 24.9486C98.9517 24.7526 99.3712 24.593 99.8408 24.4699C100.315 24.3468 100.807 24.2852 101.318 24.2852ZM102.631 28.382L101.653 28.4162C100.851 28.4435 100.288 28.5803 99.9639 28.8265C99.6402 29.0728 99.4783 29.4102 99.4783 29.8388C99.4783 30.2126 99.59 30.4862 99.8135 30.6595C100.037 30.8282 100.331 30.9125 100.696 30.9125C101.252 30.9125 101.713 30.7552 102.077 30.4406C102.447 30.1215 102.631 29.6541 102.631 29.0386V28.382ZM110.312 24.2852C110.44 24.2852 110.579 24.292 110.729 24.3057C110.88 24.3194 111.009 24.3376 111.119 24.3604L110.968 25.8651C110.873 25.8377 110.754 25.8172 110.613 25.8035C110.476 25.7899 110.353 25.783 110.243 25.783C109.956 25.783 109.683 25.8309 109.423 25.9267C109.163 26.0178 108.933 26.1592 108.732 26.3507C108.531 26.5376 108.374 26.7725 108.26 27.0551C108.146 27.3378 108.089 27.6661 108.089 28.04V32H106.475V24.4288H107.733L107.952 25.7625H108.028C108.178 25.4935 108.365 25.2473 108.588 25.0239C108.812 24.8004 109.067 24.6226 109.354 24.4904C109.646 24.3536 109.965 24.2852 110.312 24.2852ZM115.537 24.2852C116.212 24.2852 116.791 24.4243 117.274 24.7024C117.758 24.9805 118.129 25.3749 118.389 25.8856C118.649 26.3963 118.779 27.0073 118.779 27.7186V28.5803H113.725C113.743 29.3144 113.939 29.8798 114.313 30.2765C114.691 30.6732 115.22 30.8715 115.9 30.8715C116.383 30.8715 116.816 30.8259 117.199 30.7347C117.587 30.639 117.986 30.4999 118.396 30.3175V31.6238C118.018 31.8017 117.632 31.9316 117.24 32.0137C116.848 32.0958 116.378 32.1368 115.831 32.1368C115.088 32.1368 114.434 31.9932 113.868 31.7059C113.308 31.4141 112.868 30.9809 112.548 30.4064C112.234 29.8319 112.076 29.1184 112.076 28.2657C112.076 27.4176 112.22 26.6972 112.507 26.1045C112.795 25.5117 113.198 25.0603 113.718 24.7503C114.238 24.4402 114.844 24.2852 115.537 24.2852ZM115.537 25.4958C115.031 25.4958 114.621 25.6599 114.306 25.9882C113.996 26.3165 113.814 26.7975 113.759 27.4313H117.206C117.201 27.0529 117.138 26.7177 117.014 26.4259C116.896 26.1341 116.714 25.9061 116.467 25.742C116.226 25.5778 115.916 25.4958 115.537 25.4958Z" fill="#272727"></path>
</svg>
