<?xml version="1.0" encoding="UTF-8"?>
<svg preserveAspectRatio="xMidYMid slice" xmlns="http://www.w3.org/2000/svg" width="34px" height="10px" viewBox="0 0 104 31" fill="none">
  <path d="M13.9105 11.9007C13.9105 15.9855 9.96547 16.5646 6.31881 16.5646C4.78039 16.572 3.24374 16.4596 1.72279 16.2283V3.13195C1.20376 3.21043 0.68659 3.30076 0.171685 3.40286C-0.129193 2.59387 -0.0525721 1.07927 0.544823 0.592884C2.36894 0.290528 4.21501 0.14013 6.06403 0.143239C10.0303 0.143239 13.1219 1.18515 13.1219 4.45286C13.1219 6.28881 12.3401 7.51879 10.3735 8.12351C12.6198 8.39567 13.9105 9.56773 13.9105 11.9007ZM3.6894 2.92581C4.49423 2.94947 5.10969 3.63578 5.10969 5.23507V7.05794H6.449C8.86474 7.05794 9.77734 6.44139 9.77734 4.85642C9.77734 3.37483 8.486 2.83613 5.8678 2.83613C5.1452 2.84298 4.41636 2.86727 3.6894 2.92581ZM10.4993 11.6983C10.4993 9.86355 9.16126 9.62627 6.96354 9.62627C6.49074 9.62627 5.73325 9.63873 5.11218 9.64994V13.8786C5.7395 13.974 6.37323 14.0211 7.00777 14.0193C9.18431 14.0193 10.4993 13.5112 10.4993 11.6983ZM15.6871 8.4075C15.6871 2.23889 19.406 0 23.2545 0C27.103 0 30.8107 2.23889 30.8107 8.41684C30.8107 14.5942 27.0931 16.8225 23.2545 16.8225C19.416 16.8225 15.6865 14.5792 15.6865 8.40874L15.6871 8.4075ZM27.1871 8.4075C27.1871 5.25873 26.2633 2.83115 23.2545 2.83115C20.2458 2.83115 19.3114 5.25873 19.3114 8.4075C19.3114 11.5569 20.2358 13.9838 23.2545 13.9838C26.2733 13.9838 27.1871 11.5569 27.1871 8.4075ZM45.983 16.0558C45.783 16.3641 44.9053 16.5528 44.131 16.5528C43.5355 16.5744 42.9403 16.503 42.3668 16.3411C41.3508 14.5443 40.4412 12.6893 39.6427 10.7859C38.8258 10.8938 38.0035 10.9568 37.1796 10.9746V16.3392C36.629 16.4936 36.0583 16.5646 35.4859 16.5509C34.9136 16.5703 34.342 16.4988 33.7921 16.3392V3.15125C33.2875 3.22163 32.7618 3.3194 32.2398 3.41033C31.9333 2.59449 32.0155 1.07927 32.6073 0.592884C34.2674 0.287723 35.9524 0.137634 37.6406 0.143239C42.1295 0.143239 45.35 1.42242 45.35 5.2114C45.35 7.57796 44.3396 9.05892 42.626 9.92458C43.7223 12.042 44.7639 13.9135 45.983 16.0558ZM37.1728 5.03267V8.41933C40.6307 8.30163 42.0989 7.74673 42.0989 5.41131C42.0989 3.32812 40.4525 2.84298 37.6344 2.84298C37.0769 2.84298 36.4975 2.86665 35.8933 2.91398C36.6034 3.00802 37.1728 3.65944 37.1728 5.03267ZM62.3038 7.92111C62.3038 13.8126 59.001 16.5777 53.3504 16.5777C51.8492 16.5833 50.3496 16.4775 48.864 16.2613V3.30134C48.3669 3.37172 47.8455 3.44209 47.3129 3.52679C47.012 2.59387 47.0862 1.07927 47.6854 0.581051C49.4559 0.300013 51.2451 0.153656 53.0377 0.143239C58.6105 0.143239 62.3038 2.2501 62.3038 7.92111ZM58.9649 8.19388C58.9649 4.13275 56.9049 3.00802 53.1504 3.00802C52.6047 3.00802 52.0373 3.03168 51.4212 3.06718C51.9058 3.33996 52.2497 3.96772 52.2497 5.03267V13.8543C52.7748 13.9371 53.3056 13.9764 53.8369 13.9726C57.3895 13.9726 58.9649 11.971 58.9649 8.19388ZM77.4854 8.12351C79.4514 7.51942 80.2325 6.28881 80.2325 4.45224C80.2325 1.18515 77.1415 0.143239 73.1747 0.143239C71.3259 0.140164 69.48 0.290563 67.6561 0.592884C67.0637 1.07865 66.9833 2.59387 67.2892 3.41033C67.8037 3.30632 68.321 3.21598 68.8403 3.13942V16.2346C70.3603 16.4662 71.8977 16.5783 73.4363 16.5709C77.083 16.5709 81.0274 15.9917 81.0274 11.9069C81.0212 9.56773 79.728 8.39567 77.4854 8.12351ZM70.8063 2.92581C71.531 2.8688 72.2577 2.84117 72.9847 2.84298C75.6029 2.84298 76.8942 3.37483 76.8942 4.86327C76.8942 6.44824 75.9816 7.06479 73.5659 7.06479H72.2272V5.23445C72.2191 3.63702 71.6024 2.94885 70.7976 2.92519L70.8063 2.92581ZM74.1178 14.0193C73.4833 14.0209 72.8495 13.9736 72.2222 13.878V9.64994C72.8395 9.63715 73.4568 9.62926 74.0742 9.62627C76.2626 9.62627 77.61 9.86355 77.61 11.6983C77.61 13.533 76.2931 14.0193 74.1178 14.0193ZM83.6288 0.475179V16.3404C84.2044 16.5 84.8009 16.5714 85.3979 16.5522C86.0146 16.5522 86.7011 16.5055 87.1758 16.3404V0.475179C86.7011 0.307029 86.014 0.260944 85.3979 0.260944C84.7995 0.24163 84.2016 0.313876 83.625 0.475179H83.6288ZM97.9395 0.343773C97.466 0.132029 96.7434 0.0373667 96.0215 0.0373667C95.2989 0.0373667 94.5638 0.131406 94.0555 0.343773C94.3919 0.900536 94.6952 1.48159 94.9911 2.07198C94.281 2.38026 93.5334 3.28079 92.7523 5.43872C91.4609 8.92727 90.3371 12.4755 89.3847 16.0714C89.6102 16.4077 90.6997 16.5323 91.4572 16.5323C91.8811 16.5468 92.3038 16.4789 92.7018 16.3323C92.9386 15.3222 93.1865 14.3544 93.4356 13.3835H99.8064C100.103 14.355 100.399 15.3371 100.684 16.3323C101.081 16.4789 101.504 16.5467 101.927 16.5323C102.686 16.5323 103.779 16.4145 104 16.0714C102.362 10.68 100.183 4.46407 97.9326 0.343773H97.9395ZM94.1732 10.7797C94.8306 8.57154 95.5775 6.39106 96.412 4.24361C97.3714 6.37787 98.221 8.55945 98.958 10.7797H94.1732ZM1.73338 30.8107V22.9002C1.92572 22.8254 2.13142 22.791 2.33763 22.7993C2.54631 22.7912 2.755 22.8254 2.94997 22.9002V30.8107C2.75445 30.8848 2.54596 30.9187 2.33701 30.9103C2.13092 30.9183 1.92599 30.8844 1.73338 30.8107ZM8.87471 27.4228C9.79915 27.0404 10.3579 26.3049 10.3579 25.0998C10.3579 23.3479 9.08713 22.7538 7.0464 22.7538C6.36318 22.7507 5.68067 22.7979 5.00441 22.8952V30.8057C5.19752 30.8786 5.40309 30.9116 5.61053 30.9053C5.81672 30.9116 6.02291 30.8779 6.21602 30.8057V27.7528C6.39792 27.764 6.58169 27.7697 6.75175 27.7697C7.08938 27.7721 7.42701 27.751 7.76215 27.7074C8.21744 28.7767 8.73045 29.8206 9.29893 30.8343C9.5182 30.8941 9.74557 30.9197 9.97232 30.9103C10.2838 30.9103 10.5953 30.8393 10.6781 30.7285C10.0392 29.6476 9.43767 28.5451 8.87471 27.4228ZM6.77355 26.8168C6.60536 26.8168 6.41474 26.8168 6.21478 26.8V23.8237C6.53247 23.7801 6.85329 23.7615 7.1741 23.7652C8.65606 23.7652 9.17434 24.2229 9.17434 25.1994C9.17621 26.3167 8.48102 26.8168 6.77355 26.8168ZM93.222 27.4228C94.1439 27.0404 94.7033 26.3049 94.7033 25.0998C94.7033 23.3479 93.4338 22.7538 91.3918 22.7538C90.7091 22.7501 90.0276 22.7974 89.3511 22.8952V30.8057C89.7437 30.9381 90.1688 30.9381 90.5614 30.8057V27.7528C90.7452 27.764 90.9271 27.7697 91.0972 27.7697C91.4383 27.7726 91.7793 27.7518 92.1175 27.7074C92.5701 28.7769 93.081 29.8208 93.6481 30.8343C93.8673 30.8941 94.0941 30.9197 94.3208 30.9103C94.6342 30.9103 94.9456 30.8393 95.0285 30.7285C94.3866 29.6487 93.784 28.5461 93.222 27.4228ZM91.1227 26.8168C90.9545 26.8168 90.7639 26.8168 90.5633 26.8V23.8237C90.8812 23.7805 91.2018 23.761 91.5226 23.7652C93.0064 23.7652 93.5235 24.2229 93.5235 25.1994C93.5216 26.3167 92.8277 26.8168 91.1221 26.8168H91.1227ZM12.294 30.8107V22.9002C12.6886 22.7655 13.1167 22.7655 13.5112 22.9002V30.8107C13.1163 30.9431 12.6889 30.9431 12.294 30.8107ZM15.2137 30.3511C15.2038 30.1665 15.2316 29.9819 15.2952 29.8084C15.3588 29.6348 15.4569 29.476 15.5837 29.3415C16.3182 29.7756 16.9592 29.988 17.66 29.988C18.6361 29.988 19.1749 29.5938 19.1749 28.7947C19.1749 28.1483 18.7408 27.7846 17.6463 27.3536L17.3448 27.2353C16.0802 26.7309 15.286 26.1604 15.286 24.8943C15.286 23.5478 16.1986 22.7065 17.9982 22.7065C18.7291 22.7 19.4519 22.8606 20.1112 23.176C20.1651 23.5622 20.0634 23.954 19.8284 24.2653C19.2623 23.9171 18.6105 23.7334 17.9459 23.7347C16.9579 23.7347 16.505 24.1121 16.505 24.7697C16.505 25.494 17.0638 25.8235 17.9459 26.1753L18.3284 26.3285C19.616 26.8517 20.3922 27.3991 20.3922 28.7051C20.3922 30.153 19.4341 30.9994 17.6512 30.9994C16.7946 31.0116 15.9512 30.7869 15.2137 30.3511ZM27.987 22.8952V30.8057C27.592 30.9381 27.1647 30.9381 26.7698 30.8057V27.2459H23.2913V30.8107C23.0966 30.8846 22.8889 30.9185 22.6808 30.9103C22.4739 30.9184 22.2675 30.8845 22.0741 30.8107V22.9002C22.4686 22.7655 22.8967 22.7655 23.2913 22.9002V26.2277H26.7679V22.8952C27.1625 22.7605 27.5906 22.7605 27.9851 22.8952H27.987ZM33.9354 23.881V26.4531H36.8308C36.8869 26.615 36.9124 26.7863 36.9068 26.9576C36.913 27.1344 36.8869 27.3107 36.8308 27.4782H33.9354V30.8038C33.7348 30.8723 33.5243 30.9022 33.3125 30.8935C33.1011 30.9015 32.8901 30.8713 32.6895 30.8044V22.8528H37.0999C37.1628 23.0185 37.1908 23.1954 37.1827 23.3728C37.189 23.5454 37.1616 23.7166 37.1005 23.8773L33.9354 23.881ZM38.2199 26.8523C38.2199 24.1706 39.6851 22.7065 41.8734 22.7065C44.0624 22.7065 45.5201 24.1706 45.5201 26.8523C45.5201 29.5334 44.0556 31 41.8734 31C39.6913 31 38.2199 29.5352 38.2199 26.8523ZM44.2207 26.8523C44.2207 24.832 43.3785 23.7228 41.8734 23.7228C40.3684 23.7228 39.5163 24.8289 39.5163 26.8523C39.5163 28.8751 40.3585 29.9811 41.8734 29.9811C43.3884 29.9811 44.2207 28.8751 44.2207 26.8523ZM46.7759 26.8523C46.7759 24.1706 48.2411 22.7065 50.4276 22.7065C52.6147 22.7065 54.083 24.1725 54.083 26.8523C54.083 29.5315 52.6185 31 50.4344 31C48.2511 31 46.7759 29.5352 46.7759 26.8523ZM52.7767 26.8523C52.7767 24.832 51.9345 23.7228 50.4282 23.7228C48.9207 23.7228 48.071 24.8289 48.071 26.8523C48.071 28.8751 48.9126 29.9811 50.4276 29.9811C51.9432 29.9811 52.7767 28.8751 52.7767 26.8523ZM61.9961 26.6113C61.9961 29.4729 60.6188 30.9458 57.7869 30.9458C57.0544 30.9483 56.323 30.896 55.5979 30.7876V22.9064C56.3623 22.8012 57.1331 22.7502 57.9047 22.7538C60.6493 22.7538 61.9961 23.8474 61.9961 26.6113ZM60.7484 26.6873C60.7484 24.4826 59.9772 23.7889 57.886 23.7889C57.5301 23.7877 57.1746 23.8112 56.822 23.8592V29.8516C57.1938 29.9123 57.5703 29.9398 57.947 29.9338C59.9604 29.9338 60.7552 28.8284 60.7552 26.6873H60.7484ZM71.722 28.5874C71.722 30.6176 69.9223 30.944 68.2641 30.944C67.5603 30.9459 66.8575 30.8897 66.1629 30.7758V22.8952C66.8491 22.8013 67.541 22.7555 68.2336 22.7582C70.4525 22.7582 71.4174 23.5242 71.4174 24.8712C71.4174 25.7768 71.0405 26.4226 70.0924 26.7228C71.1277 26.8473 71.722 27.4414 71.722 28.5874ZM67.3633 23.7938V26.3186H68.0112C69.2103 26.3186 70.2101 26.1816 70.2101 24.9422C70.2101 24.0361 69.4171 23.7365 68.3582 23.7365C68.0261 23.7365 67.6935 23.7559 67.3633 23.7938ZM70.5116 28.5874C70.5116 27.5118 69.7168 27.3044 68.446 27.3044H67.3633V29.8952C67.7277 29.9494 68.0959 29.9768 68.4647 29.978C69.7404 29.9762 70.5116 29.6766 70.5116 28.5874ZM72.8252 26.8523C72.8252 24.1706 74.2891 22.7065 76.4781 22.7065C78.6671 22.7065 80.1248 24.1706 80.1248 26.8523C80.1248 29.5334 78.6634 31 76.475 31C74.286 31 72.8252 29.5352 72.8252 26.8523ZM78.8253 26.8523C78.8253 24.832 77.9837 23.7228 76.4781 23.7228C74.9731 23.7228 74.1216 24.8289 74.1216 26.8523C74.1216 28.8751 74.9625 29.9811 76.4781 29.9811C77.9937 29.9811 78.8322 28.8751 78.8322 26.8523H78.8253ZM87.9102 30.7372C87.8274 30.8599 87.4169 30.9053 87.134 30.9053C86.9728 30.9112 86.8121 30.883 86.6625 30.8225C86.5042 30.2471 86.3392 29.6884 86.1741 29.1398H82.6271C82.4589 29.6866 82.3032 30.2502 82.1456 30.8225C81.996 30.883 81.8353 30.9112 81.674 30.9053C81.3912 30.9053 80.9801 30.858 80.891 30.7372C81.603 28.1315 82.6221 25.1197 83.6506 22.8914C84.1476 22.7644 84.6686 22.7644 85.1656 22.8914C86.1859 25.1235 87.1976 28.1358 87.9102 30.7372ZM85.8695 28.1415C85.4155 26.7118 84.9265 25.2936 84.4031 23.8879C83.8815 25.2919 83.3932 26.7081 82.9386 28.1352L85.8695 28.1415ZM103.002 26.6113C103.002 29.4729 101.625 30.9458 98.7929 30.9458C98.0603 30.9483 97.329 30.896 96.6039 30.7876V22.9064C97.3682 22.8012 98.1391 22.7502 98.9106 22.7538C101.655 22.7538 103.002 23.8474 103.002 26.6113ZM101.754 26.6873C101.754 24.4826 100.983 23.7889 98.8919 23.7889C98.5361 23.7877 98.1806 23.8112 97.828 23.8592V29.8516C98.1998 29.9123 98.5763 29.9398 98.953 29.9338C100.959 29.9338 101.754 28.8284 101.754 26.6873Z" fill="#272727"></path>
</svg>
