<svg width="1067" height="1067" viewBox="0 0 1067 1067" fill="none" xmlns="http://www.w3.org/2000/svg">
<g clip-path="url(#clip0_0_7593)">
<path d="M533.5 1066.5C827.868 1066.5 1066.5 827.868 1066.5 533.5C1066.5 239.132 827.868 0.5 533.5 0.5C239.132 0.5 0.5 239.132 0.5 533.5C0.5 827.868 239.132 1066.5 533.5 1066.5Z" fill="white" fill-opacity="0.2" stroke="white"/>
<path d="M533 969.5C774.072 969.5 969.5 774.072 969.5 533C969.5 291.928 774.072 96.5 533 96.5C291.928 96.5 96.5 291.928 96.5 533C96.5 774.072 291.928 969.5 533 969.5Z" fill="white" fill-opacity="0.5" stroke="white"/>
<path d="M533 877C722.986 877 877 722.986 877 533C877 343.014 722.986 189 533 189C343.014 189 189 343.014 189 533C189 722.986 343.014 877 533 877Z" fill="white" fill-opacity="0.5"/>
<path d="M752.944 629.306C764.048 601.785 770.162 571.713 770.162 540.214C770.162 408.64 663.5 301.978 531.925 301.978" stroke="url(#paint0_linear_0_7593)" stroke-width="5.11373" stroke-linecap="round"/>
<path d="M501.083 299.911C471.697 304.055 442.598 313.797 415.319 329.546C301.372 395.333 262.331 541.036 328.118 654.983" stroke="url(#paint1_linear_0_7593)" stroke-width="5.11373" stroke-linecap="round"/>
<path d="M341.749 682.727C360.032 706.104 383.018 726.434 410.297 742.183C524.243 807.971 669.946 768.93 735.733 654.983" stroke="url(#paint2_linear_0_7593)" stroke-width="5.11373" stroke-linecap="round"/>
<circle cx="540" cy="529" r="427" stroke="#CBCBCB" stroke-width="3" stroke-linecap="round" stroke-dasharray="1 20"/>
<path d="M208.244 666.489C212.245 666.489 215.489 663.245 215.489 659.244C215.489 655.243 212.245 652 208.244 652C204.243 652 201 655.243 201 659.244C201 663.245 204.243 666.489 208.244 666.489Z" fill="#F27090"/>
<path d="M208.244 670.75C214.599 670.75 219.75 665.599 219.75 659.244C219.75 652.89 214.599 647.739 208.244 647.739C201.89 647.739 196.739 652.89 196.739 659.244C196.739 665.599 201.89 670.75 208.244 670.75Z" stroke="#F27090" stroke-opacity="0.1" stroke-width="8.52288"/>
<path d="M392.244 132.489C396.245 132.489 399.489 129.245 399.489 125.244C399.489 121.243 396.245 118 392.244 118C388.243 118 385 121.243 385 125.244C385 129.245 388.243 132.489 392.244 132.489Z" fill="#F2AA48"/>
<path d="M392.244 136.75C398.599 136.75 403.75 131.599 403.75 125.244C403.75 118.89 398.599 113.739 392.244 113.739C385.89 113.739 380.739 118.89 380.739 125.244C380.739 131.599 385.89 136.75 392.244 136.75Z" stroke="#F2AA48" stroke-opacity="0.1" stroke-width="8.52288"/>
<path d="M829.244 217.489C833.245 217.489 836.489 214.245 836.489 210.244C836.489 206.243 833.245 203 829.244 203C825.243 203 822 206.243 822 210.244C822 214.245 825.243 217.489 829.244 217.489Z" fill="#97C4FF"/>
<path d="M829.244 221.75C835.599 221.75 840.75 216.599 840.75 210.244C840.75 203.89 835.599 198.739 829.244 198.739C822.89 198.739 817.739 203.89 817.739 210.244C817.739 216.599 822.89 221.75 829.244 221.75Z" stroke="#B3C6DF" stroke-opacity="0.1" stroke-width="8.52288"/>
</g>
<defs>
<linearGradient id="paint0_linear_0_7593" x1="488.935" y1="362.622" x2="672.76" y2="653.86" gradientUnits="userSpaceOnUse">
<stop stop-color="#F27090"/>
<stop offset="1" stop-color="#F27090" stop-opacity="0"/>
</linearGradient>
<linearGradient id="paint1_linear_0_7593" x1="316.079" y1="621.14" x2="394.407" y2="279.327" gradientUnits="userSpaceOnUse">
<stop stop-color="#F2AA48"/>
<stop offset="1" stop-color="#F2AA48" stop-opacity="0.01"/>
</linearGradient>
<linearGradient id="paint2_linear_0_7593" x1="713.799" y1="686.917" x2="345.987" y2="627.649" gradientUnits="userSpaceOnUse">
<stop stop-color="#B3C6DF"/>
<stop offset="1" stop-color="#B3C6DF" stop-opacity="0.01"/>
</linearGradient>
<clipPath id="clip0_0_7593">
<rect width="1067" height="1067" fill="white"/>
</clipPath>
</defs>
</svg>
