<?xml version="1.0" encoding="UTF-8"?>
<svg xmlns="http://www.w3.org/2000/svg" width="123" height="40" viewBox="0 0 123 40" fill="none">
  <g id="Logo">
    <path id="Vector" d="M18.0417 15.7356C18.0417 20.8623 13.0804 21.5892 8.49436 21.5892C6.55965 21.5985 4.62716 21.4574 2.71443 21.1672V4.73016C2.0617 4.82866 1.4113 4.94203 0.763761 5.07017C0.385379 4.05482 0.481737 2.15389 1.23302 1.54343C3.52702 1.16395 5.84864 0.97519 8.17395 0.979092C13.1619 0.979092 17.0499 2.28677 17.0499 6.388C17.0499 8.69226 16.0667 10.236 13.5935 10.995C16.4185 11.3365 18.0417 12.8076 18.0417 15.7356ZM5.18762 4.47144C6.19978 4.50114 6.97378 5.3625 6.97378 7.36974V9.65758H8.65809C11.6961 9.65758 12.8438 8.88376 12.8438 6.8945C12.8438 5.03499 11.2198 4.35888 7.92718 4.35888C7.01843 4.36748 6.10185 4.39796 5.18762 4.47144ZM13.7518 15.4815C13.7518 13.1788 12.069 12.881 9.30518 12.881C8.71058 12.881 7.75796 12.8967 6.97691 12.9107V18.218C7.76582 18.3378 8.56281 18.3969 9.3608 18.3947C12.098 18.3947 13.7518 17.7569 13.7518 15.4815ZM20.2759 11.3514C20.2759 3.60929 24.9528 0.799316 29.7927 0.799316C34.6325 0.799316 39.2953 3.60929 39.2953 11.3631C39.2953 19.1161 34.62 21.9128 29.7927 21.9128C24.9654 21.9128 20.2751 19.0974 20.2751 11.3529L20.2759 11.3514ZM34.7383 11.3514C34.7383 7.39944 33.5765 4.35263 29.7927 4.35263C26.0088 4.35263 24.8337 7.39944 24.8337 11.3514C24.8337 15.3041 25.9963 18.3501 29.7927 18.3501C33.589 18.3501 34.7383 15.3041 34.7383 11.3514ZM58.3758 20.9506C58.1244 21.3375 57.0205 21.5744 56.0468 21.5744C55.2979 21.6015 54.5493 21.5119 53.8282 21.3086C52.5504 19.0535 51.4065 16.7254 50.4024 14.3364C49.375 14.4719 48.3409 14.551 47.3048 14.5733V21.3063C46.6123 21.5001 45.8947 21.5892 45.1747 21.572C44.4551 21.5963 43.7362 21.5066 43.0447 21.3063V4.75439C42.4101 4.84271 41.7489 4.96543 41.0924 5.07955C40.707 4.05561 40.8104 2.15389 41.5546 1.54343C43.6424 1.16043 45.7615 0.972058 47.8845 0.979092C53.5297 0.979092 57.5799 2.58457 57.5799 7.34003C57.5799 10.3102 56.3092 12.169 54.1541 13.2554C55.5329 15.913 56.8427 18.2618 58.3758 20.9506ZM47.2962 7.11571V11.3662C51.6449 11.2185 53.4913 10.5221 53.4913 7.59094C53.4913 4.97637 51.4208 4.36748 47.8767 4.36748C47.1756 4.36748 46.447 4.39718 45.6871 4.45658C46.5802 4.57461 47.2962 5.3922 47.2962 7.11571ZM78.9009 10.7409C78.9009 18.1352 74.7473 21.6056 67.6411 21.6056C65.7532 21.6126 63.8673 21.4799 61.9991 21.2086V4.94276C61.3739 5.03109 60.7182 5.11941 60.0484 5.22571C59.67 4.05482 59.7632 2.15389 60.5169 1.52858C62.7434 1.17586 64.9935 0.992167 67.2478 0.979092C74.2561 0.979092 78.9009 3.62336 78.9009 10.7409ZM74.7019 11.0833C74.7019 5.98624 72.1112 4.57461 67.3896 4.57461C66.7034 4.57461 65.9897 4.60431 65.2149 4.64887C65.8244 4.99122 66.2568 5.77911 66.2568 7.11571V18.1876C66.9172 18.2915 67.5847 18.3408 68.2529 18.3361C72.7207 18.3361 74.7019 15.8239 74.7019 11.0833ZM97.9932 10.995C100.466 10.2368 101.448 8.69226 101.448 6.38722C101.448 2.28677 97.5607 0.979092 92.5721 0.979092C90.247 0.975233 87.9256 1.164 85.6319 1.54343C84.8869 2.15311 84.7858 4.05482 85.1705 5.07955C85.8176 4.949 86.468 4.83562 87.1211 4.73954V21.175C89.0326 21.4657 90.9661 21.6064 92.9011 21.597C97.4871 21.597 102.448 20.8701 102.448 15.7434C102.44 12.8076 100.813 11.3365 97.9932 10.995ZM89.5936 4.47144C90.505 4.39989 91.4189 4.36521 92.3331 4.36748C95.6257 4.36748 97.2497 5.03499 97.2497 6.9031C97.2497 8.89236 96.1021 9.66618 93.064 9.66618H91.3805V7.36896C91.3703 5.36406 90.5947 4.50036 89.5826 4.47065L89.5936 4.47144ZM93.7581 18.3947C92.9601 18.3966 92.1631 18.3373 91.3742 18.2173V12.9107C92.1505 12.8947 92.9269 12.8848 93.7033 12.881C96.4554 12.881 98.1499 13.1788 98.1499 15.4815C98.1499 17.7842 96.4938 18.3947 93.7581 18.3947ZM105.719 1.3957V21.3078C106.443 21.5081 107.193 21.5977 107.944 21.5736C108.719 21.5736 109.583 21.515 110.18 21.3078V1.3957C109.583 1.18466 108.719 1.12682 107.944 1.12682C107.191 1.10258 106.439 1.19326 105.714 1.3957H105.719ZM123.716 1.23078C123.121 0.965023 122.212 0.846214 121.304 0.846214C120.395 0.846214 119.471 0.964241 118.832 1.23078C119.255 1.92956 119.636 2.65882 120.008 3.39981C119.115 3.78672 118.175 4.91697 117.193 7.62533C115.569 12.0037 114.155 16.4571 112.958 20.9702C113.241 21.3923 114.611 21.5486 115.564 21.5486C116.097 21.5669 116.629 21.4817 117.129 21.2977C117.427 20.0299 117.739 18.8152 118.052 17.5966H126.064C126.437 18.816 126.809 20.0486 127.167 21.2977C127.667 21.4816 128.199 21.5668 128.731 21.5486C129.685 21.5486 131.061 21.4009 131.338 20.9702C129.277 14.2036 126.538 6.40207 123.708 1.23078H123.716ZM118.98 14.3286C119.806 11.5573 120.746 8.82059 121.795 6.12537C123.002 8.80404 124.07 11.5421 124.997 14.3286H118.98ZM2.72775 39.4691V29.5408C2.96963 29.4469 3.22832 29.4038 3.48765 29.4142C3.75008 29.404 4.01252 29.447 4.25773 29.5408V39.4691C4.01184 39.5622 3.74964 39.6047 3.48686 39.5942C3.22769 39.6042 2.96997 39.5616 2.72775 39.4691ZM11.7087 35.217C12.8712 34.7371 13.5739 33.814 13.5739 32.3015C13.5739 30.1028 11.9758 29.3571 9.40937 29.3571C8.55017 29.3532 7.69184 29.4125 6.84138 29.5345V39.4629C7.08424 39.5543 7.34276 39.5957 7.60363 39.5879C7.86294 39.5957 8.12224 39.5535 8.3651 39.4629V35.6313C8.59385 35.6454 8.82495 35.6524 9.03882 35.6524C9.46342 35.6555 9.88803 35.629 10.3095 35.5742C10.8821 36.9164 11.5272 38.2265 12.2421 39.4988C12.5179 39.5739 12.8038 39.6059 13.089 39.5942C13.4807 39.5942 13.8724 39.5051 13.9766 39.3659C13.1731 38.0094 12.4166 36.6256 11.7087 35.217ZM9.06624 34.4565C8.85472 34.4565 8.615 34.4565 8.36353 34.4354V30.7C8.76307 30.6453 9.16652 30.6218 9.56997 30.6265C11.4337 30.6265 12.0855 31.201 12.0855 32.4266C12.0878 33.8288 11.2135 34.4565 9.06624 34.4565ZM117.783 35.217C118.943 34.7371 119.646 33.814 119.646 32.3015C119.646 30.1028 118.05 29.3571 115.482 29.3571C114.623 29.3524 113.766 29.4118 112.915 29.5345V39.4629C113.409 39.629 113.944 39.629 114.438 39.4629V35.6313C114.669 35.6454 114.897 35.6524 115.111 35.6524C115.54 35.6561 115.969 35.63 116.394 35.5742C116.964 36.9166 117.606 38.2268 118.319 39.4988C118.595 39.5739 118.88 39.6059 119.165 39.5942C119.559 39.5942 119.951 39.5051 120.055 39.3659C119.248 38.0108 118.49 36.6269 117.783 35.217ZM115.143 34.4565C114.932 34.4565 114.692 34.4565 114.44 34.4354V30.7C114.84 30.6457 115.243 30.6212 115.646 30.6265C117.512 30.6265 118.163 31.201 118.163 32.4266C118.16 33.8288 117.288 34.4565 115.143 34.4565H115.143ZM16.0087 39.4691V29.5408C16.5049 29.3718 17.0433 29.3718 17.5395 29.5408V39.4691C17.0428 39.6353 16.5054 39.6353 16.0087 39.4691ZM19.6805 38.8923C19.6681 38.6607 19.703 38.4289 19.783 38.2112C19.863 37.9934 19.9864 37.794 20.1459 37.6252C21.0695 38.17 21.8756 38.4366 22.757 38.4366C23.9845 38.4366 24.6622 37.9418 24.6622 36.939C24.6622 36.1276 24.1162 35.6712 22.7397 35.1303L22.3606 34.9818C20.7702 34.3486 19.7714 33.6327 19.7714 32.0436C19.7714 30.3537 20.9191 29.2977 23.1823 29.2977C24.1015 29.2896 25.0104 29.4912 25.8396 29.8871C25.9074 30.3718 25.7794 30.8635 25.484 31.2541C24.7721 30.8172 23.9523 30.5866 23.1165 30.5882C21.8741 30.5882 21.3045 31.0619 21.3045 31.8873C21.3045 32.7963 22.0072 33.2098 23.1165 33.6514L23.5975 33.8437C25.2168 34.5003 26.1929 35.1873 26.1929 36.8264C26.1929 38.6437 24.9881 39.706 22.746 39.706C21.6687 39.7213 20.608 39.4392 19.6805 38.8923ZM35.7442 29.5345V39.4629C35.2475 39.629 34.7101 39.629 34.2134 39.4629V34.995H29.8389V39.4691C29.594 39.5619 29.3329 39.6044 29.0712 39.5942C28.811 39.6043 28.5514 39.5618 28.3081 39.4691V29.5408C28.8043 29.3718 29.3427 29.3718 29.8389 29.5408V33.7171H34.2111V29.5345C34.7072 29.3655 35.2456 29.3655 35.7418 29.5345H35.7442ZM43.2249 30.7719V34H46.8661C46.9366 34.2033 46.9687 34.4182 46.9617 34.6331C46.9695 34.8551 46.9366 35.0763 46.8661 35.2866H43.2249V39.4605C42.9726 39.5465 42.7078 39.584 42.4415 39.5731C42.1757 39.5831 41.9103 39.5453 41.6581 39.4613V29.4814H47.2045C47.2837 29.6893 47.3189 29.9113 47.3087 30.1341C47.3166 30.3506 47.2821 30.5655 47.2053 30.7672L43.2249 30.7719ZM48.6131 34.5011C48.6131 31.1353 50.4556 29.2977 53.2077 29.2977C55.9606 29.2977 57.7938 31.1353 57.7938 34.5011C57.7938 37.866 55.952 39.7067 53.2077 39.7067C50.4635 39.7067 48.6131 37.8683 48.6131 34.5011ZM56.1596 34.5011C56.1596 31.9654 55.1004 30.5733 53.2077 30.5733C51.315 30.5733 50.2433 31.9615 50.2433 34.5011C50.2433 37.0398 51.3025 38.428 53.2077 38.428C55.113 38.428 56.1596 37.0398 56.1596 34.5011ZM59.3731 34.5011C59.3731 31.1353 61.2157 29.2977 63.9654 29.2977C66.7159 29.2977 68.5624 31.1377 68.5624 34.5011C68.5624 37.8636 66.7206 39.7067 63.974 39.7067C61.2282 39.7067 59.3731 37.8683 59.3731 34.5011ZM66.9196 34.5011C66.9196 31.9654 65.8604 30.5733 63.9662 30.5733C62.0703 30.5733 61.0018 31.9615 61.0018 34.5011C61.0018 37.0398 62.0602 38.428 63.9654 38.428C65.8714 38.428 66.9196 37.0398 66.9196 34.5011ZM78.5139 34.1986C78.5139 37.7902 76.7818 39.6387 73.2205 39.6387C72.2992 39.6419 71.3795 39.5762 70.4676 39.4402V29.5486C71.4289 29.4166 72.3983 29.3526 73.3686 29.3571C76.8202 29.3571 78.5139 30.7297 78.5139 34.1986ZM76.9448 34.2939C76.9448 31.5269 75.9749 30.6562 73.345 30.6562C72.8975 30.6547 72.4504 30.6842 72.007 30.7445V38.2654C72.4746 38.3416 72.9481 38.3761 73.4218 38.3686C75.9538 38.3686 76.9534 36.9812 76.9534 34.2939H76.9448ZM90.7452 36.6787C90.7452 39.2268 88.4819 39.6364 86.3965 39.6364C85.5114 39.6388 84.6276 39.5682 83.7541 39.4254V29.5345C84.617 29.4167 85.4871 29.3593 86.3581 29.3626C89.1486 29.3626 90.3621 30.324 90.3621 32.0147C90.3621 33.1512 89.8881 33.9617 88.6958 34.3385C89.9978 34.4948 90.7452 35.2405 90.7452 36.6787ZM85.2637 30.6624V33.8312H86.0784C87.5865 33.8312 88.8438 33.6592 88.8438 32.1038C88.8438 30.9665 87.8466 30.5905 86.5148 30.5905C86.0972 30.5905 85.6789 30.6148 85.2637 30.6624ZM89.223 36.6787C89.223 35.3288 88.2234 35.0685 86.6253 35.0685H85.2637V38.3201C85.722 38.3881 86.185 38.4225 86.6488 38.4241C88.2532 38.4217 89.223 38.0458 89.223 36.6787ZM92.1326 34.5011C92.1326 31.1353 93.9735 29.2977 96.7264 29.2977C99.4793 29.2977 101.312 31.1353 101.312 34.5011C101.312 37.866 99.4746 39.7067 96.7225 39.7067C93.9696 39.7067 92.1326 37.8683 92.1326 34.5011ZM99.6783 34.5011C99.6783 31.9654 98.6199 30.5733 96.7264 30.5733C94.8337 30.5733 93.7628 31.9615 93.7628 34.5011C93.7628 37.0398 94.8204 38.428 96.7264 38.428C98.6324 38.428 99.6869 37.0398 99.6869 34.5011H99.6783ZM111.103 39.3769C110.999 39.5309 110.483 39.5879 110.127 39.5879C109.924 39.5953 109.722 39.5599 109.534 39.484C109.335 38.7617 109.128 38.0606 108.92 37.372H104.459C104.248 38.0583 104.052 38.7657 103.854 39.484C103.666 39.5599 103.464 39.5953 103.261 39.5879C102.905 39.5879 102.388 39.5285 102.276 39.3769C103.171 36.1065 104.453 32.3265 105.746 29.5299C106.372 29.3704 107.027 29.3704 107.652 29.5299C108.935 32.3312 110.207 36.112 111.103 39.3769ZM108.537 36.119C107.966 34.3248 107.351 32.5447 106.693 30.7805C106.037 32.5426 105.423 34.3201 104.851 36.1112L108.537 36.119ZM130.083 34.1986C130.083 37.7902 128.351 39.6387 124.789 39.6387C123.868 39.6419 122.948 39.5762 122.037 39.4402V29.5486C122.998 29.4166 123.967 29.3526 124.937 29.3571C128.389 29.3571 130.083 30.7297 130.083 34.1986ZM128.514 34.2939C128.514 31.5269 127.544 30.6562 124.914 30.6562C124.466 30.6547 124.019 30.6842 123.576 30.7445V38.2654C124.044 38.3416 124.517 38.3761 124.991 38.3686C127.514 38.3686 128.514 36.9812 128.514 34.2939Z" fill="#272727"></path>
  </g>
</svg>
