<?xml version="1.0" encoding="UTF-8"?>
<svg xmlns="http://www.w3.org/2000/svg" width="104" height="31" fill="none">
  <path d="M13.91 11.9c0 4.085-3.945 4.665-7.591 4.665a29.622 29.622 0 0 1-4.596-.337V3.132c-.52.078-1.036.169-1.551.27C-.13 2.595-.053 1.08.545.593A33.408 33.408 0 0 1 6.064.144c3.966 0 7.058 1.042 7.058 4.31 0 1.836-.782 3.066-2.748 3.67 2.246.273 3.537 1.445 3.537 3.778ZM3.69 2.927c.804.023 1.42.71 1.42 2.31v1.822h1.339c2.416 0 3.328-.617 3.328-2.202 0-1.481-1.291-2.02-3.91-2.02-.722.007-1.45.031-2.178.09Zm6.81 8.772c0-1.834-1.339-2.072-3.536-2.072-.473 0-1.23.013-1.852.024v4.229c.627.095 1.261.142 1.896.14 2.176 0 3.491-.508 3.491-2.32Zm5.187-3.29c0-6.17 3.719-8.408 7.568-8.408 3.848 0 7.556 2.239 7.556 8.417 0 6.177-3.718 8.406-7.556 8.406-3.839 0-7.568-2.244-7.568-8.414v-.002Zm11.5 0c0-3.15-.924-5.577-3.933-5.577-3.008 0-3.943 2.428-3.943 5.577s.925 5.576 3.944 5.576c3.018 0 3.932-2.427 3.932-5.576Zm18.796 7.648c-.2.308-1.078.497-1.852.497a5.73 5.73 0 0 1-1.764-.212 52.726 52.726 0 0 1-2.724-5.555c-.817.108-1.64.17-2.463.189v5.364a5.761 5.761 0 0 1-1.694.212 5.418 5.418 0 0 1-1.694-.212V3.151c-.505.07-1.03.168-1.552.26-.307-.817-.224-2.332.367-2.818a27.338 27.338 0 0 1 5.034-.45c4.489 0 7.709 1.28 7.709 5.068 0 2.367-1.01 3.848-2.724 4.714 1.096 2.117 2.138 3.989 3.357 6.13Zm-8.81-11.023V8.42c3.458-.117 4.926-.672 4.926-3.008 0-2.083-1.646-2.568-4.465-2.568-.557 0-1.136.024-1.74.071.71.094 1.279.745 1.279 2.119Zm25.13 2.888c0 5.892-3.302 8.657-8.953 8.657-1.5.005-3-.1-4.486-.317V3.301c-.497.07-1.018.141-1.551.226-.301-.933-.227-2.448.372-2.946 1.77-.281 3.56-.427 5.353-.438 5.573 0 9.266 2.107 9.266 7.778Zm-3.338.273c0-4.061-2.06-5.186-5.815-5.186-.545 0-1.113.024-1.729.06.485.272.829.9.829 1.965v8.821a9.742 9.742 0 0 0 1.587.119c3.552 0 5.128-2.002 5.128-5.78Zm18.52-.07c1.966-.605 2.748-1.835 2.748-3.672 0-3.267-3.092-4.309-7.058-4.309a33.408 33.408 0 0 0-5.519.45c-.592.486-.673 2-.367 2.817a29.662 29.662 0 0 1 1.551-.27v13.095c1.52.231 3.058.343 4.596.336 3.647 0 7.591-.58 7.591-4.664-.006-2.34-1.299-3.511-3.542-3.783Zm-6.679-5.198a26.922 26.922 0 0 1 2.179-.083c2.618 0 3.91.532 3.91 2.02 0 1.585-.913 2.202-3.33 2.202h-1.338v-1.83c-.008-1.598-.625-2.286-1.43-2.31h.01Zm3.312 11.093a12.376 12.376 0 0 1-1.896-.141V9.65c.618-.013 1.235-.02 1.852-.024 2.189 0 3.536.238 3.536 2.072 0 1.835-1.317 2.321-3.492 2.321ZM83.628.475V16.34a5.91 5.91 0 0 0 1.77.212c.617 0 1.303-.046 1.778-.212V.475C86.7.307 86.014.261 85.398.261a5.877 5.877 0 0 0-1.773.214h.004ZM97.94.344c-.473-.212-1.196-.307-1.917-.307-.723 0-1.458.094-1.967.307.337.557.64 1.138.936 1.728-.71.308-1.458 1.209-2.239 3.367a116.675 116.675 0 0 0-3.367 10.632c.225.337 1.315.461 2.072.461.424.015.847-.053 1.245-.2.237-1.01.484-1.978.734-2.949h6.37c.297.972.593 1.954.878 2.95.397.146.82.214 1.243.2.759 0 1.852-.119 2.073-.462-1.638-5.391-3.817-11.607-6.067-15.727h.006ZM94.173 10.78a85.022 85.022 0 0 1 2.239-6.536 68.827 68.827 0 0 1 2.546 6.536h-4.785ZM1.733 30.81V22.9a1.5 1.5 0 0 1 .605-.1c.208-.009.417.025.612.1v7.91a1.554 1.554 0 0 1-.613.1 1.522 1.522 0 0 1-.604-.1Zm7.142-3.387c.924-.383 1.483-1.118 1.483-2.323 0-1.752-1.27-2.346-3.312-2.346a13.896 13.896 0 0 0-2.042.141v7.91c.194.074.4.107.607.1.206.007.412-.027.605-.1v-3.052c.182.011.366.017.536.017.337.002.675-.019 1.01-.063A32.11 32.11 0 0 0 9.3 30.834c.22.06.447.086.673.076.312 0 .623-.07.706-.181a54.664 54.664 0 0 1-1.803-3.306Zm-2.101-.606c-.169 0-.36 0-.56-.017v-2.976c.318-.044.64-.063.96-.059 1.482 0 2 .458 2 1.434.002 1.118-.693 1.618-2.4 1.618Zm86.448.606c.922-.383 1.481-1.118 1.481-2.323 0-1.752-1.27-2.346-3.311-2.346a13.736 13.736 0 0 0-2.04.141v7.91c.392.133.817.133 1.21 0v-3.052c.183.011.365.017.535.017.341.003.682-.018 1.02-.063a31.72 31.72 0 0 0 1.531 3.127c.22.06.446.086.673.076.313 0 .625-.07.707-.181a52.014 52.014 0 0 1-1.806-3.306Zm-2.1-.606c-.168 0-.358 0-.559-.017v-2.976a6.42 6.42 0 0 1 .96-.059c1.483 0 2 .458 2 1.434-.001 1.118-.695 1.618-2.4 1.618ZM12.295 30.81V22.9a1.884 1.884 0 0 1 1.217 0v7.91a1.915 1.915 0 0 1-1.217 0Zm2.92-.46a1.364 1.364 0 0 1 .37-1.01c.734.435 1.375.647 2.076.647.976 0 1.515-.394 1.515-1.193 0-.647-.434-1.01-1.529-1.441l-.301-.119c-1.265-.504-2.059-1.075-2.059-2.34 0-1.347.913-2.189 2.712-2.189a4.798 4.798 0 0 1 2.113.47 1.47 1.47 0 0 1-.283 1.09 3.58 3.58 0 0 0-1.882-.531c-.988 0-1.441.377-1.441 1.035 0 .724.559 1.053 1.44 1.405l.383.153c1.288.524 2.064 1.071 2.064 2.377 0 1.448-.958 2.294-2.74 2.294a4.661 4.661 0 0 1-2.438-.648Zm12.773-7.456v7.91a1.915 1.915 0 0 1-1.217 0v-3.56H23.29v3.566a1.549 1.549 0 0 1-.61.1 1.534 1.534 0 0 1-.607-.1V22.9a1.884 1.884 0 0 1 1.217 0v3.327h3.477v-3.333a1.884 1.884 0 0 1 1.217 0h.002Zm5.948.986v2.572h2.896c.056.162.081.333.076.505.006.176-.02.353-.076.52h-2.896v3.326c-.2.068-.41.098-.623.09a1.759 1.759 0 0 1-.622-.09v-7.951h4.41c.063.165.09.342.083.52.006.172-.021.344-.083.504l-3.165.004Zm4.285 2.971c0-2.681 1.465-4.146 3.653-4.146 2.19 0 3.647 1.465 3.647 4.146S44.056 31 41.873 31c-2.182 0-3.653-1.465-3.653-4.148Zm6 0c0-2.02-.841-3.13-2.347-3.13-1.505 0-2.357 1.107-2.357 3.13 0 2.023.843 3.13 2.357 3.13 1.515 0 2.348-1.107 2.348-3.13Zm2.556 0c0-2.681 1.465-4.146 3.652-4.146 2.187 0 3.655 1.466 3.655 4.146 0 2.68-1.465 4.148-3.649 4.148-2.183 0-3.658-1.465-3.658-4.148Zm6 0c0-2.02-.842-3.13-2.348-3.13-1.507 0-2.357 1.107-2.357 3.13 0 2.023.842 3.13 2.357 3.13 1.515 0 2.349-1.107 2.349-3.13Zm9.22-.24c0 2.86-1.377 4.334-4.21 4.334-.732.002-1.463-.05-2.188-.158v-7.882a16.36 16.36 0 0 1 2.307-.152c2.744 0 4.091 1.093 4.091 3.857Zm-1.248.075c0-2.204-.77-2.898-2.862-2.898a7.695 7.695 0 0 0-1.064.07v5.993c.372.06.748.088 1.125.082 2.013 0 2.808-1.106 2.808-3.247h-.007Zm10.974 1.9c0 2.03-1.8 2.357-3.458 2.357a12.772 12.772 0 0 1-2.101-.168v-7.88a14.78 14.78 0 0 1 2.07-.138c2.22 0 3.184.766 3.184 2.113 0 .906-.377 1.552-1.325 1.852 1.036.124 1.63.718 1.63 1.864Zm-4.359-4.793v2.525h.648c1.2 0 2.2-.137 2.2-1.377 0-.906-.794-1.206-1.853-1.206-.332 0-.665.02-.995.058Zm3.149 4.793c0-1.075-.795-1.283-2.066-1.283h-1.083v2.591a7.67 7.67 0 0 0 1.102.083c1.275-.002 2.047-.301 2.047-1.39Zm2.313-1.735c0-2.681 1.464-4.146 3.653-4.146 2.19 0 3.647 1.465 3.647 4.146S78.663 31 76.475 31c-2.189 0-3.65-1.465-3.65-4.148Zm6 0c0-2.02-.841-3.13-2.347-3.13-1.505 0-2.356 1.107-2.356 3.13 0 2.023.84 3.13 2.356 3.13s2.354-1.107 2.354-3.13h-.007Zm9.085 3.885c-.083.123-.493.168-.776.168a1.146 1.146 0 0 1-.472-.082 73.086 73.086 0 0 0-.488-1.683h-3.547c-.168.547-.324 1.11-.481 1.683-.15.06-.31.088-.472.082-.283 0-.694-.047-.783-.168.712-2.605 1.731-5.617 2.76-7.846a3.06 3.06 0 0 1 1.515 0c1.02 2.233 2.032 5.245 2.744 7.846Zm-2.04-2.595a91.905 91.905 0 0 0-1.467-4.254 94.949 94.949 0 0 0-1.464 4.247l2.93.006Zm17.132-1.53c0 2.86-1.377 4.334-4.21 4.334-.732.002-1.463-.05-2.188-.158v-7.882a16.358 16.358 0 0 1 2.307-.152c2.744 0 4.091 1.093 4.091 3.857Zm-1.248.075c0-2.204-.771-2.898-2.862-2.898a7.695 7.695 0 0 0-1.064.07v5.993c.372.06.748.088 1.125.082 2.006 0 2.801-1.106 2.801-3.247Z" fill="#272727"></path>
</svg>
