<svg xmlns="http://www.w3.org/2000/svg" width="26" height="26" class="flex-shrink-0" fill="none">
  <circle cx="13" cy="13" r="13" fill="#FFF"/>
  <path d="M11.202 15.173c.1-.138.139-.217.208-.287 2.128-2.127 4.255-4.265 6.393-6.392.514-.515 1.157-.574 1.662-.168a1.17 1.17 0 0 1 .208 1.613c-.08.099-.168.197-.257.287-2.415 2.414-4.82 4.829-7.234 7.233-.653.653-1.296.653-1.96-.01l-3.68-3.68c-.565-.565-.555-1.337.01-1.812a1.15 1.15 0 0 1 1.474-.03c.089.07.178.159.267.238l2.711 2.712c.06.069.1.148.198.296Z" fill="#F26839"/>
</svg>
