<?xml version="1.0" encoding="UTF-8"?>
<svg xmlns="http://www.w3.org/2000/svg" width="390" height="217" viewBox="0 0 390 217" fill="none">
  <mask id="mask0_0_3445" style="mask-type:alpha" maskUnits="userSpaceOnUse" x="0" y="0" width="390" height="217">
    <rect y="0.841797" width="390" height="215.673" fill="#F26839"></rect>
  </mask>
  <g mask="url(#mask0_0_3445)">
    <mask id="mask1_0_3445" style="mask-type:luminance" maskUnits="userSpaceOnUse" x="44" y="-83" width="262" height="265">
      <path d="M306 -82.807H44V181.241H306V-82.807Z" fill="white"></path>
    </mask>
    <g mask="url(#mask1_0_3445)">
      <path d="M102.037 158.769C103.999 160.127 105.96 161.424 108.044 162.597L306.06 49.0628C306.06 46.7168 305.938 44.3091 305.815 41.9014L102.037 158.769Z" fill="#F7885C"></path>
    </g>
    <mask id="mask2_0_3445" style="mask-type:luminance" maskUnits="userSpaceOnUse" x="44" y="-83" width="262" height="265">
      <path d="M306 -82.807H44V181.241H306V-82.807Z" fill="white"></path>
    </mask>
    <g mask="url(#mask2_0_3445)">
      <path d="M125.513 171.424C128.025 172.474 130.661 173.4 133.235 174.264L303.06 76.9055C303.611 74.1891 304.163 71.4726 304.592 68.7562L125.513 171.424Z" fill="#F7885C"></path>
    </g>
    <mask id="mask3_0_3445" style="mask-type:luminance" maskUnits="userSpaceOnUse" x="44" y="-83" width="262" height="265">
      <path d="M306 -82.807H44V181.241H306V-82.807Z" fill="white"></path>
    </mask>
    <g mask="url(#mask3_0_3445)">
      <path d="M113.069 165.498C115.276 166.733 117.543 167.844 119.811 168.894L305.264 62.5211C305.509 59.9899 305.693 57.4587 305.815 54.9275L113.069 165.498Z" fill="#F7885C"></path>
    </g>
    <mask id="mask4_0_3445" style="mask-type:luminance" maskUnits="userSpaceOnUse" x="44" y="-83" width="262" height="265">
      <path d="M306 -82.807H44V181.241H306V-82.807Z" fill="white"></path>
    </mask>
    <g mask="url(#mask4_0_3445)">
      <path d="M75.3769 135.001C76.7865 136.668 78.2574 138.211 79.7282 139.816L300.911 13.0088C300.299 10.9098 299.747 8.87249 299.012 6.77344L75.3769 135.001Z" fill="#F7885C"></path>
    </g>
    <mask id="mask5_0_3445" style="mask-type:luminance" maskUnits="userSpaceOnUse" x="44" y="-83" width="262" height="265">
      <path d="M306 -82.807H44V181.241H306V-82.807Z" fill="white"></path>
    </mask>
    <g mask="url(#mask5_0_3445)">
      <path d="M83.283 143.458C84.8764 145.001 86.4699 146.483 88.1246 147.964L303.669 24.3674C303.24 22.2066 302.811 20.0458 302.26 17.885L83.283 143.458Z" fill="#F7885C"></path>
    </g>
    <mask id="mask6_0_3445" style="mask-type:luminance" maskUnits="userSpaceOnUse" x="44" y="-83" width="262" height="265">
      <path d="M306 -82.807H44V181.241H306V-82.807Z" fill="white"></path>
    </mask>
    <g mask="url(#mask6_0_3445)">
      <path d="M92.1101 151.422C93.8874 152.842 95.6647 154.262 97.442 155.62L305.326 36.4064C305.142 34.1221 304.836 31.8996 304.468 29.6154L92.1101 151.422Z" fill="#F7885C"></path>
    </g>
    <mask id="mask7_0_3445" style="mask-type:luminance" maskUnits="userSpaceOnUse" x="44" y="-83" width="262" height="265">
      <path d="M306 -82.807H44V181.241H306V-82.807Z" fill="white"></path>
    </mask>
    <g mask="url(#mask7_0_3445)">
      <path d="M68.3322 125.986C69.5579 127.776 70.9675 129.32 72.2545 131.049L297.237 2.01873C296.502 0.043159 295.828 -1.99415 294.97 -3.96973L68.3322 125.986Z" fill="#F7885C"></path>
    </g>
    <mask id="mask8_0_3445" style="mask-type:luminance" maskUnits="userSpaceOnUse" x="44" y="-83" width="262" height="265">
      <path d="M306 -82.807H44V181.241H306V-82.807Z" fill="white"></path>
    </mask>
    <g mask="url(#mask8_0_3445)">
      <path d="M156.275 179.821C159.83 180.377 163.385 180.747 166.939 180.994L291.535 109.503C293.19 106.293 294.599 102.959 296.009 99.6252L156.275 179.821Z" fill="#F7885C"></path>
    </g>
    <mask id="mask9_0_3445" style="mask-type:luminance" maskUnits="userSpaceOnUse" x="44" y="-83" width="262" height="265">
      <path d="M306 -82.807H44V181.241H306V-82.807Z" fill="white"></path>
    </mask>
    <g mask="url(#mask9_0_3445)">
      <path d="M139.606 176.364C142.609 177.166 145.612 177.845 148.615 178.463L298.767 92.3401C299.809 89.3767 300.79 86.4133 301.586 83.45L139.606 176.364Z" fill="#F7885C"></path>
    </g>
    <mask id="mask10_0_3445" style="mask-type:luminance" maskUnits="userSpaceOnUse" x="44" y="-83" width="262" height="265">
      <path d="M306 -82.807H44V181.241H306V-82.807Z" fill="white"></path>
    </mask>
    <g mask="url(#mask10_0_3445)">
      <path d="M268.86 141.298L205.673 177.537C217.379 174.697 228.901 170.252 239.871 164.017C250.841 157.72 260.463 150.002 268.86 141.298Z" fill="#F7885C"></path>
    </g>
    <mask id="mask11_0_3445" style="mask-type:luminance" maskUnits="userSpaceOnUse" x="44" y="-83" width="262" height="265">
      <path d="M306 -82.807H44V181.241H306V-82.807Z" fill="white"></path>
    </mask>
    <g mask="url(#mask11_0_3445)">
      <path d="M176.501 181.241C181.22 181.179 186 180.932 190.781 180.315L278.85 129.814C281.791 125.986 284.427 121.974 286.878 117.899L176.501 181.241Z" fill="#F7885C"></path>
    </g>
    <mask id="mask12_0_3445" style="mask-type:luminance" maskUnits="userSpaceOnUse" x="44" y="-83" width="262" height="265">
      <path d="M306 -82.807H44V181.241H306V-82.807Z" fill="white"></path>
    </mask>
    <g mask="url(#mask12_0_3445)">
      <path d="M44 48.6924C44 51.1001 44.0613 53.5078 44.1839 55.8538L247.41 -60.6434C245.449 -61.9399 243.426 -63.2363 241.343 -64.4711L44 48.6924Z" fill="#F7885C"></path>
    </g>
    <mask id="mask13_0_3445" style="mask-type:luminance" maskUnits="userSpaceOnUse" x="44" y="-83" width="262" height="265">
      <path d="M306 -82.807H44V181.241H306V-82.807Z" fill="white"></path>
    </mask>
    <g mask="url(#mask13_0_3445)">
      <path d="M62.2641 116.417C63.306 118.27 64.4704 119.998 65.6349 121.727L292.702 -8.47598C291.782 -10.3898 290.863 -12.3037 289.882 -14.1558L62.2641 116.417Z" fill="#F7885C"></path>
    </g>
    <mask id="mask14_0_3445" style="mask-type:luminance" maskUnits="userSpaceOnUse" x="44" y="-83" width="262" height="265">
      <path d="M306 -82.807H44V181.241H306V-82.807Z" fill="white"></path>
    </mask>
    <g mask="url(#mask14_0_3445)">
      <path d="M51.5371 5.29149C50.4952 8.25485 49.4534 11.2182 48.6566 14.2433L209.595 -78.1148C206.592 -78.9174 203.528 -79.5348 200.463 -80.1522L51.5371 5.29149Z" fill="#F7885C"></path>
    </g>
    <mask id="mask15_0_3445" style="mask-type:luminance" maskUnits="userSpaceOnUse" x="44" y="-83" width="262" height="265">
      <path d="M306 -82.807H44V181.241H306V-82.807Z" fill="white"></path>
    </mask>
    <g mask="url(#mask15_0_3445)">
      <path d="M44.7962 35.2333C44.4898 37.7645 44.306 40.2957 44.1834 42.8269L236.317 -67.3115C234.049 -68.4844 231.782 -69.5957 229.453 -70.707L44.7962 35.2333Z" fill="#F7885C"></path>
    </g>
    <mask id="mask16_0_3445" style="mask-type:luminance" maskUnits="userSpaceOnUse" x="44" y="-83" width="262" height="265">
      <path d="M306 -82.807H44V181.241H306V-82.807Z" fill="white"></path>
    </mask>
    <g mask="url(#mask16_0_3445)">
      <path d="M47.1243 20.8488C46.5115 23.5652 45.9599 26.2816 45.5309 29.0597L223.813 -73.1763C221.239 -74.2258 218.665 -75.0901 216.03 -76.0162L47.1243 20.8488Z" fill="#F7885C"></path>
    </g>
    <mask id="mask17_0_3445" style="mask-type:luminance" maskUnits="userSpaceOnUse" x="44" y="-83" width="262" height="265">
      <path d="M306 -82.807H44V181.241H306V-82.807Z" fill="white"></path>
    </mask>
    <g mask="url(#mask17_0_3445)">
      <path d="M52.5201 95.9209C53.2555 97.8965 53.9297 99.9338 54.7877 101.909L281.242 -27.9847C280.016 -29.7133 278.606 -31.3185 277.258 -32.9854L52.5201 95.9209Z" fill="#F7885C"></path>
    </g>
    <mask id="mask18_0_3445" style="mask-type:luminance" maskUnits="userSpaceOnUse" x="44" y="-83" width="262" height="265">
      <path d="M306 -82.807H44V181.241H306V-82.807Z" fill="white"></path>
    </mask>
    <g mask="url(#mask18_0_3445)">
      <path d="M56.9934 106.416C57.9127 108.33 58.832 110.244 59.8126 112.096L287.37 -18.4156C286.266 -20.206 285.163 -21.9964 283.999 -23.7867L56.9934 106.416Z" fill="#F7885C"></path>
    </g>
    <mask id="mask19_0_3445" style="mask-type:luminance" maskUnits="userSpaceOnUse" x="44" y="-83" width="262" height="265">
      <path d="M306 -82.807H44V181.241H306V-82.807Z" fill="white"></path>
    </mask>
    <g mask="url(#mask19_0_3445)">
      <path d="M44.5544 61.41C44.7382 63.6943 45.0446 65.9786 45.3511 68.2011L257.341 -53.3585C255.564 -54.7785 253.787 -56.1984 251.948 -57.5566L44.5544 61.41Z" fill="#F7885C"></path>
    </g>
    <mask id="mask20_0_3445" style="mask-type:luminance" maskUnits="userSpaceOnUse" x="44" y="-83" width="262" height="265">
      <path d="M306 -82.807H44V181.241H306V-82.807Z" fill="white"></path>
    </mask>
    <g mask="url(#mask20_0_3445)">
      <path d="M46.2686 73.5102C46.6363 75.671 47.0653 77.8318 47.6169 79.9926L266.226 -45.3947C264.633 -46.9381 263.039 -48.4198 261.323 -49.9015L46.2686 73.5102Z" fill="#F7885C"></path>
    </g>
    <mask id="mask21_0_3445" style="mask-type:luminance" maskUnits="userSpaceOnUse" x="44" y="-83" width="262" height="265">
      <path d="M306 -82.807H44V181.241H306V-82.807Z" fill="white"></path>
    </mask>
    <g mask="url(#mask21_0_3445)">
      <path d="M48.904 84.9935C49.5168 87.0926 50.0071 89.1916 50.7426 91.2289L274.255 -36.9365C272.845 -38.6034 271.313 -40.1468 269.842 -41.6902L48.904 84.9935Z" fill="#F7885C"></path>
    </g>
  </g>
</svg>
