<svg width="254.704" height="254.114" viewBox="0 0 67.39 67.234" xml:space="preserve" xmlns="http://www.w3.org/2000/svg"><g mask="url(#mask0_0_3445)" transform="matrix(.25722 0 0 .25722 -11.317 20.616)" style="fill:none"><mask id="a" maskUnits="userSpaceOnUse" x="44" y="-83" width="262" height="265"><path d="M306-82.807H44v264.048h262z" fill="#fff"/></mask><g mask="url(#a)"><path d="M102.037 158.769c1.962 1.358 3.923 2.655 6.007 3.828L306.06 49.063c0-2.346-.122-4.754-.245-7.162z" fill="#f7885c"/></g><mask id="b" maskUnits="userSpaceOnUse" x="44" y="-83" width="262" height="265"><path d="M306-82.807H44v264.048h262z" fill="#fff"/></mask><g mask="url(#b)"><path d="M125.513 171.424c2.512 1.05 5.148 1.976 7.722 2.84L303.06 76.905c.551-2.716 1.103-5.432 1.532-8.149z" fill="#f7885c"/></g><mask id="c" maskUnits="userSpaceOnUse" x="44" y="-83" width="262" height="265"><path d="M306-82.807H44v264.048h262z" fill="#fff"/></mask><g mask="url(#c)"><path d="M113.069 165.498c2.207 1.235 4.474 2.346 6.742 3.396L305.264 62.521c.245-2.531.429-5.062.551-7.594z" fill="#f7885c"/></g><mask id="d" maskUnits="userSpaceOnUse" x="44" y="-83" width="262" height="265"><path d="M306-82.807H44v264.048h262z" fill="#fff"/></mask><g mask="url(#d)"><path d="M75.377 135.001c1.41 1.667 2.88 3.21 4.351 4.815L300.911 13.009c-.612-2.1-1.164-4.137-1.899-6.236z" fill="#f7885c"/></g><mask id="e" maskUnits="userSpaceOnUse" x="44" y="-83" width="262" height="265"><path d="M306-82.807H44v264.048h262z" fill="#fff"/></mask><g mask="url(#e)"><path d="M83.283 143.458a167.338 167.338 0 0 0 4.842 4.506L303.669 24.367c-.429-2.16-.858-4.321-1.409-6.482z" fill="#f7885c"/></g><mask id="f" maskUnits="userSpaceOnUse" x="44" y="-83" width="262" height="265"><path d="M306-82.807H44v264.048h262z" fill="#fff"/></mask><g mask="url(#f)"><path d="M92.11 151.422c1.777 1.42 3.555 2.84 5.332 4.198L305.326 36.406c-.184-2.284-.49-4.506-.858-6.79z" fill="#f7885c"/></g><mask id="g" maskUnits="userSpaceOnUse" x="44" y="-83" width="262" height="265"><path d="M306-82.807H44v264.048h262z" fill="#fff"/></mask><g mask="url(#g)"><path d="M68.332 125.986c1.226 1.79 2.636 3.334 3.923 5.063L297.236 2.019c-.735-1.976-1.409-4.013-2.267-5.989z" fill="#f7885c"/></g><mask id="h" maskUnits="userSpaceOnUse" x="44" y="-83" width="262" height="265"><path d="M306-82.807H44v264.048h262z" fill="#fff"/></mask><g mask="url(#h)"><path d="M156.275 179.821c3.555.556 7.11.926 10.664 1.173l124.596-71.491c1.655-3.21 3.064-6.544 4.474-9.878z" fill="#f7885c"/></g><mask id="i" maskUnits="userSpaceOnUse" x="44" y="-83" width="262" height="265"><path d="M306-82.807H44v264.048h262z" fill="#fff"/></mask><g mask="url(#i)"><path d="M139.606 176.364c3.003.802 6.006 1.481 9.009 2.099L298.767 92.34c1.042-2.963 2.023-5.927 2.819-8.89z" fill="#f7885c"/></g><mask id="j" maskUnits="userSpaceOnUse" x="44" y="-83" width="262" height="265"><path d="M306-82.807H44v264.048h262z" fill="#fff"/></mask><g mask="url(#j)"><path d="m268.86 141.298-63.187 36.239c11.706-2.84 23.228-7.285 34.198-13.52 10.97-6.297 20.592-14.015 28.989-22.719z" fill="#f7885c"/></g><mask id="k" maskUnits="userSpaceOnUse" x="44" y="-83" width="262" height="265"><path d="M306-82.807H44v264.048h262z" fill="#fff"/></mask><g mask="url(#k)"><path d="M176.501 181.241c4.719-.062 9.499-.309 14.28-.926l88.069-50.501c2.941-3.828 5.577-7.84 8.028-11.915z" fill="#f7885c"/></g><mask id="l" maskUnits="userSpaceOnUse" x="44" y="-83" width="262" height="265"><path d="M306-82.807H44v264.048h262z" fill="#fff"/></mask><g mask="url(#l)"><path d="M44 48.692c0 2.408.061 4.816.184 7.162L247.41-60.643a146.273 146.273 0 0 0-6.067-3.828z" fill="#f7885c"/></g><mask id="m" maskUnits="userSpaceOnUse" x="44" y="-83" width="262" height="265"><path d="M306-82.807H44v264.048h262z" fill="#fff"/></mask><g mask="url(#m)"><path d="M62.264 116.417c1.042 1.853 2.206 3.581 3.37 5.31L292.703-8.476c-.92-1.914-1.839-3.828-2.82-5.68z" fill="#f7885c"/></g><mask id="n" maskUnits="userSpaceOnUse" x="44" y="-83" width="262" height="265"><path d="M306-82.807H44v264.048h262z" fill="#fff"/></mask><g mask="url(#n)"><path d="M51.537 5.291c-1.042 2.964-2.084 5.927-2.88 8.952l160.938-92.358c-3.003-.802-6.067-1.42-9.132-2.037z" fill="#f7885c"/></g><mask id="o" maskUnits="userSpaceOnUse" x="44" y="-83" width="262" height="265"><path d="M306-82.807H44v264.048h262z" fill="#fff"/></mask><g mask="url(#o)"><path d="M44.796 35.233c-.306 2.532-.49 5.063-.613 7.594L236.317-67.311a237.648 237.648 0 0 0-6.864-3.396z" fill="#f7885c"/></g><mask id="p" maskUnits="userSpaceOnUse" x="44" y="-83" width="262" height="265"><path d="M306-82.807H44v264.048h262z" fill="#fff"/></mask><g mask="url(#p)"><path d="M47.124 20.849c-.613 2.716-1.164 5.433-1.593 8.21L223.813-73.175c-2.574-1.05-5.148-1.914-7.783-2.84z" fill="#f7885c"/></g><mask id="q" maskUnits="userSpaceOnUse" x="44" y="-83" width="262" height="265"><path d="M306-82.807H44v264.048h262z" fill="#fff"/></mask><g mask="url(#q)"><path d="M52.52 95.92c.735 1.977 1.41 4.014 2.268 5.989L281.242-27.985c-1.226-1.728-2.636-3.333-3.984-5z" fill="#f7885c"/></g><mask id="r" maskUnits="userSpaceOnUse" x="44" y="-83" width="262" height="265"><path d="M306-82.807H44v264.048h262z" fill="#fff"/></mask><g mask="url(#r)"><path d="M56.993 106.416c.92 1.914 1.839 3.828 2.82 5.68L287.37-18.416c-1.104-1.79-2.207-3.58-3.371-5.37z" fill="#f7885c"/></g><mask id="s" maskUnits="userSpaceOnUse" x="44" y="-83" width="262" height="265"><path d="M306-82.807H44v264.048h262z" fill="#fff"/></mask><g mask="url(#s)"><path d="M44.554 61.41c.184 2.284.49 4.569.797 6.791l211.99-121.56c-1.777-1.42-3.554-2.84-5.393-4.198z" fill="#f7885c"/></g><mask id="t" maskUnits="userSpaceOnUse" x="44" y="-83" width="262" height="265"><path d="M306-82.807H44v264.048h262z" fill="#fff"/></mask><g mask="url(#t)"><path d="M46.269 73.51c.367 2.161.796 4.322 1.348 6.483L266.226-45.395a114.922 114.922 0 0 0-4.903-4.506z" fill="#f7885c"/></g><mask id="u" maskUnits="userSpaceOnUse" x="44" y="-83" width="262" height="265"><path d="M306-82.807H44v264.048h262z" fill="#fff"/></mask><g mask="url(#u)"><path d="M48.904 84.993c.613 2.1 1.103 4.199 1.839 6.236L274.255-36.937c-1.41-1.666-2.942-3.21-4.413-4.753z" fill="#f7885c"/></g></g></svg>