<?xml version="1.0" encoding="UTF-8" standalone="no"?>
<svg xmlns:inkscape="http://www.inkscape.org/namespaces/inkscape" xmlns:sodipodi="http://sodipodi.sourceforge.net/DTD/sodipodi-0.dtd" xmlns="http://www.w3.org/2000/svg" xmlns:svg="http://www.w3.org/2000/svg" width="67.390381mm" height="67.234306mm" viewBox="0 0 67.390381 67.234306" version="1.1" id="svg5" xml:space="preserve">
  <defs id="defs2"></defs>
  <g inkscape:label="Layer 1" inkscape:groupmode="layer" id="layer1" transform="translate(-3101.9876,80.77754)">
    <g style="fill:none" id="g1223" transform="matrix(0.25721521,0,0,0.25721521,3090.6702,-60.161176)">
      <g mask="url(#mask0_0_3445)" id="g1130">
        <mask id="mask1_0_3445" maskUnits="userSpaceOnUse" x="44" y="-83" width="262" height="265">
          <path d="M 306,-82.807 H 44 v 264.048 h 262 z" fill="#ffffff" id="path983"></path>
        </mask>
        <g mask="url(#mask1_0_3445)" id="g988">
          <path d="m 102.037,158.769 c 1.962,1.358 3.923,2.655 6.007,3.828 L 306.06,49.0628 c 0,-2.346 -0.122,-4.7537 -0.245,-7.1614 z" fill="#f7885c" id="path986"></path>
        </g>
        <mask id="mask2_0_3445" maskUnits="userSpaceOnUse" x="44" y="-83" width="262" height="265">
          <path d="M 306,-82.807 H 44 v 264.048 h 262 z" fill="#ffffff" id="path990"></path>
        </mask>
        <g mask="url(#mask2_0_3445)" id="g995">
          <path d="m 125.513,171.424 c 2.512,1.05 5.148,1.976 7.722,2.84 L 303.06,76.9055 c 0.551,-2.7164 1.103,-5.4329 1.532,-8.1493 z" fill="#f7885c" id="path993"></path>
        </g>
        <mask id="mask3_0_3445" maskUnits="userSpaceOnUse" x="44" y="-83" width="262" height="265">
          <path d="M 306,-82.807 H 44 v 264.048 h 262 z" fill="#ffffff" id="path997"></path>
        </mask>
        <g mask="url(#mask3_0_3445)" id="g1002">
          <path d="m 113.069,165.498 c 2.207,1.235 4.474,2.346 6.742,3.396 L 305.264,62.5211 c 0.245,-2.5312 0.429,-5.0624 0.551,-7.5936 z" fill="#f7885c" id="path1000"></path>
        </g>
        <mask id="mask4_0_3445" maskUnits="userSpaceOnUse" x="44" y="-83" width="262" height="265">
          <path d="M 306,-82.807 H 44 v 264.048 h 262 z" fill="#ffffff" id="path1004"></path>
        </mask>
        <g mask="url(#mask4_0_3445)" id="g1009">
          <path d="m 75.3769,135.001 c 1.4096,1.667 2.8805,3.21 4.3513,4.815 L 300.911,13.0088 c -0.612,-2.099 -1.164,-4.13631 -1.899,-6.23536 z" fill="#f7885c" id="path1007"></path>
        </g>
        <mask id="mask5_0_3445" maskUnits="userSpaceOnUse" x="44" y="-83" width="262" height="265">
          <path d="M 306,-82.807 H 44 v 264.048 h 262 z" fill="#ffffff" id="path1011"></path>
        </mask>
        <g mask="url(#mask5_0_3445)" id="g1016">
          <path d="m 83.283,143.458 c 1.5934,1.543 3.1869,3.025 4.8416,4.506 L 303.669,24.3674 c -0.429,-2.1608 -0.858,-4.3216 -1.409,-6.4824 z" fill="#f7885c" id="path1014"></path>
        </g>
        <mask id="mask6_0_3445" maskUnits="userSpaceOnUse" x="44" y="-83" width="262" height="265">
          <path d="M 306,-82.807 H 44 v 264.048 h 262 z" fill="#ffffff" id="path1018"></path>
        </mask>
        <g mask="url(#mask6_0_3445)" id="g1023">
          <path d="m 92.1101,151.422 c 1.7773,1.42 3.5546,2.84 5.3319,4.198 L 305.326,36.4064 c -0.184,-2.2843 -0.49,-4.5068 -0.858,-6.791 z" fill="#f7885c" id="path1021"></path>
        </g>
        <mask id="mask7_0_3445" maskUnits="userSpaceOnUse" x="44" y="-83" width="262" height="265">
          <path d="M 306,-82.807 H 44 v 264.048 h 262 z" fill="#ffffff" id="path1025"></path>
        </mask>
        <g mask="url(#mask7_0_3445)" id="g1030">
          <path d="m 68.3322,125.986 c 1.2257,1.79 2.6353,3.334 3.9223,5.063 L 297.237,2.01873 c -0.735,-1.975571 -1.409,-4.01288 -2.267,-5.98846 z" fill="#f7885c" id="path1028"></path>
        </g>
        <mask id="mask8_0_3445" maskUnits="userSpaceOnUse" x="44" y="-83" width="262" height="265">
          <path d="M 306,-82.807 H 44 v 264.048 h 262 z" fill="#ffffff" id="path1032"></path>
        </mask>
        <g mask="url(#mask8_0_3445)" id="g1037">
          <path d="m 156.275,179.821 c 3.555,0.556 7.11,0.926 10.664,1.173 l 124.596,-71.491 c 1.655,-3.21 3.064,-6.544 4.474,-9.8778 z" fill="#f7885c" id="path1035"></path>
        </g>
        <mask id="mask9_0_3445" maskUnits="userSpaceOnUse" x="44" y="-83" width="262" height="265">
          <path d="M 306,-82.807 H 44 v 264.048 h 262 z" fill="#ffffff" id="path1039"></path>
        </mask>
        <g mask="url(#mask9_0_3445)" id="g1044">
          <path d="m 139.606,176.364 c 3.003,0.802 6.006,1.481 9.009,2.099 L 298.767,92.3401 c 1.042,-2.9634 2.023,-5.9268 2.819,-8.8901 z" fill="#f7885c" id="path1042"></path>
        </g>
        <mask id="mask10_0_3445" maskUnits="userSpaceOnUse" x="44" y="-83" width="262" height="265">
          <path d="M 306,-82.807 H 44 v 264.048 h 262 z" fill="#ffffff" id="path1046"></path>
        </mask>
        <g mask="url(#mask10_0_3445)" id="g1051">
          <path d="m 268.86,141.298 -63.187,36.239 c 11.706,-2.84 23.228,-7.285 34.198,-13.52 10.97,-6.297 20.592,-14.015 28.989,-22.719 z" fill="#f7885c" id="path1049"></path>
        </g>
        <mask id="mask11_0_3445" maskUnits="userSpaceOnUse" x="44" y="-83" width="262" height="265">
          <path d="M 306,-82.807 H 44 v 264.048 h 262 z" fill="#ffffff" id="path1053"></path>
        </mask>
        <g mask="url(#mask11_0_3445)" id="g1058">
          <path d="m 176.501,181.241 c 4.719,-0.062 9.499,-0.309 14.28,-0.926 l 88.069,-50.501 c 2.941,-3.828 5.577,-7.84 8.028,-11.915 z" fill="#f7885c" id="path1056"></path>
        </g>
        <mask id="mask12_0_3445" maskUnits="userSpaceOnUse" x="44" y="-83" width="262" height="265">
          <path d="M 306,-82.807 H 44 v 264.048 h 262 z" fill="#ffffff" id="path1060"></path>
        </mask>
        <g mask="url(#mask12_0_3445)" id="g1065">
          <path d="m 44,48.6924 c 0,2.4077 0.0613,4.8154 0.1839,7.1614 L 247.41,-60.6434 c -1.961,-1.2965 -3.984,-2.5929 -6.067,-3.8277 z" fill="#f7885c" id="path1063"></path>
        </g>
        <mask id="mask13_0_3445" maskUnits="userSpaceOnUse" x="44" y="-83" width="262" height="265">
          <path d="M 306,-82.807 H 44 v 264.048 h 262 z" fill="#ffffff" id="path1067"></path>
        </mask>
        <g mask="url(#mask13_0_3445)" id="g1072">
          <path d="m 62.2641,116.417 c 1.0419,1.853 2.2063,3.581 3.3708,5.31 L 292.702,-8.47598 c -0.92,-1.91382 -1.839,-3.82772 -2.82,-5.67982 z" fill="#f7885c" id="path1070"></path>
        </g>
        <mask id="mask14_0_3445" maskUnits="userSpaceOnUse" x="44" y="-83" width="262" height="265">
          <path d="M 306,-82.807 H 44 v 264.048 h 262 z" fill="#ffffff" id="path1074"></path>
        </mask>
        <g mask="url(#mask14_0_3445)" id="g1079">
          <path d="M 51.5371,5.29149 C 50.4952,8.25485 49.4534,11.2182 48.6566,14.2433 L 209.595,-78.1148 c -3.003,-0.8026 -6.067,-1.42 -9.132,-2.0374 z" fill="#f7885c" id="path1077"></path>
        </g>
        <mask id="mask15_0_3445" maskUnits="userSpaceOnUse" x="44" y="-83" width="262" height="265">
          <path d="M 306,-82.807 H 44 v 264.048 h 262 z" fill="#ffffff" id="path1081"></path>
        </mask>
        <g mask="url(#mask15_0_3445)" id="g1086">
          <path d="m 44.7962,35.2333 c -0.3064,2.5312 -0.4902,5.0624 -0.6128,7.5936 L 236.317,-67.3115 c -2.268,-1.1729 -4.535,-2.2842 -6.864,-3.3955 z" fill="#f7885c" id="path1084"></path>
        </g>
        <mask id="mask16_0_3445" maskUnits="userSpaceOnUse" x="44" y="-83" width="262" height="265">
          <path d="M 306,-82.807 H 44 v 264.048 h 262 z" fill="#ffffff" id="path1088"></path>
        </mask>
        <g mask="url(#mask16_0_3445)" id="g1093">
          <path d="m 47.1243,20.8488 c -0.6128,2.7164 -1.1644,5.4328 -1.5934,8.2109 L 223.813,-73.1763 c -2.574,-1.0495 -5.148,-1.9138 -7.783,-2.8399 z" fill="#f7885c" id="path1091"></path>
        </g>
        <mask id="mask17_0_3445" maskUnits="userSpaceOnUse" x="44" y="-83" width="262" height="265">
          <path d="M 306,-82.807 H 44 v 264.048 h 262 z" fill="#ffffff" id="path1095"></path>
        </mask>
        <g mask="url(#mask17_0_3445)" id="g1100">
          <path d="m 52.5201,95.9209 c 0.7354,1.9756 1.4096,4.0129 2.2676,5.9881 L 281.242,-27.9847 c -1.226,-1.7286 -2.636,-3.3338 -3.984,-5.0007 z" fill="#f7885c" id="path1098"></path>
        </g>
        <mask id="mask18_0_3445" maskUnits="userSpaceOnUse" x="44" y="-83" width="262" height="265">
          <path d="M 306,-82.807 H 44 v 264.048 h 262 z" fill="#ffffff" id="path1102"></path>
        </mask>
        <g mask="url(#mask18_0_3445)" id="g1107">
          <path d="m 56.9934,106.416 c 0.9193,1.914 1.8386,3.828 2.8192,5.68 L 287.37,-18.4156 c -1.104,-1.7904 -2.207,-3.5808 -3.371,-5.3711 z" fill="#f7885c" id="path1105"></path>
        </g>
        <mask id="mask19_0_3445" maskUnits="userSpaceOnUse" x="44" y="-83" width="262" height="265">
          <path d="M 306,-82.807 H 44 v 264.048 h 262 z" fill="#ffffff" id="path1109"></path>
        </mask>
        <g mask="url(#mask19_0_3445)" id="g1114">
          <path d="m 44.5544,61.41 c 0.1838,2.2843 0.4902,4.5686 0.7967,6.7911 L 257.341,-53.3585 c -1.777,-1.42 -3.554,-2.8399 -5.393,-4.1981 z" fill="#f7885c" id="path1112"></path>
        </g>
        <mask id="mask20_0_3445" maskUnits="userSpaceOnUse" x="44" y="-83" width="262" height="265">
          <path d="M 306,-82.807 H 44 v 264.048 h 262 z" fill="#ffffff" id="path1116"></path>
        </mask>
        <g mask="url(#mask20_0_3445)" id="g1121">
          <path d="m 46.2686,73.5102 c 0.3677,2.1608 0.7967,4.3216 1.3483,6.4824 L 266.226,-45.3947 c -1.593,-1.5434 -3.187,-3.0251 -4.903,-4.5068 z" fill="#f7885c" id="path1119"></path>
        </g>
        <mask id="mask21_0_3445" maskUnits="userSpaceOnUse" x="44" y="-83" width="262" height="265">
          <path d="M 306,-82.807 H 44 v 264.048 h 262 z" fill="#ffffff" id="path1123"></path>
        </mask>
        <g mask="url(#mask21_0_3445)" id="g1128">
          <path d="m 48.904,84.9935 c 0.6128,2.0991 1.1031,4.1981 1.8386,6.2354 L 274.255,-36.9365 c -1.41,-1.6669 -2.942,-3.2103 -4.413,-4.7537 z" fill="#f7885c" id="path1126"></path>
        </g>
      </g>
    </g>
  </g>
</svg>
