<svg xmlns="http://www.w3.org/2000/svg" width="273" height="272" fill="none">
  <ellipse cx="29.736" cy="147.96" rx="6.149" ry="6.148" transform="rotate(-126.451 29.736 147.96)" fill="#fff"/>
  <ellipse cx="56.134" cy="153.688" rx="6.149" ry="6.148" transform="rotate(-126.451 56.134 153.688)" fill="#fff"/>
  <ellipse cx="49.069" cy="127.564" rx="6.149" ry="6.148" transform="rotate(-126.451 49.069 127.564)" fill="#fff"/>
  <ellipse cx="74.971" cy="133.658" rx="6.149" ry="6.148" transform="rotate(-126.451 74.971 133.658)" fill="#fff"/>
  <ellipse cx="82.897" cy="159.91" rx="6.149" ry="6.148" transform="rotate(-126.451 82.897 159.91)" fill="#fff"/>
  <ellipse cx="66.916" cy="108.266" rx="6.149" ry="6.148" transform="rotate(-126.451 66.916 108.266)" fill="#fff"/>
  <ellipse cx="85.624" cy="89.096" rx="6.149" ry="6.148" transform="rotate(-126.451 85.624 89.096)" fill="#fff"/>
  <ellipse cx="92.82" cy="114.359" rx="6.149" ry="6.148" transform="rotate(-126.451 92.82 114.359)" fill="#fff"/>
  <ellipse cx="100.746" cy="140.611" rx="6.149" ry="6.148" transform="rotate(-126.451 100.746 140.611)" fill="#fff"/>
  <ellipse cx="108.8" cy="166.003" rx="6.149" ry="6.148" transform="rotate(-126.451 108.8 166.003)" fill="#fff"/>
  <ellipse cx="135.069" cy="172.591" rx="6.149" ry="6.148" transform="rotate(-126.451 135.069 172.591)" fill="#fff"/>
  <ellipse cx="127.143" cy="146.339" rx="6.149" ry="6.148" transform="rotate(-126.451 127.143 146.339)" fill="#fff"/>
  <ellipse cx="119.583" cy="120.581" rx="6.149" ry="6.148" transform="rotate(-126.451 119.583 120.581)" fill="#fff"/>
  <ellipse cx="111.528" cy="95.189" rx="6.149" ry="6.148" transform="rotate(-126.451 111.528 95.189)" fill="#fff"/>
  <ellipse cx="103.967" cy="69.431" rx="6.149" ry="6.148" transform="rotate(-126.451 103.967 69.431)" fill="#fff"/>
  <ellipse cx="122.311" cy="49.767" rx="6.149" ry="6.148" transform="rotate(-126.451 122.311 49.767)" fill="#fff"/>
  <ellipse cx="130.365" cy="75.159" rx="6.149" ry="6.148" transform="rotate(-126.451 130.365 75.16)" fill="#fff"/>
  <ellipse cx="137.926" cy="100.917" rx="6.149" ry="6.148" transform="rotate(-126.451 137.926 100.917)" fill="#fff"/>
  <ellipse cx="145.851" cy="127.169" rx="6.149" ry="6.148" transform="rotate(-126.451 145.851 127.169)" fill="#fff"/>
  <ellipse cx="153.046" cy="152.432" rx="6.149" ry="6.148" transform="rotate(-126.451 153.046 152.432)" fill="#fff"/>
  <ellipse cx="160.972" cy="178.684" rx="6.149" ry="6.148" transform="rotate(-126.451 160.972 178.684)" fill="#fff"/>
  <ellipse cx="186.875" cy="184.778" rx="6.149" ry="6.148" transform="rotate(-126.451 186.875 184.778)" fill="#fff"/>
  <ellipse cx="179.315" cy="159.02" rx="6.149" ry="6.148" transform="rotate(-126.451 179.315 159.02)" fill="#fff"/>
  <ellipse cx="171.754" cy="133.262" rx="6.149" ry="6.148" transform="rotate(-126.451 171.754 133.262)" fill="#fff"/>
  <ellipse cx="164.194" cy="107.504" rx="6.149" ry="6.148" transform="rotate(-126.451 164.194 107.504)" fill="#fff"/>
  <ellipse cx="156.634" cy="81.747" rx="6.149" ry="6.148" transform="rotate(-126.451 156.634 81.747)" fill="#fff"/>
  <ellipse cx="149.073" cy="55.989" rx="6.149" ry="6.148" transform="rotate(-126.451 149.073 55.99)" fill="#fff"/>
  <ellipse cx="139.922" cy="29.113" rx="6.149" ry="6.148" transform="rotate(-126.451 139.922 29.113)" fill="#fff"/>
  <ellipse cx="158.266" cy="9.448" rx="6.149" ry="6.148" transform="rotate(-126.451 158.266 9.448)" fill="#fff"/>
  <ellipse cx="165.826" cy="35.206" rx="6.149" ry="6.148" transform="rotate(-126.451 165.826 35.206)" fill="#fff"/>
  <ellipse cx="173.386" cy="60.964" rx="6.149" ry="6.148" transform="rotate(-126.451 173.386 60.964)" fill="#fff"/>
  <ellipse cx="181.311" cy="87.217" rx="6.149" ry="6.148" transform="rotate(-126.451 181.311 87.217)" fill="#fff"/>
  <ellipse cx="189.366" cy="112.609" rx="6.149" ry="6.148" transform="rotate(-126.451 189.366 112.609)" fill="#fff"/>
  <ellipse cx="196.927" cy="138.366" rx="6.149" ry="6.148" transform="rotate(-126.451 196.927 138.366)" fill="#fff"/>
  <ellipse cx="204.487" cy="164.124" rx="6.149" ry="6.148" transform="rotate(-126.451 204.487 164.124)" fill="#fff"/>
  <ellipse cx="212.413" cy="190.376" rx="6.149" ry="6.148" transform="rotate(-126.451 212.413 190.376)" fill="#fff"/>
</svg>
