<?xml version="1.0" encoding="UTF-8"?>
<svg xmlns="http://www.w3.org/2000/svg" width="47" height="37" viewBox="0 0 47 37" fill="none">
  <path d="M6.6811 36.4937H31.2495C29.7767 34.8198 29.2077 31.7732 29.0403 27.7559C29.0403 27.6219 29.1407 27.5885 29.2412 27.6219C29.3081 27.6554 29.3751 27.7224 29.4085 27.8563C30.1449 31.5724 30.7809 34.9872 32.9565 36.3932C33.4586 36.728 34.262 36.3932 35.0318 35.9915C34.2954 34.2841 34.0611 32.0076 33.9272 29.2624C33.9272 29.1285 34.0276 29.095 34.1281 29.1285C34.195 29.1619 34.262 29.2289 34.2954 29.3628C34.764 32.108 35.2661 34.0832 36.036 35.3889C39.2827 33.3467 42.9646 27.6219 45.1403 19.7545C47.2825 11.9876 47.316 4.78976 45.5085 1.30802C44.0023 2.14498 42.3956 3.81889 40.6886 6.16237C40.5881 6.29628 40.4877 6.29628 40.3873 6.2628C40.3204 6.22933 40.2869 6.12889 40.3204 6.06193C41.8601 3.71846 42.8642 2.04454 44.5378 0.872803H39.4836C38.4125 1.81019 36.9732 3.08237 35.8017 4.65585C35.7012 4.78976 35.6008 4.78976 35.5339 4.75628C35.4669 4.7228 35.4335 4.62237 35.4669 4.55541C36.4376 3.08237 37.174 1.84367 38.2116 0.872803H6.6811C3.43432 0.872803 0.790039 2.91498 0.790039 5.45933V31.9072C0.790039 34.4515 3.43432 36.4937 6.6811 36.4937Z" fill="#17B5CC"></path>
</svg>
