<?xml version="1.0" encoding="UTF-8"?>
<svg xmlns="http://www.w3.org/2000/svg" width="126" height="53" viewBox="0 0 126 53" fill="none">
  <path d="M6.17188 39.9945H7.39903V51.2261H12.1994V52.4141H6.17188V39.9945ZM18.9848 39.9945H26.1312V41.2185H20.212V45.1063H26.059V46.3303H20.212V51.2261H26.059V52.4501H18.9848V39.9945ZM38.114 39.9945L43.925 52.4141H42.5895L40.6405 48.3102H35.2627L33.3137 52.4141H31.9061L37.7892 39.9945H38.114ZM37.9696 42.6584L35.8402 47.1583H40.0991L37.9696 42.6584ZM50.7104 39.9945H53.2008C54.5723 39.9945 55.5107 40.0665 56.016 40.1745C56.774 40.3545 57.3515 40.7145 57.8207 41.2545C58.2899 41.7945 58.5065 42.4784 58.5065 43.3064C58.5065 43.9904 58.3621 44.5664 58.0373 45.1063C57.7124 45.6103 57.2793 46.0063 56.6657 46.2583C56.0882 46.5103 55.2581 46.6543 54.2114 46.6543L58.6869 52.4141H57.1349L52.6594 46.6543H51.9376V52.4141H50.7104V39.9945ZM51.9376 41.2185V45.4303H54.067C54.8972 45.4303 55.5107 45.3583 55.9078 45.1783C56.3048 45.0343 56.6296 44.7823 56.8462 44.4224C57.0627 44.0624 57.171 43.7024 57.171 43.2704C57.171 42.8384 57.0627 42.4784 56.8462 42.1185C56.6296 41.7945 56.3409 41.5425 55.9439 41.3985C55.5829 41.2545 54.9694 41.1825 54.1031 41.1825L51.9376 41.2185ZM65.9416 52.4501V40.0305H66.2303L74.5317 49.5702V40.0305H75.7588V52.4501H75.4701L67.2409 43.0184V52.4501H65.9416ZM83.3744 39.9945H84.6376V52.4141H83.3744V39.9945ZM92.2532 52.4501V40.0305H92.5059L100.807 49.5702V40.0305H102.034V52.4501H101.782L93.5526 43.0184V52.4501H92.2532ZM121.885 42.1185L120.911 43.0184C120.225 42.3344 119.467 41.8305 118.637 41.4705C117.807 41.1105 117.013 40.9305 116.219 40.9305C115.244 40.9305 114.306 41.1825 113.44 41.6505C112.537 42.1184 111.888 42.7664 111.382 43.5944C110.913 44.4224 110.661 45.2863 110.661 46.1863C110.661 47.1223 110.913 48.0222 111.419 48.8502C111.924 49.6782 112.61 50.3621 113.512 50.8301C114.414 51.2981 115.389 51.5501 116.435 51.5501C117.735 51.5501 118.781 51.1901 119.684 50.4701C120.586 49.7502 121.091 48.8142 121.272 47.6622H117.302V46.4743H122.679C122.679 48.3822 122.102 49.9302 120.983 51.0461C119.864 52.1621 118.348 52.738 116.435 52.738C114.125 52.738 112.321 51.9461 110.949 50.3981C109.903 49.2102 109.397 47.8062 109.397 46.2223C109.397 45.0343 109.686 43.9544 110.3 42.9464C110.877 41.9385 111.707 41.1465 112.754 40.5705C113.801 39.9945 114.956 39.7065 116.255 39.7065C117.302 39.7065 118.312 39.8865 119.251 40.2825C120.081 40.6425 120.983 41.2545 121.885 42.1185Z" fill="#9C9EA1" stroke="#999999" stroke-width="0.5"></path>
  <path d="M18.6961 9.79163H24.6875V33.5507H18.6961V31.0308C17.5411 32.1468 16.35 32.9387 15.1951 33.4067C14.0401 33.9107 12.7408 34.1267 11.3692 34.1267C8.30135 34.1267 5.63048 32.9387 3.39272 30.5628C1.11888 28.2229 0 25.271 0 21.7072C0 18.0353 1.08278 15.0474 3.24835 12.6715C5.41392 10.3316 8.0487 9.14365 11.1527 9.14365C12.5964 9.14365 13.9318 9.39564 15.1951 9.93562C16.4583 10.4756 17.6133 11.2676 18.66 12.3475V9.79163H18.6961ZM12.4159 14.6874C10.5752 14.6874 9.0232 15.3354 7.79605 16.6314C6.56889 17.9273 5.95531 19.6193 5.95531 21.6352C5.95531 23.6871 6.56889 25.379 7.83214 26.711C9.0593 28.0429 10.6113 28.6909 12.4159 28.6909C14.2928 28.6909 15.8447 28.0429 17.0719 26.747C18.2991 25.451 18.9126 23.7231 18.9126 21.6352C18.9126 19.5833 18.2991 17.8913 17.0719 16.5954C15.8447 15.3354 14.2928 14.6874 12.4159 14.6874ZM27.214 9.79163H33.2776V21.2392C33.2776 23.4711 33.4219 25.019 33.7468 25.883C34.0355 26.747 34.5408 27.431 35.2266 27.8989C35.9123 28.3669 36.7425 28.6189 37.7531 28.6189C38.7637 28.6189 39.5938 28.3669 40.2796 27.8989C40.9653 27.431 41.5067 26.747 41.8316 25.811C42.0842 25.127 42.1925 23.6511 42.1925 21.4192V9.79163H48.1839V19.8712C48.1839 24.0111 47.8591 26.855 47.2094 28.4029C46.4154 30.2748 45.2243 31.7148 43.6723 32.6868C42.1203 33.6947 40.1352 34.1987 37.717 34.1987C35.1183 34.1987 32.9888 33.6227 31.3647 32.4708C29.7405 31.3188 28.6216 29.6629 27.9719 27.6109C27.5027 26.171 27.2862 23.5431 27.2862 19.7272V9.79163H27.214ZM50.7465 9.79163H55.8717V12.7795C56.4131 11.5916 57.171 10.6916 58.0733 10.0796C58.9757 9.46764 59.9863 9.14365 61.1051 9.14365C61.8631 9.14365 62.6932 9.35964 63.5234 9.75563L61.6465 14.9034C60.9608 14.5434 60.3833 14.3635 59.9141 14.3635C58.9757 14.3635 58.2177 14.9394 57.568 16.0554C56.9184 17.2073 56.6296 19.4033 56.6296 22.7511L56.6657 23.9031V33.5147H50.7465V9.79163ZM69.1538 0C70.2005 0 71.1028 0.395985 71.8608 1.15196C72.6187 1.90793 72.9797 2.84389 72.9797 3.88785C72.9797 4.96781 72.6187 5.86778 71.8608 6.62375C71.1028 7.37972 70.2366 7.73971 69.1899 7.73971C68.1432 7.73971 67.2048 7.34372 66.483 6.58775C65.725 5.83178 65.3641 4.89581 65.3641 3.81585C65.3641 2.77189 65.725 1.87193 66.483 1.11596C67.2048 0.359986 68.0711 0 69.1538 0ZM66.1581 9.79163H72.1495V33.5507H66.1581V9.79163Z" fill="#272727"></path>
  <path fill-rule="evenodd" clip-rule="evenodd" d="M118.385 5.54478C113.332 1.98092 107.268 0.216983 100.194 0.252981C93.1196 0.324979 87.056 2.12491 82.0752 5.68878C77.0944 9.21664 74.5679 13.4645 74.5679 18.4323C74.5679 19.3255 74.6439 20.1959 74.7961 21.0434C74.9355 17.5968 76.303 14.6983 78.8988 12.3478C81.2809 10.1879 84.06 9.10792 87.164 9.10792C89.4379 9.10792 91.5312 9.6839 93.5164 10.7999C95.5015 11.9158 97.0534 13.4638 98.1362 15.3717C99.2551 17.2796 99.7965 19.3675 99.7965 21.5994C99.7965 23.8674 99.2551 25.9553 98.1362 27.8992C97.0174 29.8431 95.4654 31.3911 93.5524 32.471C91.6034 33.587 89.474 34.127 87.164 34.127C86.9277 34.127 86.6936 34.121 86.4618 34.1092C90.5789 36.0461 95.2692 37.0076 100.519 37.0076C107.219 37.0076 113.018 35.3422 117.915 32.0435V23.0754C117.915 20.2315 117.699 18.3596 117.446 17.4236C117.157 16.4876 116.652 15.8037 116.002 15.2997C115.389 14.8317 114.631 14.5797 113.692 14.5797C112.465 14.5797 111.491 15.0117 110.624 15.8037C109.758 16.5956 109.253 17.7116 108.928 19.1515C108.803 19.6763 108.817 20.5999 108.837 21.9465C108.846 22.5399 108.856 23.2155 108.856 23.9754V33.911H102.792V9.7919H108.856V12.1678C109.866 11.0158 111.31 10.2239 112.393 9.7919C113.476 9.32391 114.45 9.10792 115.605 9.10792C117.951 9.10792 120.045 9.93589 121.705 11.5918C123.076 12.9958 123.943 15.0477 123.979 17.7836V25.952C125.328 23.7181 126 21.2852 126 18.6483C126 13.5005 123.438 9.10864 118.385 5.54478ZM87.2723 28.5832C89.113 28.5832 90.7011 27.9352 91.9283 26.6393C93.1554 25.3433 93.8051 23.6514 93.8051 21.5994C93.8051 19.5475 93.1915 17.8916 91.9644 16.6316C90.7372 15.3717 89.1852 14.7237 87.2723 14.7237C85.3955 14.7237 83.8435 15.3717 82.6163 16.6676C81.3892 17.9636 80.7756 19.6195 80.7756 21.6354C80.7756 23.7234 81.3892 25.3793 82.6163 26.6753C83.8435 27.9352 85.3955 28.5832 87.2723 28.5832Z" fill="#F26839"></path>
</svg>
