<svg xmlns="http://www.w3.org/2000/svg" class="fill-current" width="138" height="58.05" fill="none">
  <path d="M6.172 39.995h1.227v11.231h4.8v1.188H6.172v-12.42Zm12.813 0h7.146v1.224h-5.919v3.887h5.847v1.224h-5.847v4.896h5.847v1.224h-7.074V39.994Zm19.129 0 5.811 12.42H42.59l-1.95-4.105h-5.377l-1.95 4.104h-1.407l5.883-12.42h.325Zm-.144 2.663-2.13 4.5h4.26l-2.13-4.5Zm12.74-2.663h2.49c1.372 0 2.31.072 2.816.18a3.31 3.31 0 0 1 1.805 1.08c.469.54.686 1.223.686 2.051 0 .684-.145 1.26-.47 1.8-.325.504-.758.9-1.371 1.152-.578.252-1.408.396-2.455.396l4.476 5.76h-1.552l-4.476-5.76h-.721v5.76H50.71v-12.42Zm1.228 1.224v4.211h2.129c.83 0 1.444-.072 1.84-.252.398-.144.723-.396.94-.756.216-.36.324-.72.324-1.152 0-.432-.108-.792-.325-1.152a1.801 1.801 0 0 0-.902-.72c-.361-.144-.975-.216-1.84-.216l-2.166.036ZM65.942 52.45V40.03h.288l8.302 9.54v-9.54h1.227v12.42h-.289l-8.23-9.432v9.432h-1.298Zm17.432-12.456h1.264v12.42h-1.264v-12.42Zm8.88 12.456V40.03h.252l8.301 9.54v-9.54h1.227v12.42h-.252l-8.23-9.432v9.432h-1.299Zm29.631-10.332-.974.9a7.293 7.293 0 0 0-2.274-1.547c-.83-.36-1.624-.54-2.418-.54-.975 0-1.913.252-2.779.72-.903.467-1.552 1.115-2.058 1.943-.469.828-.721 1.692-.721 2.592 0 .936.252 1.836.758 2.664.505.828 1.191 1.512 2.093 1.98a6.27 6.27 0 0 0 2.923.72c1.3 0 2.346-.36 3.249-1.08.902-.72 1.407-1.656 1.588-2.808h-3.97v-1.188h5.377c0 1.908-.577 3.456-1.696 4.572s-2.635 1.692-4.548 1.692c-2.31 0-4.114-.792-5.486-2.34-1.046-1.188-1.552-2.592-1.552-4.176 0-1.188.289-2.268.903-3.276.577-1.008 1.407-1.8 2.454-2.375 1.047-.576 2.202-.864 3.501-.864 1.047 0 2.057.18 2.996.575.83.36 1.732.973 2.634 1.837Z" fill="#9C9EA1" stroke="#999" stroke-width=".5"/>
  <path d="M18.696 9.792h5.991V33.55h-5.99v-2.52c-1.156 1.116-2.347 1.908-3.502 2.376-1.155.504-2.454.72-3.826.72-3.068 0-5.739-1.188-7.976-3.564C1.119 28.223 0 25.27 0 21.707c0-3.672 1.083-6.66 3.248-9.036 2.166-2.34 4.8-3.527 7.905-3.527 1.443 0 2.779.252 4.042.792s2.418 1.332 3.465 2.412V9.791h.036Zm-6.28 4.895c-1.84 0-3.393.648-4.62 1.944-1.227 1.296-1.84 2.988-1.84 5.004 0 2.052.613 3.744 1.876 5.076 1.227 1.332 2.78 1.98 4.584 1.98 1.877 0 3.429-.648 4.656-1.944 1.227-1.296 1.84-3.024 1.84-5.112 0-2.052-.613-3.744-1.84-5.04-1.227-1.26-2.78-1.908-4.656-1.908Zm14.798-4.895h6.064v11.447c0 2.232.144 3.78.469 4.644.288.864.794 1.548 1.48 2.016.685.468 1.516.72 2.526.72 1.01 0 1.84-.252 2.527-.72.685-.468 1.227-1.152 1.552-2.088.252-.684.36-2.16.36-4.392V9.792h5.992v10.08c0 4.14-.325 6.983-.975 8.53-.794 1.873-1.985 3.313-3.537 4.285-1.552 1.008-3.537 1.512-5.955 1.512-2.599 0-4.728-.576-6.352-1.728-1.624-1.152-2.743-2.808-3.393-4.86-.47-1.44-.686-4.068-.686-7.884V9.792h-.072Zm23.532 0h5.126v2.988c.541-1.188 1.299-2.088 2.201-2.7a5.296 5.296 0 0 1 3.032-.936c.758 0 1.588.216 2.418.612l-1.877 5.147c-.685-.36-1.263-.54-1.732-.54-.938 0-1.696.576-2.346 1.692-.65 1.152-.938 3.348-.938 6.696l.036 1.152v9.612h-5.92V9.792ZM69.154 0c1.047 0 1.949.396 2.707 1.152.758.756 1.119 1.692 1.119 2.736 0 1.08-.361 1.98-1.12 2.736-.757.756-1.623 1.116-2.67 1.116a3.66 3.66 0 0 1-2.707-1.152c-.758-.756-1.119-1.692-1.119-2.772 0-1.044.361-1.944 1.119-2.7C67.205.36 68.071 0 69.153 0Zm-2.996 9.792h5.992V33.55h-5.992V9.79Z" fill="#272727"/>
  <path fill-rule="evenodd" clip-rule="evenodd" d="M118.385 5.545C113.332 1.98 107.268.217 100.194.253 93.12.325 87.056 2.125 82.075 5.689c-4.98 3.528-7.507 7.775-7.507 12.743 0 .894.076 1.764.228 2.611.14-3.446 1.507-6.345 4.103-8.695 2.382-2.16 5.161-3.24 8.265-3.24 2.274 0 4.367.576 6.352 1.692 1.985 1.116 3.537 2.664 4.62 4.572 1.12 1.908 1.66 3.995 1.66 6.227 0 2.268-.54 4.356-1.66 6.3-1.119 1.944-2.67 3.492-4.584 4.572-1.949 1.116-4.078 1.656-6.388 1.656-.236 0-.47-.006-.702-.018 4.117 1.937 8.807 2.899 14.057 2.899 6.7 0 12.499-1.666 17.396-4.965v-8.968c0-2.843-.216-4.715-.469-5.651-.289-.936-.794-1.62-1.444-2.124-.613-.468-1.371-.72-2.31-.72-1.227 0-2.201.432-3.068 1.224-.866.792-1.371 1.908-1.696 3.347-.125.525-.111 1.449-.091 2.796.009.593.019 1.268.019 2.028v9.936h-6.064V9.791h6.064v2.377c1.01-1.152 2.454-1.944 3.537-2.376 1.083-.468 2.057-.684 3.212-.684 2.346 0 4.44.828 6.1 2.484 1.371 1.404 2.238 3.456 2.274 6.192v8.168c1.349-2.234 2.021-4.667 2.021-7.304 0-5.147-2.562-9.54-7.615-13.103ZM87.272 28.583c1.841 0 3.43-.648 4.656-1.944 1.227-1.296 1.877-2.988 1.877-5.04s-.614-3.707-1.84-4.967c-1.228-1.26-2.78-1.908-4.693-1.908-1.877 0-3.428.648-4.656 1.944-1.227 1.296-1.84 2.951-1.84 4.967 0 2.088.613 3.744 1.84 5.04 1.228 1.26 2.78 1.908 4.656 1.908Z" fill="#F26839"/>
</svg>
