<svg xmlns="http://www.w3.org/2000/svg" width="100" height="86" fill="none">
  <path d="M8.49 67.238c.288.192.576.385.877.565L38.33 51.315c0-.348-.012-.696-.036-1.032L8.49 67.237Zm3.434 1.826c.373.156.745.288 1.13.408l24.832-14.146c.085-.396.157-.78.217-1.177L11.924 69.064Zm-1.824-.853c.323.18.648.336.984.492L38.21 53.26c.036-.372.06-.732.072-1.104L10.099 68.21ZM4.587 63.78c.205.24.42.468.637.696l32.35-18.42a11.91 11.91 0 0 0-.276-.901L4.588 63.78Zm1.153 1.237c.228.228.469.444.709.66L37.97 47.725c-.06-.313-.132-.625-.204-.937L5.74 65.017Zm1.297 1.153c.252.204.516.42.78.612l30.406-17.316a12.96 12.96 0 0 0-.132-.985L7.037 66.17Zm-3.482-3.7c.18.253.384.481.576.733L37.034 44.47c-.108-.288-.204-.576-.336-.864L3.555 62.47Zm12.861 7.818c.516.073 1.032.145 1.56.169l18.23-10.376c.24-.468.456-.948.648-1.429L16.416 70.288Zm-2.438-.504c.433.12.877.216 1.321.3l21.964-12.5c.144-.433.288-.853.408-1.298L13.978 69.784Zm.36-36.986a19.32 19.32 0 0 0-4.66 1.873 19.052 19.052 0 0 0-3.986 3.05l8.646-4.923Zm18.553 31.895-9.246 5.26a19.237 19.237 0 0 0 4.995-1.97 18.25 18.25 0 0 0 4.251-3.29Zm-13.51 5.8c.697 0 1.393-.048 2.09-.132l12.885-7.338c.432-.552.816-1.14 1.177-1.729L19.38 70.493ZM0 51.255c0 .348.012.697.024 1.045l29.733-16.92a13.662 13.662 0 0 0-.889-.553L0 51.255Zm2.666 9.835c.156.264.324.516.492.768l33.228-18.9a10.66 10.66 0 0 0-.42-.817L2.665 61.09ZM1.093 44.95c-.157.433-.3.865-.42 1.298L24.22 32.834c-.445-.12-.889-.204-1.333-.3L1.093 44.951Zm3.038-5.511a19.9 19.9 0 0 0-1.26 1.777l15.899-9.054a19.17 19.17 0 0 0-2.174.18L4.131 39.439Zm-1.945 2.99c-.24.468-.469.948-.673 1.44l20.234-11.515a17.712 17.712 0 0 0-1.585-.156L2.186 42.428ZM.108 49.298c-.036.372-.072.732-.084 1.105l28.1-15.996a25.63 25.63 0 0 0-.997-.492L.107 49.298Zm.348-2.09c-.084.397-.168.793-.228 1.19l26.07-14.843a31.83 31.83 0 0 0-1.14-.408L.456 47.208Zm.792 10.904c.108.288.205.588.337.864l33.119-18.853c-.18-.252-.384-.48-.577-.732L1.248 58.11Zm.65 1.513c.132.276.264.553.42.829l33.287-18.95c-.156-.264-.324-.516-.492-.78L1.898 59.625Zm-1.814-6.52c.036.324.072.66.12.984L31.21 36.437c-.264-.204-.529-.42-.793-.613L.084 53.104Zm.24 1.741c.06.312.12.636.192.948l31.99-18.204a11.95 11.95 0 0 0-.708-.649L.324 54.846Zm.396 1.669c.084.3.168.612.265.913l32.687-18.613c-.205-.24-.433-.469-.649-.697L.72 56.515Z" opacity=".2" fill="#E2C64F"/>
  <path d="M89.93 64.429c.157.408.613.6 1.022.444a.784.784 0 0 0 .444-1.02.784.784 0 0 0-1.02-.445.793.793 0 0 0-.445 1.02Zm-.647 8.501a.783.783 0 0 0 1.02.445.784.784 0 0 0 .445-1.02.784.784 0 0 0-1.021-.445.803.803 0 0 0-.444 1.02ZM76.314 57.692c.156.408.612.6 1.02.444a.784.784 0 0 0 .445-1.02.784.784 0 0 0-1.02-.445.784.784 0 0 0-.445 1.02Zm2.69-2.81c.156.408.612.6 1.02.444a.784.784 0 0 0 .445-1.02.784.784 0 0 0-1.021-.445.784.784 0 0 0-.444 1.02Zm-7.062 18.565c.156.408.613.6 1.02.444a.784.784 0 0 0 .445-1.02.784.784 0 0 0-1.02-.445c-.409.168-.613.613-.445 1.02Zm15.503 6.869c.156.408.613.6 1.021.444a.784.784 0 0 0 .444-1.02.784.784 0 0 0-1.02-.445c-.409.168-.613.612-.445 1.02Zm-9.546-18.901c.156.408.612.6 1.02.444a.784.784 0 0 0 .445-1.02.784.784 0 0 0-1.021-.445.794.794 0 0 0-.444 1.02Zm4.959-5.236c.156.396.613.6 1.02.444a.784.784 0 0 0 .445-1.02.784.784 0 0 0-1.02-.445.775.775 0 0 0-.445 1.02Zm8.274 20.282c.156.408.613.6 1.02.444a.784.784 0 0 0 .445-1.02.784.784 0 0 0-1.02-.445.789.789 0 0 0-.445 1.021Zm-8.995-13.293c.156.408.613.6 1.02.444a.784.784 0 0 0 .445-1.02.784.784 0 0 0-1.02-.445.793.793 0 0 0-.445 1.02ZM59.394 79.547c.156.409.612.6 1.02.445a.784.784 0 0 0 .445-1.021.784.784 0 0 0-1.02-.444.789.789 0 0 0-.445 1.02Zm27.054-8.718c.157.408.613.6 1.021.444a.784.784 0 0 0 .445-1.02.784.784 0 0 0-1.021-.445.784.784 0 0 0-.445 1.02Zm-9.786 11.276c.156.408.612.6 1.02.444a.784.784 0 0 0 .445-1.02.794.794 0 0 0-1.02-.445.803.803 0 0 0-.445 1.021ZM88.61 60.706c.156.408.613.6 1.02.444a.784.784 0 0 0 .445-1.02.784.784 0 0 0-1.02-.445.774.774 0 0 0-.445 1.02Zm-9.246 4.119c.156.408.612.6 1.02.444a.784.784 0 0 0 .445-1.02.784.784 0 0 0-1.02-.445.784.784 0 0 0-.445 1.02Zm1.753 9.679c.156.408.612.6 1.02.444a.784.784 0 0 0 .445-1.02.784.784 0 0 0-1.02-.445.803.803 0 0 0-.445 1.02Zm11.443 5.452c.157.408.613.6 1.021.444a.784.784 0 0 0 .445-1.02.784.784 0 0 0-1.021-.445.803.803 0 0 0-.444 1.02Zm-9.954-20.163c.156.408.612.6 1.02.444a.784.784 0 0 0 .445-1.02.784.784 0 0 0-1.021-.445.784.784 0 0 0-.444 1.021Zm-15.671 10.28c.156.408.612.6 1.02.444a.784.784 0 0 0 .445-1.02.784.784 0 0 0-1.021-.445c-.408.168-.612.624-.444 1.02Zm10.807 3.65c.156.409.613.6 1.021.445a.784.784 0 0 0 .444-1.021.784.784 0 0 0-1.02-.444.793.793 0 0 0-.445 1.02Zm10.004-5.716c.156.408.612.6 1.02.444a.784.784 0 0 0 .445-1.02.794.794 0 0 0-1.02-.445.794.794 0 0 0-.445 1.021ZM81.189 52.36c.156.409.612.6 1.02.444a.784.784 0 0 0 .445-1.02.784.784 0 0 0-1.021-.444c-.408.168-.612.624-.444 1.02Zm4.263 9.355c.156.408.612.6 1.02.444a.784.784 0 0 0 .445-1.02.784.784 0 0 0-1.02-.445.774.774 0 0 0-.445 1.02ZM79.16 80.244c.155.408.612.6 1.02.444a.784.784 0 0 0 .444-1.02.784.784 0 0 0-1.02-.445c-.409.168-.613.624-.445 1.02Zm16.211 4.154c.156.397.613.6 1.021.445a.784.784 0 0 0 .444-1.02.784.784 0 0 0-1.02-.445.803.803 0 0 0-.445 1.02ZM74.2 60.886c.156.408.613.6 1.021.444a.784.784 0 0 0 .444-1.02.794.794 0 0 0-1.02-.445.789.789 0 0 0-.445 1.021Zm2.69 6.809c.156.408.612.6 1.02.444a.784.784 0 0 0 .445-1.02.794.794 0 0 0-1.021-.445.799.799 0 0 0-.444 1.02Zm21.591 17.46c.156.409.612.6 1.02.445a.784.784 0 0 0 .445-1.021.784.784 0 0 0-1.02-.444.784.784 0 0 0-.445 1.02Zm-6.304-.876c.156.408.612.6 1.02.444a.784.784 0 0 0 .445-1.02.784.784 0 0 0-1.02-.445.784.784 0 0 0-.445 1.02ZM78.811 70.865c.156.408.613.6 1.021.444a.784.784 0 0 0 .444-1.02.784.784 0 0 0-1.02-.445.775.775 0 0 0-.445 1.021Zm-4.431 7.301c.156.408.613.6 1.02.444a.784.784 0 0 0 .445-1.02.784.784 0 0 0-1.02-.445.793.793 0 0 0-.445 1.021Zm10.676-4.106c.156.408.612.6 1.02.444a.784.784 0 0 0 .445-1.02.784.784 0 0 0-1.02-.445.788.788 0 0 0-.445 1.02Zm-16.909-.637c.156.408.613.6 1.021.444a.784.784 0 0 0 .444-1.02.784.784 0 0 0-1.02-.445.794.794 0 0 0-.445 1.02Zm26.863 4.239c.157.396.613.6 1.021.444a.784.784 0 0 0 .445-1.02.784.784 0 0 0-1.021-.445.793.793 0 0 0-.444 1.021ZM63.716 80.28c.156.408.613.6 1.021.444a.784.784 0 0 0 .444-1.02.784.784 0 0 0-1.02-.445.775.775 0 0 0-.445 1.02Zm20.872-28.496c.156.396.612.6 1.02.444a.784.784 0 0 0 .444-1.02.784.784 0 0 0-1.02-.445.784.784 0 0 0-.444 1.02ZM70.717 70.06a.784.784 0 0 0 1.021.445.784.784 0 0 0 .444-1.02.784.784 0 0 0-1.02-.445.803.803 0 0 0-.445 1.02ZM81.14 82.933c.157.409.613.6 1.021.445a.784.784 0 0 0 .445-1.021.788.788 0 0 0-1.465.576ZM69.6 76.305c.157.408.613.6 1.021.444a.784.784 0 0 0 .445-1.02.794.794 0 0 0-1.021-.445c-.408.168-.612.613-.444 1.021Zm16.416-21.603c.156.408.612.6 1.02.444a.784.784 0 0 0 .445-1.02.784.784 0 0 0-1.02-.445.784.784 0 0 0-.445 1.02ZM64.173 75.813c.156.408.612.6 1.02.444a.784.784 0 0 0 .445-1.02.784.784 0 0 0-1.02-.445.784.784 0 0 0-.445 1.02Zm18.733-4.708c.156.409.612.6 1.02.445a.784.784 0 0 0 .445-1.021.784.784 0 0 0-1.02-.444.784.784 0 0 0-.445 1.02Zm-10.171-4.071c.156.409.612.6 1.02.445a.784.784 0 0 0 .445-1.021.784.784 0 0 0-1.02-.444.803.803 0 0 0-.445 1.02Zm18.349.973c.156.408.613.6 1.02.444a.784.784 0 0 0 .445-1.02.784.784 0 0 0-1.02-.445.803.803 0 0 0-.445 1.021Zm-4.455-10.219c.156.408.612.6 1.02.444a.784.784 0 0 0 .445-1.02.784.784 0 0 0-1.02-.445.793.793 0 0 0-.445 1.02ZM72.891 81.637c.156.408.613.6 1.02.444a.784.784 0 0 0 .445-1.02.784.784 0 0 0-1.02-.445.803.803 0 0 0-.445 1.02Zm23.525-.589c.156.408.612.6 1.02.444a.784.784 0 0 0 .445-1.02.784.784 0 0 0-1.02-.445.803.803 0 0 0-.445 1.021Zm-30.034-2.882c.156.408.613.6 1.021.444a.784.784 0 0 0 .444-1.02.784.784 0 0 0-1.02-.445.788.788 0 0 0-.445 1.021Zm23.789 3.915c.156.408.613.6 1.021.444a.784.784 0 0 0 .444-1.02.784.784 0 0 0-1.02-.445.784.784 0 0 0-.445 1.021ZM79.688 58.304c.156.408.612.6 1.02.444a.784.784 0 0 0 .445-1.02.794.794 0 0 0-1.02-.445.784.784 0 0 0-.445 1.021ZM77.826 77.23c.156.408.613.6 1.02.444a.784.784 0 0 0 .445-1.02.784.784 0 0 0-1.02-.445.788.788 0 0 0-.445 1.02Zm6.245 4.479c.156.408.612.6 1.02.444a.784.784 0 0 0 .445-1.02.784.784 0 0 0-1.02-.445.775.775 0 0 0-.445 1.02Zm3.999-4.948c.156.409.612.6 1.02.445a.784.784 0 0 0 .445-1.021.784.784 0 0 0-1.02-.444.793.793 0 0 0-.445 1.02Zm-4.155-9.786c.156.408.612.6 1.02.444a.784.784 0 0 0 .444-1.021.784.784 0 0 0-1.02-.444.793.793 0 0 0-.444 1.02Zm-14.855-.169c.157.409.613.6 1.021.445a.784.784 0 0 0 .445-1.021.784.784 0 0 0-1.021-.444.803.803 0 0 0-.444 1.02Zm-4.659 5.944c.156.397.613.6 1.02.445a.784.784 0 0 0 .445-1.021.784.784 0 0 0-1.02-.445.788.788 0 0 0-.445 1.021Zm27.824-1.753c.156.408.612.6 1.02.444a.784.784 0 0 0 .445-1.02.784.784 0 0 0-1.02-.445.794.794 0 0 0-.445 1.021Zm-10.303 7.121c.156.409.612.6 1.02.445a.784.784 0 0 0 .445-1.021.784.784 0 0 0-1.02-.445.775.775 0 0 0-.445 1.021Zm5.055 5.896c.156.409.612.6 1.02.445a.784.784 0 0 0 .445-1.021.784.784 0 0 0-1.021-.444.793.793 0 0 0-.444 1.02Zm-25.722-7.121c.156.409.612.6 1.02.445a.784.784 0 0 0 .445-1.021.784.784 0 0 0-1.02-.444.774.774 0 0 0-.445 1.02Zm22.12-28.075c.156.408.612.6 1.02.444a.784.784 0 0 0 .445-1.02.784.784 0 0 0-1.021-.445.793.793 0 0 0-.444 1.02Zm1.5 28.688c.156.408.613.6 1.021.444a.784.784 0 0 0 .444-1.02.784.784 0 0 0-1.02-.445c-.409.168-.613.624-.445 1.02Zm8.827-3.351c.156.397.612.6 1.02.445a.784.784 0 0 0 .445-1.021.784.784 0 0 0-1.02-.444.784.784 0 0 0-.445 1.02ZM80.816 68.08c.156.407.613.6 1.021.444a.784.784 0 0 0 .444-1.021.784.784 0 0 0-1.02-.445.793.793 0 0 0-.445 1.021Zm-9.006-4.54c.156.408.613.6 1.021.444a.784.784 0 0 0 .444-1.02.784.784 0 0 0-1.02-.445.793.793 0 0 0-.445 1.02Zm-3.482 17.544c.156.409.612.6 1.02.445a.784.784 0 0 0 .445-1.021.794.794 0 0 0-1.02-.444.799.799 0 0 0-.445 1.02ZM74.56 70.3a.783.783 0 0 0 1.02.445.784.784 0 0 0 .445-1.02.784.784 0 0 0-1.02-.445c-.409.168-.613.624-.445 1.02Zm1.01-5.763c.155.408.612.6 1.02.444a.784.784 0 0 0 .444-1.02.784.784 0 0 0-1.02-.445.793.793 0 0 0-.445 1.02Zm-4.636 14.458c.156.408.612.6 1.02.444a.784.784 0 0 0 .445-1.02.794.794 0 0 0-1.021-.445.784.784 0 0 0-.444 1.02Zm3.77-4.647c.157.408.613.6 1.021.444a.784.784 0 0 0 .444-1.02.784.784 0 0 0-1.02-.445.784.784 0 0 0-.445 1.02Zm11.721-9.559c.156.408.612.6 1.02.444a.784.784 0 0 0 .445-1.02.784.784 0 0 0-1.021-.445.784.784 0 0 0-.444 1.02Z" opacity=".2" fill="#007199"/>
  <path d="M78.871 24.693c5.356 5.704 7.734 13.341 7.734 13.341s1.573 5.152 1.573 10.363c0 19.25-15.6 34.849-34.849 34.849-19.25 0-34.848-15.6-34.848-34.849 0-5.163 1.573-10.363 1.573-10.363s2.822-8.97 9.63-15.107c13.126-11.84 38.055-10.075 49.187 1.766Z" fill="#fff" stroke="#333" stroke-width="1.725" stroke-miterlimit="10"/>
  <path d="M53.318 83.246c10.008 0 18.12-15.602 18.12-34.849 0-19.246-8.113-34.848-18.12-34.848-10.008 0-18.121 15.602-18.121 34.848 0 19.247 8.113 34.849 18.12 34.849Z" fill="#fff" stroke="#333" stroke-width="1.725" stroke-miterlimit="10"/>
  <path d="M18.469 48.397h68.304M53.317 13.549v69.697M24.041 67.911h58.553" stroke="#333" stroke-width="1.725" stroke-miterlimit="10"/>
  <path d="M64.461 16.335H43.554v32.062h20.907V16.335Z" fill="#999" stroke="#333" stroke-width="1.725" stroke-miterlimit="10"/>
  <path d="M49.138 10.75V1h-2.786L29.625 16.335v32.062h13.93V16.335h2.797V10.75h2.786Z" fill="#fff" stroke="#333" stroke-width="1.725" stroke-miterlimit="10"/>
  <path d="M33.804 42.813h5.572" stroke="#333" stroke-width="1.725" stroke-miterlimit="10"/>
  <path d="M61.687 10.751H46.352v5.572h15.335V10.75Z" fill="#E2C64F" stroke="#333" stroke-width="1.725" stroke-miterlimit="10"/>
  <path d="M50.531 26.085v-4.178h6.965v4.178" fill="#999"/>
  <path d="M50.531 26.085v-4.178h6.965v4.178" stroke="#333" stroke-width="1.725" stroke-miterlimit="10"/>
  <path d="M50.531 34.455v-4.178h6.965v4.178" fill="#999"/>
  <path d="M50.531 34.455v-4.178h6.965v4.178" stroke="#333" stroke-width="1.725" stroke-miterlimit="10"/>
  <path d="M50.531 42.813v-4.178h6.965v4.178" fill="#999"/>
  <path d="M50.531 42.813v-4.178h6.965v4.178M33.804 26.086h5.572m-5.572-5.572h5.572M33.804 31.67h5.572m-5.572 5.572h5.572" stroke="#333" stroke-width="1.725" stroke-miterlimit="10"/>
  <path d="M74.224 48.397V5.18H57.496v5.572h4.191v5.584h2.786v32.062h9.751Z" fill="#F26839" stroke="#333" stroke-width="1.725" stroke-miterlimit="10"/>
  <path d="M70.045 13.549v4.179m0 2.786v4.179m0 2.786v4.19m0 2.787v4.178" stroke="#333" stroke-width="1.725" stroke-miterlimit="10"/>
</svg>
