<svg xmlns="http://www.w3.org/2000/svg" width="102" height="97" fill="none">
  <path d="M22.345 33.188c-.186.669.198 1.35.855 1.55a1.262 1.262 0 0 0 1.55-.856 1.263 1.263 0 0 0-.856-1.55 1.243 1.243 0 0 0-1.55.856ZM52.009 8.52c-.186.668.198 1.35.855 1.549a1.262 1.262 0 0 0 1.55-.856 1.263 1.263 0 0 0-.855-1.55 1.237 1.237 0 0 0-1.55.856ZM19.32 18.833c-.186.669.199 1.35.856 1.55a1.263 1.263 0 0 0 1.55-.856 1.262 1.262 0 0 0-.856-1.55 1.257 1.257 0 0 0-1.55.856Zm23.07 17.801c-.186.67.198 1.351.855 1.55a1.262 1.262 0 0 0 1.55-.856 1.262 1.262 0 0 0-.856-1.55 1.238 1.238 0 0 0-1.55.856Zm15.557-10.612c-.186.67.199 1.352.856 1.55a1.262 1.262 0 0 0 1.55-.855 1.262 1.262 0 0 0-.856-1.55 1.257 1.257 0 0 0-1.55.855ZM56.72 12.114c-.186.67.198 1.35.855 1.55a1.263 1.263 0 0 0 1.55-.856 1.262 1.262 0 0 0-.856-1.55 1.243 1.243 0 0 0-1.55.856Zm-12.681.025c-.186.669.198 1.35.855 1.55a1.262 1.262 0 0 0 1.55-.856 1.262 1.262 0 0 0-.856-1.55 1.257 1.257 0 0 0-1.55.856ZM34.258 39.56c-.186.669.198 1.35.855 1.549a1.262 1.262 0 0 0 1.55-.855 1.263 1.263 0 0 0-.856-1.55 1.243 1.243 0 0 0-1.55.855Zm17.032 6.334c-.186.67.199 1.351.856 1.55a1.262 1.262 0 0 0 1.55-.856 1.263 1.263 0 0 0-.856-1.55 1.257 1.257 0 0 0-1.55.856ZM31.964 2.11c-.186.67.199 1.351.856 1.55a1.262 1.262 0 0 0 1.55-.856 1.262 1.262 0 0 0-.856-1.55 1.238 1.238 0 0 0-1.55.856Zm6.223 40.834c-.186.669.198 1.35.855 1.55a1.262 1.262 0 0 0 1.55-.856 1.262 1.262 0 0 0-.855-1.55 1.248 1.248 0 0 0-1.55.855Zm-7.327-7.302c-.185.67.2 1.351.856 1.55a1.262 1.262 0 0 0 1.55-.856 1.262 1.262 0 0 0-.855-1.55 1.262 1.262 0 0 0-1.55.856Zm-4.028-27.83c-.186.67.199 1.351.856 1.55a1.262 1.262 0 0 0 1.55-.856 1.262 1.262 0 0 0-.856-1.55 1.238 1.238 0 0 0-1.55.856ZM14.076 19.204c-.186.67.199 1.352.856 1.55a1.263 1.263 0 0 0 1.55-.855 1.262 1.262 0 0 0-.856-1.55 1.257 1.257 0 0 0-1.55.855Zm3.992 14.641c-.186.67.198 1.351.855 1.55a1.262 1.262 0 0 0 1.55-.856 1.262 1.262 0 0 0-.855-1.55 1.243 1.243 0 0 0-1.55.856Zm14.058-7.277c-.186.67.198 1.351.855 1.55a1.263 1.263 0 0 0 1.55-.856 1.262 1.262 0 0 0-.856-1.55 1.237 1.237 0 0 0-1.55.856Zm25.065 9.979c-.186.67.198 1.351.855 1.55a1.262 1.262 0 0 0 1.55-.856 1.263 1.263 0 0 0-.855-1.55 1.243 1.243 0 0 0-1.55.856ZM35.696 23.754c-.186.67.198 1.351.855 1.55a1.262 1.262 0 0 0 1.55-.856 1.263 1.263 0 0 0-.856-1.55 1.248 1.248 0 0 0-1.55.856Zm-14.603 1.19c-.186.67.198 1.351.855 1.55a1.262 1.262 0 0 0 1.55-.856 1.262 1.262 0 0 0-.856-1.55c-.669-.198-1.35.2-1.55.856Zm30.83 1.413c-.186.67.198 1.351.855 1.55a1.262 1.262 0 0 0 1.55-.856 1.262 1.262 0 0 0-.856-1.55 1.268 1.268 0 0 0-1.55.856Zm8.181-16.288c-.186.669.198 1.35.855 1.55a1.262 1.262 0 0 0 1.55-.856 1.262 1.262 0 0 0-.855-1.55 1.238 1.238 0 0 0-1.55.856Zm-8.888-5.926c-.186.67.198 1.351.855 1.55a1.263 1.263 0 0 0 1.55-.856 1.263 1.263 0 0 0-.856-1.55 1.237 1.237 0 0 0-1.55.856ZM25.121 15.87c-.185.67.199 1.351.856 1.55a1.262 1.262 0 0 0 1.55-.856 1.262 1.262 0 0 0-.856-1.55 1.238 1.238 0 0 0-1.55.856Zm41.603 7.388c-.187.67.198 1.351.855 1.55a1.263 1.263 0 0 0 1.55-.856 1.262 1.262 0 0 0-.856-1.55 1.237 1.237 0 0 0-1.55.856Zm-26.888 33.78c-.186.67.198 1.352.855 1.55a1.262 1.262 0 0 0 1.55-.855 1.262 1.262 0 0 0-.856-1.55 1.247 1.247 0 0 0-1.55.855Zm5.058-40.722c-.186.67.198 1.351.855 1.55a1.262 1.262 0 0 0 1.55-.856 1.262 1.262 0 0 0-.856-1.55 1.238 1.238 0 0 0-1.55.856Zm-13.116-9.57c-.186.67.199 1.351.856 1.55a1.263 1.263 0 0 0 1.55-.856 1.263 1.263 0 0 0-.856-1.55 1.243 1.243 0 0 0-1.55.856ZM19.99 42.956c-.186.67.198 1.351.855 1.55a1.262 1.262 0 0 0 1.55-.856 1.262 1.262 0 0 0-.856-1.55 1.238 1.238 0 0 0-1.55.856Zm14.813-12.793c-.186.67.199 1.351.855 1.55a1.262 1.262 0 0 0 1.55-.856 1.262 1.262 0 0 0-.855-1.55 1.238 1.238 0 0 0-1.55.856Zm-7.115-2.703c-.186.67.198 1.351.855 1.55a1.262 1.262 0 0 0 1.55-.856 1.263 1.263 0 0 0-.856-1.55 1.237 1.237 0 0 0-1.55.856ZM23.56 11.568c-.187.67.198 1.351.855 1.55a1.262 1.262 0 0 0 1.55-.856 1.262 1.262 0 0 0-.856-1.55 1.243 1.243 0 0 0-1.55.856ZM67.356 29.27c-.186.67.199 1.351.856 1.55a1.263 1.263 0 0 0 1.55-.856 1.262 1.262 0 0 0-.856-1.55 1.243 1.243 0 0 0-1.55.856Zm-8.12 18.992c-.186.669.198 1.35.855 1.55a1.262 1.262 0 0 0 1.55-.856 1.262 1.262 0 0 0-.855-1.55 1.238 1.238 0 0 0-1.55.856Zm-3.458-18.719c-.186.67.198 1.352.855 1.55a1.262 1.262 0 0 0 1.55-.855 1.262 1.262 0 0 0-.856-1.55 1.238 1.238 0 0 0-1.55.855Zm-16.276-12.83c-.186.67.198 1.351.855 1.55a1.262 1.262 0 0 0 1.55-.856 1.263 1.263 0 0 0-.856-1.55 1.237 1.237 0 0 0-1.55.856Zm-.559 11.38c-.186.669.199 1.35.855 1.55a1.263 1.263 0 0 0 1.55-.856 1.262 1.262 0 0 0-.855-1.55 1.237 1.237 0 0 0-1.55.856Zm21.137-10.76c-.187.67.198 1.35.855 1.55a1.262 1.262 0 0 0 1.55-.856 1.263 1.263 0 0 0-.856-1.55 1.248 1.248 0 0 0-1.55.856Zm-4.624 4.921c-.186.67.198 1.351.855 1.55a1.262 1.262 0 0 0 1.55-.856 1.262 1.262 0 0 0-.856-1.55 1.243 1.243 0 0 0-1.55.856ZM50.683 41.06c-.186.669.198 1.35.855 1.549a1.263 1.263 0 0 0 1.55-.855 1.262 1.262 0 0 0-.856-1.55 1.237 1.237 0 0 0-1.55.855Zm-4.946-20.504c-.186.669.198 1.35.855 1.55a1.263 1.263 0 0 0 1.55-.856 1.262 1.262 0 0 0-.856-1.55 1.237 1.237 0 0 0-1.55.856Zm9.843 24.991c-.187.67.198 1.351.855 1.55a1.262 1.262 0 0 0 1.55-.856 1.263 1.263 0 0 0-.856-1.55 1.237 1.237 0 0 0-1.55.856ZM32.795 14.99c-.186.67.198 1.35.855 1.55a1.262 1.262 0 0 0 1.55-.856 1.262 1.262 0 0 0-.856-1.55 1.237 1.237 0 0 0-1.55.856ZM22.122 6.697c-.186.669.198 1.35.855 1.55a1.262 1.262 0 0 0 1.55-.856 1.262 1.262 0 0 0-.856-1.55 1.247 1.247 0 0 0-1.55.856Zm-1.277 43.709c-.186.67.198 1.351.855 1.55a1.262 1.262 0 0 0 1.55-.856 1.262 1.262 0 0 0-.856-1.55 1.243 1.243 0 0 0-1.55.856Zm38.627-17.429c-.186.67.198 1.35.855 1.55a1.262 1.262 0 0 0 1.55-.856 1.263 1.263 0 0 0-.856-1.55 1.247 1.247 0 0 0-1.55.856ZM47.001 44.543c-.186.669.199 1.35.856 1.55a1.262 1.262 0 0 0 1.55-.856 1.262 1.262 0 0 0-.856-1.55 1.257 1.257 0 0 0-1.55.856Zm-21.347 5.59c-.185.67.199 1.352.856 1.55a1.263 1.263 0 0 0 1.55-.855 1.262 1.262 0 0 0-.856-1.55 1.257 1.257 0 0 0-1.55.855ZM62.013 29.84c-.186.67.198 1.352.855 1.55a1.262 1.262 0 0 0 1.55-.855 1.262 1.262 0 0 0-.856-1.55 1.263 1.263 0 0 0-1.55.856Zm-31.078-8.107c-.186.67.199 1.352.856 1.55a1.262 1.262 0 0 0 1.55-.855 1.262 1.262 0 0 0-.856-1.55 1.257 1.257 0 0 0-1.55.855ZM41.014 8.829c-.186.67.198 1.351.855 1.55a1.262 1.262 0 0 0 1.55-.856 1.262 1.262 0 0 0-.856-1.55 1.263 1.263 0 0 0-1.55.856ZM64.74 39.832c-.186.67.199 1.351.856 1.55a1.262 1.262 0 0 0 1.55-.856 1.262 1.262 0 0 0-.856-1.55 1.238 1.238 0 0 0-1.55.856Zm-25.214 8.665c-.186.67.198 1.351.855 1.55a1.262 1.262 0 0 0 1.55-.856 1.263 1.263 0 0 0-.855-1.55 1.237 1.237 0 0 0-1.55.856Zm15.594-7.983c-.185.67.199 1.351.856 1.55a1.262 1.262 0 0 0 1.55-.856 1.262 1.262 0 0 0-.856-1.55 1.238 1.238 0 0 0-1.55.856ZM40.753.957c-.186.67.199 1.351.856 1.55a1.262 1.262 0 0 0 1.55-.856 1.262 1.262 0 0 0-.856-1.55 1.257 1.257 0 0 0-1.55.856ZM12.886 27.436c-.186.67.199 1.35.856 1.55a1.262 1.262 0 0 0 1.55-.856 1.262 1.262 0 0 0-.856-1.55 1.238 1.238 0 0 0-1.55.856Zm31.35.681c-.186.67.199 1.352.856 1.55a1.262 1.262 0 0 0 1.55-.855 1.262 1.262 0 0 0-.856-1.55 1.238 1.238 0 0 0-1.55.855Zm18.198 8.504c-.185.67.199 1.351.856 1.55a1.263 1.263 0 0 0 1.55-.856 1.262 1.262 0 0 0-.856-1.55 1.237 1.237 0 0 0-1.55.856ZM36.24 1.862c-.185.67.2 1.351.856 1.55a1.263 1.263 0 0 0 1.55-.856 1.263 1.263 0 0 0-.856-1.55 1.247 1.247 0 0 0-1.55.856ZM17.92 28.713c-.186.67.198 1.35.855 1.55a1.262 1.262 0 0 0 1.55-.856 1.263 1.263 0 0 0-.856-1.55 1.237 1.237 0 0 0-1.55.856Zm5.429.421c-.186.67.198 1.351.855 1.55a1.262 1.262 0 0 0 1.55-.856 1.263 1.263 0 0 0-.856-1.55 1.237 1.237 0 0 0-1.55.856Zm5.701 11.057c-.185.67.2 1.352.856 1.55a1.262 1.262 0 0 0 1.55-.855 1.262 1.262 0 0 0-.856-1.55 1.237 1.237 0 0 0-1.55.855ZM41.918 4.713c-.186.67.199 1.351.856 1.55a1.263 1.263 0 0 0 1.55-.856 1.263 1.263 0 0 0-.856-1.55 1.237 1.237 0 0 0-1.55.856Zm9.062 16.512c-.186.67.198 1.351.855 1.55a1.263 1.263 0 0 0 1.55-.856 1.262 1.262 0 0 0-.855-1.55 1.243 1.243 0 0 0-1.55.856ZM34.691 47.096c-.186.67.199 1.352.856 1.55a1.262 1.262 0 0 0 1.55-.855 1.262 1.262 0 0 0-.856-1.55 1.238 1.238 0 0 0-1.55.855Zm10.711-14.07c-.186.67.198 1.352.855 1.55a1.262 1.262 0 0 0 1.55-.855 1.262 1.262 0 0 0-.856-1.55 1.247 1.247 0 0 0-1.55.855Zm3.533-21.036c-.186.67.199 1.351.856 1.55a1.262 1.262 0 0 0 1.55-.856 1.262 1.262 0 0 0-.856-1.55 1.238 1.238 0 0 0-1.55.856Zm-1.674 25.636c-.186.67.199 1.35.856 1.55a1.262 1.262 0 0 0 1.55-.856 1.262 1.262 0 0 0-.856-1.55 1.268 1.268 0 0 0-1.55.856Zm-29.788 9.111c-.186.67.199 1.351.856 1.55a1.262 1.262 0 0 0 1.55-.856 1.263 1.263 0 0 0-.856-1.55 1.238 1.238 0 0 0-1.55.856Zm-3.298-13.661c-.186.67.199 1.351.856 1.55a1.262 1.262 0 0 0 1.55-.856 1.263 1.263 0 0 0-.856-1.55 1.237 1.237 0 0 0-1.55.856Zm21.185 1.203c-.185.669.2 1.35.856 1.55a1.262 1.262 0 0 0 1.55-.856 1.262 1.262 0 0 0-.855-1.55 1.247 1.247 0 0 0-1.55.856Zm-9.247 1.239c-.186.67.199 1.351.856 1.55a1.263 1.263 0 0 0 1.55-.856 1.262 1.262 0 0 0-.856-1.55 1.237 1.237 0 0 0-1.55.856Zm.88-31.933c-.186.67.198 1.351.855 1.55a1.262 1.262 0 0 0 1.55-.856 1.262 1.262 0 0 0-.855-1.55 1.237 1.237 0 0 0-1.55.856ZM52.84 53.208c-.187.67.198 1.351.855 1.55a1.262 1.262 0 0 0 1.55-.856 1.263 1.263 0 0 0-.856-1.55 1.243 1.243 0 0 0-1.55.856ZM36.8 6.957c-.187.67.198 1.351.855 1.55a1.263 1.263 0 0 0 1.55-.856 1.263 1.263 0 0 0-.856-1.55 1.237 1.237 0 0 0-1.55.856Zm22.523 34.759c-.186.67.199 1.351.856 1.55a1.262 1.262 0 0 0 1.55-.856 1.262 1.262 0 0 0-.856-1.55 1.248 1.248 0 0 0-1.55.856ZM41.212 24.41c-.186.67.198 1.352.855 1.55a1.262 1.262 0 0 0 1.55-.855 1.263 1.263 0 0 0-.856-1.55 1.257 1.257 0 0 0-1.55.856Zm-6.285-5.652c-.186.67.198 1.352.855 1.55a1.262 1.262 0 0 0 1.55-.855 1.262 1.262 0 0 0-.855-1.55 1.238 1.238 0 0 0-1.55.855Zm27.544 25.648c-.185.67.199 1.351.856 1.55a1.262 1.262 0 0 0 1.55-.856 1.262 1.262 0 0 0-.856-1.55 1.268 1.268 0 0 0-1.55.856Zm-23.9-31.412c-.186.67.199 1.351.856 1.55a1.263 1.263 0 0 0 1.55-.856 1.262 1.262 0 0 0-.856-1.55 1.237 1.237 0 0 0-1.55.856Zm-24.16 29.615c-.186.67.199 1.351.856 1.55a1.263 1.263 0 0 0 1.55-.856 1.263 1.263 0 0 0-.856-1.55 1.237 1.237 0 0 0-1.55.856Zm8.938 3.371c-.186.67.198 1.352.855 1.55a1.262 1.262 0 0 0 1.55-.855 1.263 1.263 0 0 0-.856-1.55 1.237 1.237 0 0 0-1.55.855ZM19.94 14.494c-.186.67.198 1.351.855 1.55a1.262 1.262 0 0 0 1.55-.856 1.263 1.263 0 0 0-.855-1.55 1.237 1.237 0 0 0-1.55.856Zm-9.347 16.747c-.186.67.198 1.352.855 1.55a1.262 1.262 0 0 0 1.55-.855 1.262 1.262 0 0 0-.856-1.55 1.237 1.237 0 0 0-1.55.855Zm13.053-10.908c-.186.67.199 1.35.856 1.55a1.263 1.263 0 0 0 1.55-.856 1.262 1.262 0 0 0-.856-1.55 1.237 1.237 0 0 0-1.55.856Zm42.408 13.512c-.186.67.198 1.351.855 1.55a1.262 1.262 0 0 0 1.55-.856 1.262 1.262 0 0 0-.855-1.55 1.237 1.237 0 0 0-1.55.856Zm-22.35 7.19c-.186.669.198 1.35.855 1.549a1.262 1.262 0 0 0 1.55-.855 1.262 1.262 0 0 0-.856-1.55 1.248 1.248 0 0 0-1.55.855ZM29.2 31.415c-.186.67.198 1.351.855 1.55a1.262 1.262 0 0 0 1.55-.856 1.262 1.262 0 0 0-.856-1.55 1.238 1.238 0 0 0-1.55.856Zm15.644 18.706c-.186.67.198 1.351.855 1.55a1.262 1.262 0 0 0 1.55-.856 1.262 1.262 0 0 0-.855-1.55 1.238 1.238 0 0 0-1.55.856Zm18.694-24.247c-.186.67.198 1.351.855 1.55a1.263 1.263 0 0 0 1.55-.856 1.262 1.262 0 0 0-.856-1.55 1.237 1.237 0 0 0-1.55.856ZM51.476 36.25c-.186.669.199 1.35.856 1.549a1.262 1.262 0 0 0 1.55-.855 1.263 1.263 0 0 0-.856-1.55 1.257 1.257 0 0 0-1.55.855ZM40.381 20.643c-.185.67.199 1.35.856 1.55a1.262 1.262 0 0 0 1.55-.856 1.262 1.262 0 0 0-.856-1.55 1.237 1.237 0 0 0-1.55.856Zm1.971 24.817c-.186.67.199 1.351.856 1.55a1.262 1.262 0 0 0 1.55-.856 1.262 1.262 0 0 0-.856-1.55 1.263 1.263 0 0 0-1.55.856Zm-2.07-13.053c-.186.669.199 1.35.856 1.55a1.262 1.262 0 0 0 1.55-.856 1.263 1.263 0 0 0-.856-1.55 1.237 1.237 0 0 0-1.55.856ZM18.13 10.13c-.186.67.198 1.351.855 1.55a1.263 1.263 0 0 0 1.55-.855 1.262 1.262 0 0 0-.856-1.55 1.237 1.237 0 0 0-1.55.855Zm20.33 28.053c-.186.67.198 1.352.855 1.55a1.262 1.262 0 0 0 1.55-.855 1.262 1.262 0 0 0-.855-1.55 1.247 1.247 0 0 0-1.55.855ZM17.175 23.246c-.186.67.198 1.35.856 1.55a1.262 1.262 0 0 0 1.55-.856 1.262 1.262 0 0 0-.856-1.55 1.257 1.257 0 0 0-1.55.856Zm10.86 22.412c-.186.67.198 1.352.855 1.55a1.262 1.262 0 0 0 1.55-.855 1.263 1.263 0 0 0-.856-1.55 1.237 1.237 0 0 0-1.55.855Zm21.867-28.524c-.186.67.198 1.351.855 1.55a1.262 1.262 0 0 0 1.55-.856 1.263 1.263 0 0 0-.855-1.55 1.257 1.257 0 0 0-1.55.856Zm-37.487 6.322c-.186.67.199 1.352.856 1.55a1.263 1.263 0 0 0 1.55-.855 1.262 1.262 0 0 0-.856-1.55 1.257 1.257 0 0 0-1.55.855Zm2.728-8.702c-.186.67.198 1.351.855 1.55a1.262 1.262 0 0 0 1.55-.856 1.262 1.262 0 0 0-.856-1.55 1.238 1.238 0 0 0-1.55.856Zm37.982-.768c-.186.67.198 1.351.855 1.55a1.262 1.262 0 0 0 1.55-.856 1.262 1.262 0 0 0-.855-1.55 1.237 1.237 0 0 0-1.55.856ZM41.014 52.947c-.186.67.198 1.352.855 1.55a1.262 1.262 0 0 0 1.55-.855 1.262 1.262 0 0 0-.856-1.55 1.257 1.257 0 0 0-1.55.855Zm-10.513-2.9c-.186.669.199 1.35.856 1.55a1.262 1.262 0 0 0 1.55-.856 1.262 1.262 0 0 0-.856-1.55 1.243 1.243 0 0 0-1.55.856Zm3.757-39.148c-.186.67.198 1.351.855 1.55a1.263 1.263 0 0 0 1.55-.856 1.262 1.262 0 0 0-.856-1.55 1.257 1.257 0 0 0-1.55.856Zm-5.293 6.941c-.186.67.198 1.352.855 1.55a1.262 1.262 0 0 0 1.55-.855 1.262 1.262 0 0 0-.856-1.55 1.257 1.257 0 0 0-1.55.856ZM49.01 54.906c-.187.67.198 1.351.855 1.55a1.263 1.263 0 0 0 1.55-.856 1.262 1.262 0 0 0-.856-1.55 1.248 1.248 0 0 0-1.55.856Zm-17.988-.086c-.186.669.199 1.35.856 1.549a1.263 1.263 0 0 0 1.55-.856 1.262 1.262 0 0 0-.856-1.55 1.257 1.257 0 0 0-1.55.856ZM48.75 30.225c-.187.67.198 1.35.855 1.55a1.262 1.262 0 0 0 1.55-.856 1.262 1.262 0 0 0-.856-1.55 1.238 1.238 0 0 0-1.55.856ZM32.36 43.724c-.185.67.2 1.352.856 1.55a1.263 1.263 0 0 0 1.55-.855 1.262 1.262 0 0 0-.856-1.55 1.257 1.257 0 0 0-1.55.855Zm-7.598-2.912c-.186.669.198 1.35.855 1.549a1.262 1.262 0 0 0 1.55-.855 1.262 1.262 0 0 0-.856-1.55c-.669-.198-1.35.198-1.55.855Zm1.426-17.219c-.186.669.198 1.35.855 1.55a1.262 1.262 0 0 0 1.55-.856 1.263 1.263 0 0 0-.856-1.55 1.257 1.257 0 0 0-1.55.856ZM46.493 2.978c-.186.67.198 1.351.855 1.55a1.262 1.262 0 0 0 1.55-.856 1.262 1.262 0 0 0-.856-1.55 1.238 1.238 0 0 0-1.55.856Zm.173 4.847c-.186.669.199 1.35.856 1.55a1.263 1.263 0 0 0 1.55-.856 1.263 1.263 0 0 0-.856-1.55 1.247 1.247 0 0 0-1.55.856Zm14.008 14.33c-.186.67.199 1.351.856 1.55a1.262 1.262 0 0 0 1.55-.856 1.262 1.262 0 0 0-.856-1.55c-.657-.198-1.351.199-1.55.856ZM56.05 6.51c-.186.67.199 1.352.856 1.55a1.262 1.262 0 0 0 1.55-.855 1.262 1.262 0 0 0-.856-1.55 1.243 1.243 0 0 0-1.55.856Zm-6.991 43.177c-.186.67.198 1.351.855 1.55a1.262 1.262 0 0 0 1.55-.856 1.263 1.263 0 0 0-.855-1.55 1.262 1.262 0 0 0-1.55.856Zm6.93-31.982c-.186.669.198 1.35.855 1.55a1.262 1.262 0 0 0 1.55-.856 1.262 1.262 0 0 0-.856-1.55 1.238 1.238 0 0 0-1.55.856Zm-8.728 7.015c-.186.67.199 1.352.856 1.55a1.262 1.262 0 0 0 1.55-.855 1.262 1.262 0 0 0-.856-1.55c-.657-.198-1.351.199-1.55.856ZM21.105 38.06c-.186.669.198 1.35.855 1.549a1.262 1.262 0 0 0 1.55-.856 1.262 1.262 0 0 0-.855-1.55 1.238 1.238 0 0 0-1.55.856Zm31.797-5.554c-.186.67.198 1.35.855 1.55a1.263 1.263 0 0 0 1.55-.856 1.262 1.262 0 0 0-.856-1.55 1.247 1.247 0 0 0-1.55.856ZM25.964 54.038c-.186.67.199 1.352.856 1.55a1.262 1.262 0 0 0 1.55-.856 1.262 1.262 0 0 0-.856-1.55 1.257 1.257 0 0 0-1.55.856Zm-9.248-15.161c-.185.67.199 1.352.856 1.55a1.262 1.262 0 0 0 1.55-.855 1.262 1.262 0 0 0-.856-1.55 1.238 1.238 0 0 0-1.55.855Zm-4.524-1.5c-.186.67.198 1.352.855 1.55a1.262 1.262 0 0 0 1.55-.855 1.263 1.263 0 0 0-.856-1.55 1.237 1.237 0 0 0-1.55.855ZM63.08 14.308c-.187.67.198 1.351.855 1.55a1.262 1.262 0 0 0 1.549-.856 1.262 1.262 0 0 0-.855-1.55 1.243 1.243 0 0 0-1.55.856Zm-7.513 36.297c-.186.669.198 1.35.855 1.549a1.262 1.262 0 0 0 1.55-.855 1.263 1.263 0 0 0-.855-1.55 1.268 1.268 0 0 0-1.55.855ZM29.014 11.953c-.186.669.198 1.35.855 1.549a1.262 1.262 0 0 0 1.55-.855c.198-.657-.199-1.351-.856-1.55a1.238 1.238 0 0 0-1.55.856Zm35.9 6.929c-.186.67.198 1.351.855 1.55a1.262 1.262 0 0 0 1.55-.856 1.262 1.262 0 0 0-.856-1.55 1.237 1.237 0 0 0-1.55.856ZM35.56 51.56c-.187.668.198 1.35.855 1.549a1.262 1.262 0 0 0 1.55-.856 1.262 1.262 0 0 0-.856-1.55 1.238 1.238 0 0 0-1.55.856Zm-.224 4.573c-.186.67.198 1.351.855 1.55a1.263 1.263 0 0 0 1.55-.855 1.262 1.262 0 0 0-.856-1.55 1.237 1.237 0 0 0-1.55.855Zm9.669-.211c-.186.67.199 1.352.856 1.55a1.262 1.262 0 0 0 1.55-.855 1.263 1.263 0 0 0-.856-1.55 1.247 1.247 0 0 0-1.55.855Z" fill="#E1C44E"/>
  <path d="M92.372 16.7h-8.615v10.34H101v-1.723c-.012-4.76-3.867-8.616-8.628-8.616Z" fill="#fff" stroke="#333" stroke-width="1.111" stroke-miterlimit="10"/>
  <path d="M88.914 27.039h12.061v-1.723A8.613 8.613 0 0 0 92.36 16.7h-8.615" fill="#fff"/>
  <path d="M88.914 27.039h12.061v-1.723A8.613 8.613 0 0 0 92.36 16.7h-8.615" stroke="#333" stroke-width="1.111" stroke-miterlimit="10"/>
  <path d="M30.304 25.316a8.613 8.613 0 0 1 8.615-8.616H92.36a8.613 8.613 0 0 0-8.615 8.616v62.056a8.613 8.613 0 0 1-8.616 8.616H30.304V25.316Z" fill="#fff" stroke="#333" stroke-width="1.111" stroke-miterlimit="10"/>
  <path d="M30.304 30.485v-5.17a8.613 8.613 0 0 1 8.615-8.615H92.36a8.613 8.613 0 0 0-8.615 8.616v62.056a8.613 8.613 0 0 1-8.616 8.616H30.304V77.034" fill="#fff"/>
  <path d="M30.304 30.485v-5.17a8.613 8.613 0 0 1 8.615-8.615H92.36a8.613 8.613 0 0 0-8.615 8.616v62.056a8.613 8.613 0 0 1-8.616 8.616H30.304V77.034" stroke="#333" stroke-width="1.111" stroke-miterlimit="10"/>
  <path d="M19.965 87.385A8.613 8.613 0 0 0 28.581 96h46.548a8.613 8.613 0 0 1-8.616-8.615H19.965Z" fill="#fff" stroke="#333" stroke-width="1.111" stroke-miterlimit="10"/>
  <path d="M64.79 40.836v10.339m-5.181-5.169h10.35m-5.169-5.17v10.339m-5.181-5.169h10.35m24.136 5.169v10.35m-5.181-5.181h10.35m-5.169-5.169v10.35m-5.181-5.181h10.35m-27.581 6.905v10.338m-5.17-5.169h10.339m-5.169-5.169v10.338m-5.17-5.169h10.339" stroke="#F26839" stroke-width="1.111" stroke-miterlimit="10"/>
  <path d="M37.146 42.782a23.328 23.328 0 0 1-1.45 5.021c-1.054-4.178-1.413-7.773-6.384-11.38a34.604 34.604 0 0 0-5.814-2.839c-8.008-3-15.36-5.057-21.111-11.714C.465 26.655.7 32.655 2.114 38.568c1.884 5.752 5.256 7.252 8.963 9.582a24.487 24.487 0 0 1-5.827-.372c1.562 3.52 3.41 6.719 5.269 9.21 5.554 7.03 10.376 7.042 16.103 7.972a28.371 28.371 0 0 1-4.5 2.07c5.033 2.963 19.636 6.062 25.685 7.177.037.062.037.062 0 0 2.12-7.028-2.839-23.131-10.66-31.425Z" fill="#F26839"/>
  <path d="M47.807 74.207c-6.05-1.115-20.652-4.214-25.685-7.177a28.371 28.371 0 0 0 4.5-2.07c-5.727-.93-10.55-.943-16.103-7.971-1.86-2.492-3.707-5.69-5.269-9.21a24.56 24.56 0 0 0 5.827.371c-3.707-2.33-7.079-3.83-8.963-9.582C.701 32.655.465 26.655 2.387 21.87c5.752 6.657 13.103 8.714 21.11 11.714a34.604 34.604 0 0 1 5.815 2.84c4.97 3.606 5.33 7.201 6.384 11.379a23.328 23.328 0 0 0 1.45-5.02c7.822 8.293 12.781 24.395 10.661 31.424Zm0 0c.037.062.037.062 0 0ZM14.796 40.836 54.439 80.48" stroke="#333" stroke-width="1.111" stroke-miterlimit="10"/>
</svg>
