<svg width="18" height="15" viewBox="0 0 18 15" fill="none" xmlns="http://www.w3.org/2000/svg">
<path d="M6.9622 8.54796V14.6864H0.671143V9.84026C0.671143 7.2165 1.01883 5.31721 1.71422 4.14239C2.62691 2.57596 4.07201 1.39135 6.0495 0.588562L7.48373 2.6445C6.28854 3.09484 5.40845 3.77036 4.84345 4.67106C4.27845 5.55217 3.96335 6.84447 3.89816 8.54796H6.9622ZM17.067 8.54796V14.6864H10.7759V9.84026C10.7759 7.2165 11.1236 5.31721 11.819 4.14239C12.7317 2.57596 14.1768 1.39135 16.1543 0.588562L17.5885 2.6445C16.3933 3.09484 15.5132 3.77036 14.9482 4.67106C14.3832 5.55217 14.0682 6.84447 14.003 8.54796H17.067Z" fill="#F26839"/>
</svg>
