<svg width="24" height="20" viewBox="0 0 24 20" fill="none" xmlns="http://www.w3.org/2000/svg">
<path d="M8.92486 11.2917V20H0V13.125C0 9.40278 0.493256 6.70833 1.47977 5.04167C2.77457 2.81944 4.82466 1.13889 7.63006 0L9.66474 2.91667C7.96917 3.55556 6.72062 4.51389 5.91908 5.79167C5.11753 7.04167 4.67052 8.875 4.57803 11.2917H8.92486ZM23.2601 11.2917V20H14.3353V13.125C14.3353 9.40278 14.8285 6.70833 15.815 5.04167C17.1098 2.81944 19.1599 1.13889 21.9653 0L24 2.91667C22.3044 3.55556 21.0559 4.51389 20.2543 5.79167C19.4528 7.04167 19.0058 8.875 18.9133 11.2917H23.2601Z" fill="#F26839"/>
</svg>
