<svg viewBox="25 10 41 43" fill="none" xmlns="http://www.w3.org/2000/svg">
  <g filter="url(#a)">
    <circle cx="45.666" cy="33" r="20" stroke="#F2EAE0" stroke-width="2"/>
    <mask id="b" style="mask-type:luminance" maskUnits="userSpaceOnUse" x="37" y="24" width="18" height="18">
      <path d="M54.93 24.007H37V42h17.93V24.007Z" fill="#fff"/>
    </mask>
    <g fill="#333" mask="url(#b)">
      <path fill-rule="evenodd" clip-rule="evenodd" d="M39.686 24.007H52.37c.437 0 .812.187 1.062.437.313.313.438.687.438 1.125v7.997h-.625v-7.997c0-.25-.125-.438-.25-.625s-.375-.25-.625-.25H39.686c-.124 0-.25 0-.312.063-.062.062-.25.062-.312.187-.125.063-.188.187-.25.25 0 .125-.063.25-.063.375v7.997h-.625v-7.997c0-.188.063-.438.125-.625a.971.971 0 0 1 .375-.5c.125-.125.25-.25.438-.312.25-.125.437-.125.624-.125Z"/>
      <path d="M48.62 33.44c.25 0 .563-.062.813-.124.25-.125.5-.25.687-.437a2.8 2.8 0 0 0 .5-.688c.125-.25.187-.5.187-.812 0-.562-.25-1.062-.687-1.437a2.238 2.238 0 0 0-1.5-.562c-.562 0-1.124.187-1.499.562-.437.375-.625.937-.687 1.5 0 .562.25 1.062.687 1.437.437.374.937.562 1.5.562Zm5.561-.936c-1.937 1.374-4.248 1.999-6.622 1.749-.688 0-1.375-.063-1.375 1v.124c1.062.688 2 .688 2.749-.5.5-.75 1.125-.5.75.5-.188.563-.563 1-1.062 1.375-.5.312-1.062.5-1.625.5-.25 0-.562-.063-.812-.063v3c0 .249 0 .499.125.749.063.25.25.437.437.625.188.187.375.312.625.437.25.062.5.125.75.125 2.124 0 3.249-1.937 3.249-4.061a7.17 7.17 0 0 0-.375-2.312 9.162 9.162 0 0 0 3.81-2.561c.313-.563-.062-1.062-.624-.688Z"/>
      <path fill-rule="evenodd" clip-rule="evenodd" d="M45.747 31.316c0 .313-.063.563-.188.813s-.25.5-.5.687c-.187.187-.437.312-.687.437-.25.125-.562.125-.812.125s-.562-.062-.812-.125c-.25-.125-.5-.25-.687-.437a2.775 2.775 0 0 1-.5-.687 1.73 1.73 0 0 1-.188-.813c0-.5.25-1.062.625-1.437a2.239 2.239 0 0 1 1.5-.562c.562 0 1.124.188 1.499.562.437.375.687.875.75 1.437Zm-1.562 2.937a9.958 9.958 0 0 1-6.498-1.75c-.562-.374-.937.125-.562.625a8.592 8.592 0 0 0 3.749 2.562C39.624 40 41.936 42 43.747 42c.25 0 .5 0 .75-.125.25-.063.438-.25.625-.438.187-.187.312-.374.437-.624.063-.25.125-.5.125-.75v-3.436c.438.125.875.187 1.312.25a2.513 2.513 0 0 0 1.625-.375c.5-.313.874-.75 1.124-1.25.375-.874-.25-1.124-.75-.437-.937 1.312-2.186 1.062-3.436-.187-.312-.375-.5-.438-1.374-.375Z"/>
    </g>
  </g>
  <defs>
    <filter id="a" x=".667" y="0" width="90" height="90" filterUnits="userSpaceOnUse" color-interpolation-filters="sRGB">
      <feFlood flood-opacity="0" result="BackgroundImageFix"/>
      <feColorMatrix in="SourceAlpha" values="0 0 0 0 0 0 0 0 0 0 0 0 0 0 0 0 0 0 127 0" result="hardAlpha"/>
      <feOffset dy="12"/>
      <feGaussianBlur stdDeviation="12"/>
      <feColorMatrix values="0 0 0 0 0 0 0 0 0 0 0 0 0 0 0 0 0 0 0.1 0"/>
      <feBlend in2="BackgroundImageFix" result="effect1_dropShadow_0_42"/>
      <feBlend in="SourceGraphic" in2="effect1_dropShadow_0_42" result="shape"/>
    </filter>
  </defs>
</svg>
