<svg class="hidden col-span-1 row-start-3 md:block lg:row-start-1 lg:row-span-1" width="93" height="90" fill="none" xmlns="http://www.w3.org/2000/svg">
  <path d="m52.607 1.594 9.637 9.637-23.042 23.042 9.038 9.039 9.027-9.027 11.092 11.093 14.004-14.016L92 41V1.594H52.607Z" fill="#F26839" stroke="#333" stroke-width="1.69" stroke-miterlimit="10"/>
  <path d="m55.6 45.784-6.183 6.184 6.184 6.183 6.183-6.183-6.183-6.184Zm-22.348-5.262-6.075 6.075 6.075 6.076 6.076-6.076-6.076-6.075ZM43.97 57.716l-6.076 6.076 6.076 6.075 6.075-6.075-6.075-6.076ZM29.461 73.63l-6.075 6.075 6.075 6.075 6.076-6.075-6.076-6.076Zm-5.579-16.873-6.009 6.01 6.01 6.009 6.009-6.01-6.01-6.009ZM8.01 65.758 2 71.768l6.01 6.009 6.008-6.01-6.009-6.009Z" fill="#E2C64F" stroke="#333" stroke-width="1.69" stroke-miterlimit="10"/>
  <path d="M75.144 56.552 58.969 72.728M54.908 76.8l-2.29 2.278m-2.57 2.57-2.289 2.29M45.2 86.496l-2.289 2.29M33.99 20.305 17.815 36.48" stroke="#333" stroke-width="1.69" stroke-miterlimit="10"/>
</svg>
