<?xml version="1.0" encoding="UTF-8"?>
<svg preserveAspectRatio="xMidYMid slice" xmlns="http://www.w3.org/2000/svg" width="120px" height="118px" viewBox="0 0 91 90" fill="none">
  <g id="Slide Share" filter="url(#filter0_d_0_42)">
    <circle id="Oval" cx="45.6665" cy="33" r="20" stroke="#F2EAE0" stroke-width="2"></circle>
    <g id="icon">
      <mask id="mask0_0_42" style="mask-type:luminance" maskUnits="userSpaceOnUse" x="37" y="24" width="18" height="18">
        <g id="SVGID_00000120555745645305838000000005071327724616362373_">
          <path id="Vector" d="M54.9307 24.0068H37V42H54.9307V24.0068Z" fill="white"></path>
        </g>
      </mask>
      <g mask="url(#mask0_0_42)">
        <g id="Group">
          <path id="Vector_2" fill-rule="evenodd" clip-rule="evenodd" d="M39.6864 24.0068H52.3691C52.8064 24.0068 53.1813 24.1943 53.4312 24.4442C53.7436 24.7566 53.8685 25.1314 53.8685 25.5687V33.5657H53.2438V25.5687C53.2438 25.3188 53.1188 25.1314 52.9939 24.944C52.8689 24.7566 52.619 24.6941 52.3691 24.6941H39.6864C39.5615 24.6941 39.4365 24.6941 39.374 24.7566C39.3116 24.819 39.1241 24.819 39.0617 24.944C38.9367 25.0065 38.8742 25.1314 38.8118 25.1939C38.8118 25.3188 38.7493 25.4438 38.7493 25.5687V33.5657H38.1245V25.5687C38.1245 25.3813 38.187 25.1314 38.2495 24.944C38.3119 24.7566 38.4369 24.5691 38.6243 24.4442C38.7493 24.3192 38.8742 24.1943 39.0617 24.1318C39.3116 24.0068 39.499 24.0068 39.6864 24.0068Z" fill="#333333"></path>
          <path id="Vector_3" d="M48.6205 33.4408C48.8704 33.4408 49.1828 33.3784 49.4327 33.3159C49.6826 33.1909 49.9325 33.066 50.1199 32.8786C50.3074 32.6911 50.4948 32.4412 50.6197 32.1913C50.7447 31.9414 50.8072 31.6915 50.8072 31.3791C50.8072 30.8168 50.5573 30.317 50.1199 29.9422C49.6826 29.5673 49.1828 29.3799 48.6205 29.3799C48.0582 29.3799 47.4959 29.5673 47.1211 29.9422C46.6837 30.317 46.4963 30.8793 46.4338 31.4416C46.4338 32.0039 46.6837 32.5037 47.1211 32.8786C47.5584 33.2534 48.0582 33.4408 48.6205 33.4408Z" fill="#333333"></path>
          <path id="Vector_4" d="M54.181 32.5035C52.2443 33.878 49.9327 34.5028 47.5586 34.2529C46.8713 34.2529 46.1841 34.1904 46.1841 35.2525V35.3774C47.2462 36.0647 48.1833 36.0647 48.933 34.8776C49.4328 34.1279 50.0576 34.3778 49.6828 35.3774C49.4953 35.9397 49.1205 36.377 48.6207 36.7519C48.1208 37.0643 47.5586 37.2517 46.9963 37.2517C46.7464 37.2517 46.434 37.1892 46.1841 37.1892C46.1841 38.3138 46.1841 39.5633 46.1841 40.1881C46.1841 40.438 46.1841 40.6879 46.309 40.9378C46.3715 41.1877 46.5589 41.3752 46.7464 41.5626C46.9338 41.75 47.1212 41.875 47.3711 41.9999C47.621 42.0624 47.8709 42.1249 48.1208 42.1249C50.245 42.1249 51.3696 40.1881 51.3696 38.0639C51.3696 37.2517 51.2447 36.502 50.9948 35.7523C52.4317 35.2525 53.7437 34.3778 54.8058 33.1908C55.1182 32.6285 54.7433 32.1287 54.181 32.5035Z" fill="#333333"></path>
          <path id="Vector_5" fill-rule="evenodd" clip-rule="evenodd" d="M45.7467 31.3164C45.7467 31.6288 45.6843 31.8787 45.5593 32.1286C45.4344 32.3785 45.3094 32.6284 45.0595 32.8158C44.8721 33.0032 44.6222 33.1282 44.3723 33.2531C44.1224 33.3781 43.81 33.3781 43.5601 33.3781C43.3102 33.3781 42.9978 33.3156 42.7479 33.2531C42.498 33.1282 42.2481 33.0032 42.0606 32.8158C41.8732 32.6284 41.6858 32.3785 41.5608 32.1286C41.4359 31.8787 41.3734 31.6288 41.3734 31.3164C41.3734 30.8166 41.6233 30.2543 41.9982 29.8794C42.4355 29.5046 42.9353 29.3171 43.4976 29.3171C44.0599 29.3171 44.6222 29.5046 44.997 29.8794C45.4344 30.2543 45.6843 30.7541 45.7467 31.3164ZM44.1848 34.2528C41.8732 34.4402 39.5616 33.8154 37.6873 32.5034C37.125 32.1286 36.7502 32.6284 37.125 33.1282C38.1246 34.3152 39.4366 35.1899 40.8736 35.6897C39.6241 40.0006 41.9357 41.9998 43.7475 41.9998C43.9974 41.9998 44.2473 41.9998 44.4972 41.8749C44.7471 41.8124 44.9345 41.625 45.122 41.4375C45.3094 41.2501 45.4344 41.0627 45.5593 40.8128C45.6218 40.5629 45.6843 40.313 45.6843 40.0631C45.6843 38.7511 45.6843 36.6269 45.6843 36.6269C46.1216 36.7518 46.5589 36.8143 46.9963 36.8768C47.5586 36.9392 48.1208 36.8143 48.6206 36.5019C49.1205 36.1895 49.4953 35.7522 49.7452 35.2524C50.1201 34.3777 49.4953 34.1278 48.9955 34.8151C48.0584 36.1271 46.8088 35.8771 45.5593 34.6276C45.2469 34.2528 45.0595 34.1903 44.1848 34.2528Z" fill="#333333"></path>
        </g>
      </g>
    </g>
  </g>
  <defs>
    <filter id="filter0_d_0_42" x="0.666504" y="0" width="90" height="90" filterUnits="userSpaceOnUse" color-interpolation-filters="sRGB">
      <feFlood flood-opacity="0" result="BackgroundImageFix"></feFlood>
      <feColorMatrix in="SourceAlpha" type="matrix" values="0 0 0 0 0 0 0 0 0 0 0 0 0 0 0 0 0 0 127 0" result="hardAlpha"></feColorMatrix>
      <feOffset dy="12"></feOffset>
      <feGaussianBlur stdDeviation="12"></feGaussianBlur>
      <feColorMatrix type="matrix" values="0 0 0 0 0 0 0 0 0 0 0 0 0 0 0 0 0 0 0.1 0"></feColorMatrix>
      <feBlend mode="normal" in2="BackgroundImageFix" result="effect1_dropShadow_0_42"></feBlend>
      <feBlend mode="normal" in="SourceGraphic" in2="effect1_dropShadow_0_42" result="shape"></feBlend>
    </filter>
  </defs>
</svg>
