<?xml version="1.0" encoding="UTF-8"?>
<svg preserveAspectRatio="xMidYMid slice" xmlns="http://www.w3.org/2000/svg" width="120px" height="114px" viewBox="0 0 102 97" fill="none">
  <path d="M22.3446 33.1876C22.1587 33.857 22.5429 34.5388 23.1999 34.7371C23.8694 34.9231 24.5512 34.5388 24.7495 33.8818C24.9354 33.2124 24.5512 32.5306 23.8941 32.3322C23.2247 32.1339 22.5429 32.5182 22.3446 33.1876Z" fill="#E1C44E"></path>
  <path d="M52.009 8.51907C51.823 9.18848 52.2073 9.87028 52.8643 10.0686C53.5337 10.2546 54.2155 9.87028 54.4139 9.21327C54.5998 8.54387 54.2155 7.86207 53.5585 7.66372C52.8891 7.46538 52.1949 7.84967 52.009 8.51907Z" fill="#E1C44E"></path>
  <path d="M19.3203 18.8326C19.1343 19.502 19.5186 20.1838 20.1756 20.3822C20.845 20.5681 21.5268 20.1838 21.7252 19.5268C21.9111 18.8574 21.5268 18.1756 20.8698 17.9773C20.2004 17.7913 19.5062 18.1756 19.3203 18.8326Z" fill="#E1C44E"></path>
  <path d="M42.3898 36.6339C42.2039 37.3033 42.5882 37.9851 43.2452 38.1835C43.9146 38.3694 44.5964 37.9851 44.7947 37.3281C44.9807 36.6587 44.5964 35.9769 43.9394 35.7786C43.27 35.5803 42.5758 35.9645 42.3898 36.6339Z" fill="#E1C44E"></path>
  <path d="M57.9472 26.0224C57.7613 26.6918 58.1456 27.3736 58.8026 27.572C59.472 27.7579 60.1538 27.3736 60.3521 26.7166C60.5381 26.0472 60.1538 25.3654 59.4968 25.1671C58.8274 24.9811 58.1332 25.3654 57.9472 26.0224Z" fill="#E1C44E"></path>
  <path d="M56.7196 12.1137C56.5337 12.7831 56.9179 13.4649 57.5749 13.6633C58.2443 13.8492 58.9261 13.4649 59.1245 12.8079C59.3104 12.1385 58.9262 11.4567 58.2691 11.2584C57.5997 11.06 56.9179 11.4443 56.7196 12.1137Z" fill="#E1C44E"></path>
  <path d="M44.0386 12.1385C43.8527 12.8079 44.237 13.4897 44.894 13.6881C45.5634 13.874 46.2452 13.4897 46.4435 12.8327C46.6295 12.1633 46.2452 11.4815 45.5882 11.2832C44.9188 11.0972 44.2246 11.4815 44.0386 12.1385Z" fill="#E1C44E"></path>
  <path d="M34.2577 39.5594C34.0717 40.2288 34.456 40.9106 35.113 41.1089C35.7824 41.2949 36.4642 40.9106 36.6626 40.2536C36.8485 39.5841 36.4642 38.9023 35.8072 38.704C35.1378 38.5057 34.456 38.89 34.2577 39.5594Z" fill="#E1C44E"></path>
  <path d="M51.2903 45.8938C51.1043 46.5632 51.4886 47.245 52.1456 47.4433C52.815 47.6293 53.4968 47.245 53.6952 46.588C53.8811 45.9186 53.4969 45.2368 52.8398 45.0384C52.1704 44.8525 51.4762 45.2368 51.2903 45.8938Z" fill="#E1C44E"></path>
  <path d="M31.9642 2.10983C31.7783 2.77924 32.1626 3.46104 32.8196 3.65938C33.489 3.84533 34.1708 3.46104 34.3691 2.80403C34.5551 2.13463 34.1708 1.45282 33.5138 1.25448C32.8444 1.05614 32.1502 1.44043 31.9642 2.10983Z" fill="#E1C44E"></path>
  <path d="M38.1871 42.9435C38.0012 43.6129 38.3854 44.2947 39.0425 44.4931C39.7119 44.679 40.3937 44.2947 40.592 43.6377C40.7779 42.9683 40.3937 42.2865 39.7367 42.0882C39.0796 41.8898 38.3854 42.2741 38.1871 42.9435Z" fill="#E1C44E"></path>
  <path d="M30.8609 35.642C30.675 36.3114 31.0593 36.9932 31.7163 37.1916C32.3857 37.3775 33.0675 36.9932 33.2658 36.3362C33.4518 35.6668 33.0675 34.985 32.4105 34.7867C31.7411 34.6007 31.0593 34.985 30.8609 35.642Z" fill="#E1C44E"></path>
  <path d="M26.8324 7.81223C26.6465 8.48163 27.0308 9.16343 27.6878 9.36177C28.3572 9.54772 29.039 9.16343 29.2373 8.50642C29.4233 7.83702 29.039 7.15522 28.382 6.95688C27.7126 6.75853 27.0184 7.14282 26.8324 7.81223Z" fill="#E1C44E"></path>
  <path d="M14.0764 19.2045C13.8904 19.8739 14.2747 20.5557 14.9317 20.754C15.6011 20.9399 16.2829 20.5557 16.4813 19.8986C16.6672 19.2292 16.2829 18.5474 15.6259 18.3491C14.9565 18.1632 14.2623 18.5474 14.0764 19.2045Z" fill="#E1C44E"></path>
  <path d="M18.0679 33.8448C17.882 34.5142 18.2663 35.196 18.9233 35.3944C19.5927 35.5803 20.2745 35.196 20.4728 34.539C20.6588 33.8696 20.2745 33.1878 19.6175 32.9895C18.9481 32.7911 18.2663 33.1754 18.0679 33.8448Z" fill="#E1C44E"></path>
  <path d="M32.1256 26.5678C31.9396 27.2372 32.3239 27.919 32.9809 28.1174C33.6503 28.3033 34.3321 27.919 34.5305 27.262C34.7164 26.5926 34.3321 25.9108 33.6751 25.7125C33.0057 25.5141 32.3115 25.8984 32.1256 26.5678Z" fill="#E1C44E"></path>
  <path d="M57.1912 36.547C57.0052 37.2164 57.3895 37.8982 58.0465 38.0965C58.7159 38.2825 59.3977 37.8982 59.5961 37.2412C59.782 36.5718 59.3977 35.89 58.7407 35.6916C58.0713 35.4933 57.3895 35.8776 57.1912 36.547Z" fill="#E1C44E"></path>
  <path d="M35.6959 23.7539C35.5099 24.4233 35.8942 25.1051 36.5512 25.3034C37.2206 25.4894 37.9024 25.1051 38.1008 24.4481C38.2867 23.7787 37.9024 23.0969 37.2454 22.8985C36.5884 22.7002 35.8942 23.0845 35.6959 23.7539Z" fill="#E1C44E"></path>
  <path d="M21.0928 24.9441C20.9069 25.6135 21.2912 26.2953 21.9482 26.4936C22.6176 26.6796 23.2994 26.2953 23.4977 25.6383C23.6837 24.9689 23.2994 24.2871 22.6424 24.0887C21.973 23.8904 21.2912 24.2871 21.0928 24.9441Z" fill="#E1C44E"></path>
  <path d="M51.9226 26.3571C51.7367 27.0265 52.121 27.7083 52.778 27.9066C53.4474 28.0926 54.1292 27.7083 54.3275 27.0513C54.5135 26.3819 54.1292 25.7001 53.4722 25.5018C52.8152 25.3158 52.121 25.7001 51.9226 26.3571Z" fill="#E1C44E"></path>
  <path d="M60.104 10.0685C59.9181 10.7379 60.3024 11.4197 60.9594 11.6181C61.6288 11.804 62.3106 11.4197 62.5089 10.7627C62.6949 10.0933 62.3106 9.4115 61.6536 9.21316C60.9842 9.01482 60.29 9.39911 60.104 10.0685Z" fill="#E1C44E"></path>
  <path d="M51.2159 4.14291C51.0299 4.81232 51.4142 5.49412 52.0712 5.69246C52.7406 5.8784 53.4224 5.49412 53.6208 4.83711C53.8067 4.16771 53.4224 3.48591 52.7654 3.28756C52.096 3.08922 51.4018 3.47351 51.2159 4.14291Z" fill="#E1C44E"></path>
  <path d="M25.1214 15.8698C24.9355 16.5392 25.3198 17.221 25.9768 17.4194C26.6462 17.6053 27.328 17.221 27.5263 16.564C27.7123 15.8946 27.328 15.2128 26.671 15.0145C26.0016 14.8162 25.3074 15.2004 25.1214 15.8698Z" fill="#E1C44E"></path>
  <path d="M66.7235 23.2582C66.5375 23.9276 66.9218 24.6094 67.5788 24.8077C68.2482 24.9936 68.93 24.6094 69.1284 23.9523C69.3143 23.2829 68.93 22.6011 68.273 22.4028C67.6036 22.2045 66.9094 22.5887 66.7235 23.2582Z" fill="#E1C44E"></path>
  <path d="M39.8359 57.0384C39.65 57.7078 40.0342 58.3896 40.6913 58.588C41.3607 58.7739 42.0425 58.3896 42.2408 57.7326C42.4267 57.0632 42.0425 56.3814 41.3854 56.1831C40.716 55.9847 40.0218 56.3814 39.8359 57.0384Z" fill="#E1C44E"></path>
  <path d="M44.8937 16.3161C44.7078 16.9855 45.0921 17.6673 45.7491 17.8657C46.4185 18.0516 47.1003 17.6673 47.2986 17.0103C47.4846 16.3409 47.1003 15.6591 46.4433 15.4608C45.7739 15.2624 45.0797 15.6467 44.8937 16.3161Z" fill="#E1C44E"></path>
  <path d="M31.7784 6.74618C31.5924 7.41559 31.9767 8.09739 32.6337 8.29573C33.3031 8.48168 33.9849 8.09739 34.1833 7.44038C34.3692 6.77098 33.9849 6.08918 33.3279 5.89084C32.6585 5.69249 31.9767 6.07678 31.7784 6.74618Z" fill="#E1C44E"></path>
  <path d="M19.9895 42.956C19.8036 43.6254 20.1879 44.3072 20.8449 44.5055C21.5143 44.6915 22.1961 44.3072 22.3944 43.6502C22.5804 42.9808 22.1961 42.299 21.5391 42.1006C20.8697 41.9023 20.1755 42.2866 19.9895 42.956Z" fill="#E1C44E"></path>
  <path d="M34.8031 30.1629C34.6172 30.8323 35.0015 31.5141 35.6585 31.7125C36.3279 31.8984 37.0097 31.5141 37.208 30.8571C37.394 30.1877 37.0097 29.5059 36.3527 29.3076C35.6833 29.1092 34.9891 29.4935 34.8031 30.1629Z" fill="#E1C44E"></path>
  <path d="M27.6877 27.4603C27.5017 28.1297 27.886 28.8115 28.543 29.0098C29.2124 29.1958 29.8942 28.8115 30.0926 28.1545C30.2785 27.4851 29.8942 26.8033 29.2372 26.6049C28.5678 26.4066 27.8736 26.7909 27.6877 27.4603Z" fill="#E1C44E"></path>
  <path d="M23.5593 11.5682C23.3734 12.2376 23.7577 12.9194 24.4147 13.1178C25.0841 13.3037 25.7659 12.9194 25.9642 12.2624C26.1502 11.593 25.7659 10.9112 25.1089 10.7129C24.4395 10.5145 23.7577 10.8988 23.5593 11.5682Z" fill="#E1C44E"></path>
  <path d="M67.3563 29.2702C67.1703 29.9396 67.5546 30.6214 68.2116 30.8198C68.881 31.0057 69.5628 30.6214 69.7612 29.9644C69.9471 29.295 69.5628 28.6132 68.9058 28.4149C68.2364 28.2165 67.5546 28.6008 67.3563 29.2702Z" fill="#E1C44E"></path>
  <path d="M59.2359 48.2616C59.05 48.931 59.4343 49.6128 60.0913 49.8112C60.7607 49.9971 61.4425 49.6128 61.6408 48.9558C61.8268 48.2864 61.4425 47.6046 60.7855 47.4063C60.1161 47.2079 59.4219 47.5922 59.2359 48.2616Z" fill="#E1C44E"></path>
  <path d="M55.7775 29.5433C55.5916 30.2127 55.9759 30.8945 56.6329 31.0928C57.3023 31.2788 57.9841 30.8945 58.1824 30.2375C58.3684 29.5681 57.9841 28.8863 57.3271 28.688C56.6577 28.4896 55.9635 28.8739 55.7775 29.5433Z" fill="#E1C44E"></path>
  <path d="M39.5016 16.7128C39.3156 17.3822 39.6999 18.064 40.3569 18.2623C41.0263 18.4483 41.7081 18.064 41.9065 17.407C42.0924 16.7376 41.7081 16.0558 41.0511 15.8574C40.3817 15.6591 39.6875 16.0434 39.5016 16.7128Z" fill="#E1C44E"></path>
  <path d="M38.9432 28.0926C38.7572 28.762 39.1415 29.4438 39.7985 29.6422C40.4679 29.8281 41.1497 29.4438 41.3481 28.7868C41.534 28.1174 41.1497 27.4356 40.4927 27.2373C39.8233 27.0389 39.1291 27.4232 38.9432 28.0926Z" fill="#E1C44E"></path>
  <path d="M60.0793 17.3327C59.8934 18.0021 60.2776 18.6839 60.9347 18.8822C61.6041 19.0682 62.2859 18.6839 62.4842 18.0269C62.6701 17.3575 62.2859 16.6757 61.6288 16.4773C60.9718 16.279 60.2776 16.6633 60.0793 17.3327Z" fill="#E1C44E"></path>
  <path d="M55.4555 22.254C55.2696 22.9234 55.6539 23.6052 56.3109 23.8035C56.9803 23.9895 57.6621 23.6052 57.8604 22.9482C58.0464 22.2788 57.6621 21.597 57.0051 21.3986C56.3357 21.2003 55.6539 21.5846 55.4555 22.254Z" fill="#E1C44E"></path>
  <path d="M50.6827 41.0594C50.4967 41.7288 50.881 42.4106 51.538 42.609C52.2074 42.7949 52.8892 42.4106 53.0876 41.7536C53.2735 41.0842 52.8892 40.4024 52.2322 40.2041C51.5628 40.0057 50.8686 40.39 50.6827 41.0594Z" fill="#E1C44E"></path>
  <path d="M45.7368 20.5556C45.5508 21.225 45.9351 21.9068 46.5921 22.1052C47.2615 22.2911 47.9433 21.9068 48.1417 21.2498C48.3276 20.5804 47.9433 19.8986 47.2863 19.7003C46.6169 19.5019 45.9227 19.8862 45.7368 20.5556Z" fill="#E1C44E"></path>
  <path d="M55.5793 45.5468C55.3933 46.2162 55.7776 46.898 56.4346 47.0963C57.104 47.2823 57.7858 46.898 57.9842 46.241C58.1701 45.5716 57.7858 44.8898 57.1288 44.6914C56.4594 44.4931 55.7652 44.8774 55.5793 45.5468Z" fill="#E1C44E"></path>
  <path d="M32.7947 14.9897C32.6088 15.6591 32.993 16.3409 33.6501 16.5393C34.3195 16.7252 35.0013 16.3409 35.1996 15.6839C35.3855 15.0145 35.0013 14.3327 34.3442 14.1344C33.6748 13.936 32.9806 14.3203 32.7947 14.9897Z" fill="#E1C44E"></path>
  <path d="M22.1217 6.69658C21.9358 7.36599 22.3201 8.04779 22.9771 8.24613C23.6465 8.43208 24.3283 8.04779 24.5266 7.39078C24.7126 6.72138 24.3283 6.03958 23.6713 5.84123C23.0019 5.64289 22.3077 6.03958 22.1217 6.69658Z" fill="#E1C44E"></path>
  <path d="M20.8447 50.4061C20.6588 51.0755 21.0431 51.7573 21.7001 51.9556C22.3695 52.1416 23.0513 51.7573 23.2496 51.1003C23.4356 50.4309 23.0513 49.7491 22.3943 49.5507C21.7249 49.3524 21.0431 49.7367 20.8447 50.4061Z" fill="#E1C44E"></path>
  <path d="M59.4717 32.9767C59.2857 33.6461 59.67 34.3279 60.327 34.5262C60.9964 34.7122 61.6782 34.3279 61.8766 33.6709C62.0625 33.0015 61.6782 32.3197 61.0212 32.1213C60.3518 31.923 59.6576 32.3197 59.4717 32.9767Z" fill="#E1C44E"></path>
  <path d="M47.0013 44.5426C46.8154 45.212 47.1997 45.8938 47.8567 46.0921C48.5261 46.2781 49.2079 45.8938 49.4062 45.2368C49.5922 44.5674 49.2079 43.8856 48.5509 43.6872C47.8814 43.5013 47.1873 43.8856 47.0013 44.5426Z" fill="#E1C44E"></path>
  <path d="M25.6545 50.1334C25.4686 50.8028 25.8528 51.4846 26.5098 51.683C27.1793 51.8689 27.8611 51.4846 28.0594 50.8276C28.2453 50.1582 27.8611 49.4764 27.204 49.2781C26.5346 49.0921 25.8404 49.4764 25.6545 50.1334Z" fill="#E1C44E"></path>
  <path d="M62.0127 29.8407C61.8268 30.5101 62.2111 31.1919 62.8681 31.3902C63.5375 31.5762 64.2193 31.1919 64.4176 30.5349C64.6036 29.8655 64.2193 29.1837 63.5623 28.9853C62.8929 28.7994 62.2111 29.1837 62.0127 29.8407Z" fill="#E1C44E"></path>
  <path d="M30.9353 21.7334C30.7494 22.4028 31.1337 23.0846 31.7907 23.283C32.4601 23.4689 33.1419 23.0846 33.3402 22.4276C33.5262 21.7582 33.1419 21.0764 32.4849 20.8781C31.8155 20.6921 31.1213 21.0764 30.9353 21.7334Z" fill="#E1C44E"></path>
  <path d="M41.0137 8.82878C40.8278 9.49818 41.2121 10.18 41.8691 10.3783C42.5385 10.5643 43.2203 10.18 43.4186 9.52298C43.6046 8.85357 43.2203 8.17177 42.5633 7.97343C41.8939 7.78748 41.2121 8.17177 41.0137 8.82878Z" fill="#E1C44E"></path>
  <path d="M64.7402 39.8321C64.5543 40.5015 64.9386 41.1833 65.5956 41.3817C66.265 41.5676 66.9468 41.1833 67.1451 40.5263C67.3311 39.8569 66.9468 39.1751 66.2898 38.9768C65.6204 38.7784 64.9262 39.1627 64.7402 39.8321Z" fill="#E1C44E"></path>
  <path d="M39.5262 48.4972C39.3402 49.1666 39.7245 49.8484 40.3815 50.0467C41.0509 50.2327 41.7327 49.8484 41.9311 49.1914C42.117 48.522 41.7327 47.8402 41.0757 47.6418C40.4063 47.4435 39.7121 47.8278 39.5262 48.4972Z" fill="#E1C44E"></path>
  <path d="M55.1206 40.5138C54.9347 41.1832 55.319 41.865 55.976 42.0634C56.6454 42.2493 57.3272 41.865 57.5255 41.208C57.7115 40.5386 57.3272 39.8568 56.6702 39.6585C56.0008 39.4601 55.3066 39.8444 55.1206 40.5138Z" fill="#E1C44E"></path>
  <path d="M40.7533 0.957076C40.5674 1.62648 40.9517 2.30828 41.6087 2.50662C42.2781 2.69257 42.9599 2.30828 43.1582 1.65127C43.3442 0.981868 42.9599 0.300068 42.3029 0.101726C41.6335 -0.0842196 40.9393 0.300068 40.7533 0.957076Z" fill="#E1C44E"></path>
  <path d="M12.8863 27.4357C12.7004 28.1051 13.0847 28.7869 13.7417 28.9852C14.4111 29.1712 15.0929 28.7869 15.2912 28.1299C15.4772 27.4605 15.0929 26.7787 14.4359 26.5803C13.7665 26.382 13.0723 26.7663 12.8863 27.4357Z" fill="#E1C44E"></path>
  <path d="M44.2363 28.1175C44.0504 28.7869 44.4347 29.4687 45.0917 29.667C45.7611 29.853 46.4429 29.4687 46.6412 28.8117C46.8272 28.1423 46.4429 27.4605 45.7859 27.2621C45.1165 27.0638 44.4223 27.4481 44.2363 28.1175Z" fill="#E1C44E"></path>
  <path d="M62.4345 36.6212C62.2485 37.2906 62.6328 37.9724 63.2898 38.1708C63.9592 38.3567 64.641 37.9725 64.8394 37.3154C65.0253 36.646 64.641 35.9642 63.984 35.7659C63.3146 35.5676 62.6204 35.9518 62.4345 36.6212Z" fill="#E1C44E"></path>
  <path d="M36.2409 1.86187C36.0549 2.53127 36.4392 3.21307 37.0962 3.41141C37.7656 3.59736 38.4474 3.21307 38.6458 2.55606C38.8317 1.88666 38.4474 1.20486 37.7904 1.00652C37.121 0.808175 36.4268 1.20486 36.2409 1.86187Z" fill="#E1C44E"></path>
  <path d="M17.9196 28.7127C17.7336 29.3821 18.1179 30.0639 18.7749 30.2622C19.4443 30.4482 20.1261 30.0639 20.3245 29.4069C20.5104 28.7375 20.1261 28.0557 19.4691 27.8573C18.7997 27.659 18.1055 28.0433 17.9196 28.7127Z" fill="#E1C44E"></path>
  <path d="M23.3488 29.1341C23.1628 29.8035 23.5471 30.4853 24.2041 30.6836C24.8735 30.8696 25.5553 30.4853 25.7537 29.8283C25.9396 29.1589 25.5553 28.4771 24.8983 28.2787C24.2289 28.0804 23.5347 28.4647 23.3488 29.1341Z" fill="#E1C44E"></path>
  <path d="M29.0508 40.1914C28.8648 40.8608 29.2491 41.5426 29.9061 41.741C30.5755 41.9269 31.2573 41.5426 31.4556 40.8856C31.6416 40.2162 31.2573 39.5344 30.6003 39.3361C29.9309 39.1377 29.2367 39.522 29.0508 40.1914Z" fill="#E1C44E"></path>
  <path d="M41.9183 4.71311C41.7323 5.38251 42.1166 6.06431 42.7736 6.26265C43.443 6.4486 44.1248 6.06431 44.3232 5.4073C44.5091 4.7379 44.1248 4.0561 43.4678 3.85775C42.7984 3.65941 42.1042 4.0437 41.9183 4.71311Z" fill="#E1C44E"></path>
  <path d="M50.9801 21.2251C50.7942 21.8945 51.1784 22.5763 51.8354 22.7747C52.5049 22.9606 53.1867 22.5763 53.385 21.9193C53.5709 21.2499 53.1867 20.5681 52.5296 20.3698C51.8602 20.1714 51.1784 20.5557 50.9801 21.2251Z" fill="#E1C44E"></path>
  <path d="M34.6912 47.0965C34.5053 47.7659 34.8896 48.4477 35.5466 48.646C36.216 48.832 36.8978 48.4477 37.0961 47.7907C37.2821 47.1213 36.8978 46.4395 36.2408 46.2411C35.5714 46.0428 34.8772 46.4271 34.6912 47.0965Z" fill="#E1C44E"></path>
  <path d="M45.4019 33.0265C45.2159 33.6959 45.6002 34.3777 46.2572 34.576C46.9266 34.762 47.6084 34.3777 47.8067 33.7207C47.9927 33.0513 47.6084 32.3695 46.9514 32.1711C46.282 31.9728 45.5878 32.3695 45.4019 33.0265Z" fill="#E1C44E"></path>
  <path d="M48.9352 11.9898C48.7493 12.6592 49.1336 13.341 49.7906 13.5393C50.46 13.7253 51.1418 13.341 51.3401 12.684C51.5261 12.0146 51.1418 11.3328 50.4848 11.1344C49.8154 10.9361 49.1212 11.3204 48.9352 11.9898Z" fill="#E1C44E"></path>
  <path d="M47.2613 37.6257C47.0754 38.2951 47.4597 38.9769 48.1167 39.1752C48.7861 39.3611 49.4679 38.9769 49.6662 38.3199C49.8522 37.6504 49.4679 36.9686 48.8109 36.7703C48.1539 36.5844 47.4597 36.9686 47.2613 37.6257Z" fill="#E1C44E"></path>
  <path d="M17.4732 46.7368C17.2873 47.4062 17.6715 48.088 18.3286 48.2863C18.998 48.4723 19.6798 48.088 19.8781 47.431C20.064 46.7616 19.6798 46.0798 19.0228 45.8814C18.3534 45.6831 17.6592 46.0674 17.4732 46.7368Z" fill="#E1C44E"></path>
  <path d="M14.1755 33.0761C13.9895 33.7455 14.3738 34.4273 15.0308 34.6256C15.7002 34.8116 16.382 34.4273 16.5804 33.7703C16.7663 33.1009 16.382 32.4191 15.725 32.2207C15.0556 32.0224 14.3614 32.4067 14.1755 33.0761Z" fill="#E1C44E"></path>
  <path d="M35.3609 34.2786C35.175 34.948 35.5593 35.6298 36.2163 35.8282C36.8857 36.0141 37.5675 35.6298 37.7658 34.9728C37.9518 34.3034 37.5675 33.6216 36.9105 33.4233C36.2411 33.2249 35.5469 33.6216 35.3609 34.2786Z" fill="#E1C44E"></path>
  <path d="M26.1133 35.5182C25.9273 36.1876 26.3116 36.8694 26.9686 37.0678C27.638 37.2537 28.3198 36.8694 28.5182 36.2124C28.7041 35.543 28.3198 34.8612 27.6628 34.6629C26.9934 34.4645 26.2992 34.8488 26.1133 35.5182Z" fill="#E1C44E"></path>
  <path d="M26.9931 3.58511C26.8072 4.25452 27.1914 4.93632 27.8484 5.13466C28.5179 5.3206 29.1997 4.93632 29.398 4.27931C29.5839 3.60991 29.1997 2.92811 28.5426 2.72976C27.8732 2.53142 27.179 2.91571 26.9931 3.58511Z" fill="#E1C44E"></path>
  <path d="M52.8395 53.2078C52.6535 53.8772 53.0378 54.559 53.6948 54.7573C54.3642 54.9433 55.046 54.559 55.2444 53.902C55.4303 53.2326 55.046 52.5508 54.389 52.3524C53.7196 52.1541 53.0378 52.5384 52.8395 53.2078Z" fill="#E1C44E"></path>
  <path d="M36.7992 6.957C36.6132 7.6264 36.9975 8.3082 37.6545 8.50655C38.3239 8.69249 39.0057 8.3082 39.2041 7.6512C39.39 6.98179 39.0057 6.29999 38.3487 6.10165C37.6793 5.90331 36.9851 6.2876 36.7992 6.957Z" fill="#E1C44E"></path>
  <path d="M59.3232 41.7162C59.1373 42.3856 59.5216 43.0674 60.1786 43.2657C60.848 43.4516 61.5298 43.0674 61.7281 42.4104C61.9141 41.7409 61.5298 41.0591 60.8728 40.8608C60.2158 40.6625 59.5216 41.0468 59.3232 41.7162Z" fill="#E1C44E"></path>
  <path d="M41.2119 24.4109C41.0259 25.0803 41.4102 25.7621 42.0672 25.9604C42.7366 26.1464 43.4184 25.7621 43.6168 25.1051C43.8027 24.4357 43.4184 23.7539 42.7614 23.5555C42.092 23.3696 41.3978 23.7539 41.2119 24.4109Z" fill="#E1C44E"></path>
  <path d="M34.927 18.7584C34.7411 19.4278 35.1254 20.1096 35.7824 20.3079C36.4518 20.4939 37.1336 20.1096 37.3319 19.4526C37.5179 18.7832 37.1336 18.1014 36.4766 17.903C35.8072 17.7047 35.113 18.089 34.927 18.7584Z" fill="#E1C44E"></path>
  <path d="M62.4715 44.4062C62.2856 45.0756 62.6699 45.7574 63.3269 45.9557C63.9963 46.1417 64.6781 45.7574 64.8764 45.1004C65.0624 44.431 64.6781 43.7492 64.0211 43.5508C63.3641 43.3649 62.6699 43.7492 62.4715 44.4062Z" fill="#E1C44E"></path>
  <path d="M38.5714 12.9939C38.3854 13.6633 38.7697 14.3451 39.4267 14.5435C40.0961 14.7294 40.7779 14.3451 40.9763 13.6881C41.1622 13.0187 40.7779 12.3369 40.1209 12.1386C39.4515 11.9402 38.7573 12.3245 38.5714 12.9939Z" fill="#E1C44E"></path>
  <path d="M14.4113 42.6089C14.2253 43.2783 14.6096 43.9601 15.2666 44.1584C15.936 44.3443 16.6178 43.9601 16.8162 43.3031C17.0021 42.6336 16.6178 41.9518 15.9608 41.7535C15.2914 41.5552 14.5972 41.9395 14.4113 42.6089Z" fill="#E1C44E"></path>
  <path d="M23.3488 45.9805C23.1628 46.6499 23.5471 47.3317 24.2041 47.53C24.8735 47.716 25.5553 47.3317 25.7537 46.6747C25.9396 46.0053 25.5553 45.3235 24.8983 45.1251C24.2289 44.9268 23.5347 45.3111 23.3488 45.9805Z" fill="#E1C44E"></path>
  <path d="M19.9402 14.494C19.7543 15.1634 20.1385 15.8452 20.7955 16.0435C21.4649 16.2295 22.1467 15.8452 22.3451 15.1882C22.531 14.5188 22.1467 13.837 21.4897 13.6386C20.8203 13.4403 20.1261 13.8246 19.9402 14.494Z" fill="#E1C44E"></path>
  <path d="M10.5928 31.2413C10.4068 31.9107 10.7911 32.5925 11.4481 32.7908C12.1175 32.9768 12.7993 32.5925 12.9977 31.9355C13.1836 31.2661 12.7993 30.5843 12.1423 30.386C11.4729 30.1876 10.7787 30.5719 10.5928 31.2413Z" fill="#E1C44E"></path>
  <path d="M23.6463 20.3327C23.4603 21.0021 23.8446 21.6839 24.5016 21.8823C25.171 22.0682 25.8528 21.6839 26.0512 21.0269C26.2371 20.3575 25.8528 19.6757 25.1958 19.4774C24.5264 19.279 23.8322 19.6633 23.6463 20.3327Z" fill="#E1C44E"></path>
  <path d="M66.0541 33.8448C65.8682 34.5142 66.2525 35.196 66.9095 35.3944C67.5789 35.5803 68.2607 35.196 68.459 34.539C68.645 33.8696 68.2607 33.1878 67.6037 32.9895C66.9342 32.7911 66.2401 33.1754 66.0541 33.8448Z" fill="#E1C44E"></path>
  <path d="M43.7037 41.0345C43.5178 41.7039 43.9021 42.3857 44.5591 42.584C45.2285 42.7699 45.9103 42.3857 46.1086 41.7287C46.2946 41.0592 45.9103 40.3774 45.2533 40.1791C44.5963 39.9808 43.9021 40.365 43.7037 41.0345Z" fill="#E1C44E"></path>
  <path d="M29.1998 31.4149C29.0139 32.0844 29.3982 32.7662 30.0552 32.9645C30.7246 33.1504 31.4064 32.7662 31.6047 32.1091C31.7907 31.4397 31.4064 30.7579 30.7494 30.5596C30.08 30.3613 29.3858 30.7455 29.1998 31.4149Z" fill="#E1C44E"></path>
  <path d="M44.8439 50.121C44.658 50.7904 45.0423 51.4722 45.6993 51.6706C46.3687 51.8565 47.0505 51.4722 47.2488 50.8152C47.4348 50.1458 47.0505 49.464 46.3935 49.2657C45.7241 49.0673 45.0299 49.4516 44.8439 50.121Z" fill="#E1C44E"></path>
  <path d="M63.5378 25.8737C63.3518 26.5432 63.7361 27.225 64.3931 27.4233C65.0625 27.6092 65.7443 27.225 65.9427 26.5679C66.1286 25.8985 65.7443 25.2167 65.0873 25.0184C64.4179 24.8201 63.7237 25.2043 63.5378 25.8737Z" fill="#E1C44E"></path>
  <path d="M51.4763 36.2494C51.2903 36.9188 51.6746 37.6006 52.3316 37.7989C53.001 37.9849 53.6828 37.6006 53.8812 36.9436C54.0671 36.2742 53.6828 35.5924 53.0258 35.394C52.3564 35.2081 51.6622 35.5924 51.4763 36.2494Z" fill="#E1C44E"></path>
  <path d="M40.3814 20.6427C40.1955 21.3121 40.5797 21.9939 41.2368 22.1923C41.9062 22.3782 42.588 21.9939 42.7863 21.3369C42.9722 20.6675 42.588 19.9857 41.931 19.7874C41.2615 19.589 40.5673 19.9733 40.3814 20.6427Z" fill="#E1C44E"></path>
  <path d="M42.3523 45.4601C42.1664 46.1295 42.5507 46.8113 43.2077 47.0096C43.8771 47.1956 44.5589 46.8113 44.7572 46.1543C44.9432 45.4849 44.5589 44.8031 43.9019 44.6047C43.2325 44.4188 42.5507 44.8031 42.3523 45.4601Z" fill="#E1C44E"></path>
  <path d="M40.2823 32.4066C40.0963 33.076 40.4806 33.7578 41.1376 33.9561C41.807 34.1421 42.4888 33.7578 42.6872 33.1008C42.8731 32.4314 42.4888 31.7496 41.8318 31.5512C41.1624 31.3529 40.4682 31.7372 40.2823 32.4066Z" fill="#E1C44E"></path>
  <path d="M18.1297 10.1303C17.9437 10.7997 18.328 11.4815 18.985 11.6799C19.6544 11.8658 20.3362 11.4815 20.5346 10.8245C20.7205 10.1551 20.3362 9.47333 19.6792 9.27499C19.0098 9.07665 18.3156 9.46094 18.1297 10.1303Z" fill="#E1C44E"></path>
  <path d="M38.4599 38.1833C38.274 38.8527 38.6583 39.5345 39.3153 39.7329C39.9847 39.9188 40.6665 39.5345 40.8648 38.8775C41.0508 38.2081 40.6665 37.5263 40.0095 37.328C39.3401 37.1296 38.6459 37.5263 38.4599 38.1833Z" fill="#E1C44E"></path>
  <path d="M17.1752 23.2457C16.9893 23.9151 17.3735 24.5969 18.0306 24.7953C18.7 24.9812 19.3818 24.5969 19.5801 23.9399C19.766 23.2705 19.3818 22.5887 18.7248 22.3904C18.0553 22.2044 17.3612 22.5887 17.1752 23.2457Z" fill="#E1C44E"></path>
  <path d="M28.0348 45.6585C27.8488 46.3279 28.2331 47.0097 28.8901 47.208C29.5595 47.394 30.2413 47.0097 30.4397 46.3527C30.6256 45.6833 30.2413 45.0015 29.5843 44.8031C28.9149 44.6048 28.2207 44.9891 28.0348 45.6585Z" fill="#E1C44E"></path>
  <path d="M49.902 17.1343C49.7161 17.8037 50.1003 18.4855 50.7574 18.6838C51.4268 18.8698 52.1086 18.4855 52.3069 17.8285C52.4928 17.1591 52.1086 16.4773 51.4515 16.2789C50.7821 16.093 50.0879 16.4773 49.902 17.1343Z" fill="#E1C44E"></path>
  <path d="M12.4153 23.4565C12.2293 24.1259 12.6136 24.8077 13.2706 25.0061C13.94 25.192 14.6218 24.8077 14.8202 24.1507C15.0061 23.4813 14.6218 22.7995 13.9648 22.6012C13.2954 22.4152 12.6012 22.7995 12.4153 23.4565Z" fill="#E1C44E"></path>
  <path d="M15.1427 14.7541C14.9568 15.4235 15.3411 16.1053 15.9981 16.3037C16.6675 16.4896 17.3493 16.1053 17.5476 15.4483C17.7336 14.7789 17.3493 14.0971 16.6923 13.8988C16.0229 13.7004 15.3287 14.0847 15.1427 14.7541Z" fill="#E1C44E"></path>
  <path d="M53.1251 13.9857C52.9391 14.6552 53.3234 15.337 53.9804 15.5353C54.6498 15.7212 55.3316 15.337 55.5299 14.6799C55.7159 14.0105 55.3316 13.3287 54.6746 13.1304C54.0052 12.9321 53.311 13.3163 53.1251 13.9857Z" fill="#E1C44E"></path>
  <path d="M41.0137 52.9475C40.8278 53.6169 41.2121 54.2987 41.8691 54.497C42.5385 54.683 43.2203 54.2987 43.4186 53.6417C43.6046 52.9723 43.2203 52.2905 42.5633 52.0921C41.8939 51.9062 41.1997 52.2905 41.0137 52.9475Z" fill="#E1C44E"></path>
  <path d="M30.5014 50.0466C30.3155 50.716 30.6997 51.3978 31.3567 51.5961C32.0262 51.7821 32.708 51.3978 32.9063 50.7408C33.0922 50.0714 32.708 49.3896 32.0509 49.1913C31.3815 48.9929 30.6997 49.3772 30.5014 50.0466Z" fill="#E1C44E"></path>
  <path d="M34.2577 10.8988C34.0717 11.5683 34.456 12.2501 35.113 12.4484C35.7824 12.6343 36.4642 12.2501 36.6626 11.593C36.8485 10.9236 36.4642 10.2418 35.8072 10.0435C35.1378 9.85755 34.4436 10.2418 34.2577 10.8988Z" fill="#E1C44E"></path>
  <path d="M28.9645 17.8408C28.7786 18.5102 29.1629 19.192 29.8199 19.3903C30.4893 19.5763 31.1711 19.192 31.3694 18.535C31.5554 17.8656 31.1711 17.1838 30.5141 16.9855C29.8447 16.7995 29.1505 17.1838 28.9645 17.8408Z" fill="#E1C44E"></path>
  <path d="M49.0092 54.9059C48.8232 55.5753 49.2075 56.2571 49.8645 56.4555C50.5339 56.6414 51.2157 56.2571 51.4141 55.6001C51.6 54.9307 51.2157 54.2489 50.5587 54.0506C49.9017 53.8522 49.2075 54.2365 49.0092 54.9059Z" fill="#E1C44E"></path>
  <path d="M31.0223 54.8191C30.8363 55.4885 31.2206 56.1703 31.8776 56.3687C32.547 56.5546 33.2288 56.1703 33.4272 55.5133C33.6131 54.8439 33.2288 54.1621 32.5718 53.9638C31.9024 53.7778 31.2082 54.1621 31.0223 54.8191Z" fill="#E1C44E"></path>
  <path d="M48.7492 30.2247C48.5633 30.8941 48.9476 31.5759 49.6046 31.7742C50.274 31.9602 50.9558 31.5759 51.1541 30.9189C51.3401 30.2495 50.9558 29.5677 50.2988 29.3694C49.6294 29.171 48.9352 29.5553 48.7492 30.2247Z" fill="#E1C44E"></path>
  <path d="M32.3608 43.7244C32.1748 44.3938 32.5591 45.0756 33.2161 45.274C33.8855 45.4599 34.5673 45.0756 34.7657 44.4186C34.9516 43.7492 34.5673 43.0674 33.9103 42.8691C33.2409 42.6831 32.5467 43.0674 32.3608 43.7244Z" fill="#E1C44E"></path>
  <path d="M24.7619 40.8115C24.576 41.4809 24.9602 42.1627 25.6172 42.361C26.2866 42.5469 26.9685 42.1627 27.1668 41.5056C27.3527 40.8362 26.9685 40.1544 26.3114 39.9561C25.642 39.7578 24.9602 40.1544 24.7619 40.8115Z" fill="#E1C44E"></path>
  <path d="M26.1877 23.5926C26.0017 24.262 26.386 24.9438 27.043 25.1421C27.7124 25.3281 28.3942 24.9438 28.5926 24.2868C28.7785 23.6174 28.3942 22.9356 27.7372 22.7372C27.0678 22.5513 26.3736 22.9356 26.1877 23.5926Z" fill="#E1C44E"></path>
  <path d="M46.4928 2.97775C46.3069 3.64716 46.6912 4.32896 47.3482 4.5273C48.0176 4.71325 48.6994 4.32896 48.8977 3.67195C49.0837 3.00255 48.6994 2.32074 48.0424 2.1224C47.373 1.92406 46.6788 2.30835 46.4928 2.97775Z" fill="#E1C44E"></path>
  <path d="M46.6664 7.82451C46.4804 8.49392 46.8647 9.17572 47.5217 9.37406C48.1911 9.56 48.8729 9.17572 49.0713 8.51871C49.2572 7.84931 48.8729 7.16751 48.2159 6.96916C47.5465 6.77082 46.8523 7.1675 46.6664 7.82451Z" fill="#E1C44E"></path>
  <path d="M60.6743 22.1548C60.4883 22.8242 60.8726 23.506 61.5296 23.7044C62.199 23.8903 62.8808 23.506 63.0791 22.849C63.2651 22.1796 62.8808 21.4978 62.2238 21.2995C61.5668 21.1011 60.8726 21.4978 60.6743 22.1548Z" fill="#E1C44E"></path>
  <path d="M56.0503 6.51065C55.8644 7.18006 56.2487 7.86186 56.9057 8.0602C57.5751 8.24614 58.2569 7.86185 58.4552 7.20485C58.6412 6.53544 58.2569 5.85364 57.5999 5.6553C56.9305 5.45696 56.2487 5.84125 56.0503 6.51065Z" fill="#E1C44E"></path>
  <path d="M49.059 49.6872C48.873 50.3566 49.2573 51.0384 49.9143 51.2367C50.5837 51.4227 51.2655 51.0384 51.4639 50.3814C51.6498 49.712 51.2655 49.0302 50.6085 48.8318C49.9391 48.6459 49.2573 49.0302 49.059 49.6872Z" fill="#E1C44E"></path>
  <path d="M55.9887 17.7046C55.8028 18.374 56.1871 19.0558 56.8441 19.2542C57.5135 19.4401 58.1953 19.0558 58.3936 18.3988C58.5796 17.7294 58.1953 17.0476 57.5383 16.8493C56.8689 16.6509 56.1747 17.0352 55.9887 17.7046Z" fill="#E1C44E"></path>
  <path d="M47.2613 24.7209C47.0754 25.3903 47.4597 26.0721 48.1167 26.2704C48.7861 26.4564 49.4679 26.0721 49.6662 25.4151C49.8522 24.7457 49.4679 24.0639 48.8109 23.8655C48.1539 23.6672 47.4597 24.0639 47.2613 24.7209Z" fill="#E1C44E"></path>
  <path d="M21.1051 38.0592C20.9192 38.7286 21.3035 39.4104 21.9605 39.6088C22.6299 39.7947 23.3117 39.4104 23.51 38.7534C23.696 38.084 23.3117 37.4022 22.6547 37.2039C21.9853 37.0055 21.2911 37.3898 21.1051 38.0592Z" fill="#E1C44E"></path>
  <path d="M52.9016 32.5057C52.7156 33.1751 53.0999 33.8569 53.7569 34.0553C54.4263 34.2412 55.1081 33.8569 55.3065 33.1999C55.4924 32.5305 55.1081 31.8487 54.4511 31.6504C53.7817 31.452 53.0875 31.8487 52.9016 32.5057Z" fill="#E1C44E"></path>
  <path d="M25.9643 54.0383C25.7784 54.7077 26.1627 55.3895 26.8197 55.5878C27.4891 55.7737 28.1709 55.3895 28.3692 54.7324C28.5552 54.063 28.1709 53.3812 27.5139 53.1829C26.8445 52.997 26.1503 53.3812 25.9643 54.0383Z" fill="#E1C44E"></path>
  <path d="M16.7165 38.8774C16.5306 39.5468 16.9149 40.2286 17.5719 40.427C18.2413 40.6129 18.9231 40.2286 19.1214 39.5716C19.3074 38.9022 18.9231 38.2204 18.2661 38.0221C17.5967 37.8237 16.9025 38.208 16.7165 38.8774Z" fill="#E1C44E"></path>
  <path d="M12.1918 37.3775C12.0058 38.0469 12.3901 38.7287 13.0471 38.927C13.7165 39.113 14.3983 38.7287 14.5967 38.0717C14.7826 37.4023 14.3983 36.7205 13.7413 36.5221C13.0719 36.3238 12.3777 36.7081 12.1918 37.3775Z" fill="#E1C44E"></path>
  <path d="M63.0791 14.3081C62.8932 14.9775 63.2775 15.6593 63.9345 15.8577C64.6039 16.0436 65.2857 15.6593 65.484 15.0023C65.67 14.3329 65.2857 13.6511 64.6287 13.4528C63.9593 13.2544 63.2775 13.6387 63.0791 14.3081Z" fill="#E1C44E"></path>
  <path d="M55.567 50.6045C55.381 51.2739 55.7653 51.9557 56.4223 52.154C57.0917 52.34 57.7735 51.9557 57.9719 51.2987C58.1578 50.6293 57.7735 49.9475 57.1165 49.7491C56.4595 49.5632 55.7653 49.9475 55.567 50.6045Z" fill="#E1C44E"></path>
  <path d="M29.0138 11.9525C28.8279 12.6219 29.2122 13.3037 29.8692 13.502C30.5386 13.688 31.2204 13.3037 31.4187 12.6467C31.6171 11.9897 31.2204 11.2955 30.5634 11.0971C29.894 10.8988 29.1998 11.2831 29.0138 11.9525Z" fill="#E1C44E"></path>
  <path d="M64.9139 18.8821C64.728 19.5515 65.1122 20.2333 65.7693 20.4317C66.4387 20.6176 67.1205 20.2333 67.3188 19.5763C67.5047 18.9069 67.1205 18.2251 66.4634 18.0268C65.794 17.8284 65.0998 18.2127 64.9139 18.8821Z" fill="#E1C44E"></path>
  <path d="M35.5593 51.5591C35.3734 52.2285 35.7577 52.9103 36.4147 53.1087C37.0841 53.2946 37.7659 52.9103 37.9642 52.2533C38.1502 51.5839 37.7659 50.9021 37.1089 50.7038C36.4395 50.5054 35.7453 50.8897 35.5593 51.5591Z" fill="#E1C44E"></path>
  <path d="M35.3359 56.1333C35.1499 56.8027 35.5342 57.4845 36.1912 57.6829C36.8606 57.8688 37.5424 57.4845 37.7408 56.8275C37.9267 56.1581 37.5424 55.4763 36.8854 55.278C36.216 55.0796 35.5218 55.4639 35.3359 56.1333Z" fill="#E1C44E"></path>
  <path d="M45.0053 55.9225C44.8193 56.5919 45.2036 57.2737 45.8606 57.472C46.53 57.658 47.2118 57.2737 47.4102 56.6167C47.5961 55.9473 47.2118 55.2655 46.5548 55.0671C45.8854 54.8688 45.1912 55.2655 45.0053 55.9225Z" fill="#E1C44E"></path>
  <path d="M92.3724 16.7004H83.757V27.039H101V25.3159C100.988 20.5557 97.1326 16.7004 92.3724 16.7004Z" fill="white" stroke="#333333" stroke-width="1.11071" stroke-miterlimit="10"></path>
  <path d="M88.9138 27.039H100.975V25.3159C100.975 20.5557 97.1202 16.7004 92.36 16.7004H83.7445" fill="white"></path>
  <path d="M88.9138 27.039H100.975V25.3159C100.975 20.5557 97.1202 16.7004 92.36 16.7004H83.7445" stroke="#333333" stroke-width="1.11071" stroke-miterlimit="10"></path>
  <path d="M30.3038 25.3159C30.3038 20.5557 34.1591 16.7004 38.9193 16.7004H92.3601C87.5999 16.7004 83.7446 20.5557 83.7446 25.3159V87.3721C83.7446 92.1323 79.8893 95.9876 75.1291 95.9876H30.3038V25.3159Z" fill="white" stroke="#333333" stroke-width="1.11071" stroke-miterlimit="10"></path>
  <path d="M30.3038 30.4852V25.3159C30.3038 20.5557 34.1591 16.7004 38.9193 16.7004H92.3601C87.5999 16.7004 83.7446 20.5557 83.7446 25.3159V87.3721C83.7446 92.1323 79.8893 95.9876 75.1291 95.9876H30.3038V77.0336" fill="white"></path>
  <path d="M30.3038 30.4852V25.3159C30.3038 20.5557 34.1591 16.7004 38.9193 16.7004H92.3601C87.5999 16.7004 83.7446 20.5557 83.7446 25.3159V87.3721C83.7446 92.1323 79.8893 95.9876 75.1291 95.9876H30.3038V77.0336" stroke="#333333" stroke-width="1.11071" stroke-miterlimit="10"></path>
  <path d="M19.9652 87.3846C19.9652 92.1448 23.8205 96.0001 28.5807 96.0001H75.129C70.3688 96.0001 66.5135 92.1448 66.5135 87.3846H19.9652Z" fill="white" stroke="#333333" stroke-width="1.11071" stroke-miterlimit="10"></path>
  <path d="M64.7903 40.8364V51.175" stroke="#F26839" stroke-width="1.11071" stroke-miterlimit="10"></path>
  <path d="M59.6086 46.0056H69.9595" stroke="#F26839" stroke-width="1.11071" stroke-miterlimit="10"></path>
  <path d="M64.7903 40.8364V51.175" stroke="#F26839" stroke-width="1.11071" stroke-miterlimit="10"></path>
  <path d="M59.6086 46.0056H69.9595" stroke="#F26839" stroke-width="1.11071" stroke-miterlimit="10"></path>
  <path d="M94.0951 51.1748V61.5258" stroke="#F26839" stroke-width="1.11071" stroke-miterlimit="10"></path>
  <path d="M88.9139 56.344H99.2649" stroke="#F26839" stroke-width="1.11071" stroke-miterlimit="10"></path>
  <path d="M94.0951 51.1748V61.5258" stroke="#F26839" stroke-width="1.11071" stroke-miterlimit="10"></path>
  <path d="M88.9139 56.344H99.2649" stroke="#F26839" stroke-width="1.11071" stroke-miterlimit="10"></path>
  <path d="M71.6825 63.2488V73.5874" stroke="#F26839" stroke-width="1.11071" stroke-miterlimit="10"></path>
  <path d="M66.5133 68.4178H76.8518" stroke="#F26839" stroke-width="1.11071" stroke-miterlimit="10"></path>
  <path d="M71.6825 63.2488V73.5874" stroke="#F26839" stroke-width="1.11071" stroke-miterlimit="10"></path>
  <path d="M66.5133 68.4178H76.8518" stroke="#F26839" stroke-width="1.11071" stroke-miterlimit="10"></path>
  <path d="M37.1463 42.7824C36.8736 44.3816 36.4149 46.0675 35.6959 47.803C34.6422 43.6254 34.2827 40.0304 29.3118 36.4231C27.4895 35.3198 25.5557 34.3529 23.4979 33.5843C15.4898 30.5844 8.1388 28.5266 2.38688 21.8698C0.465446 26.6547 0.700976 32.6546 2.11416 38.5677C3.99841 44.3196 7.37022 45.8195 11.0767 48.1501C8.98175 48.274 7.03552 48.1005 5.25044 47.7782C6.81239 51.2987 8.65945 54.497 10.5189 56.9887C16.0725 64.0174 20.8947 64.0298 26.6218 64.9595C25.1094 65.8273 23.5971 66.4967 22.1219 67.0297C27.1548 69.9925 41.7577 73.0916 47.8072 74.2072C47.8444 74.2692 47.8444 74.2692 47.8072 74.2072C49.927 67.1785 44.9684 51.0756 37.1463 42.7824Z" fill="#F26839"></path>
  <path d="M47.8072 74.2072C41.7577 73.0916 27.1548 69.9925 22.1219 67.0297C23.5971 66.4967 25.1094 65.8273 26.6218 64.9595C20.8947 64.0298 16.0725 64.0174 10.5189 56.9887C8.65945 54.497 6.81239 51.2987 5.25044 47.7782C7.03552 48.1005 8.98175 48.274 11.0767 48.1501C7.37022 45.8195 3.99841 44.3196 2.11416 38.5677C0.700976 32.6546 0.465446 26.6547 2.38688 21.8698C8.1388 28.5266 15.4898 30.5844 23.4979 33.5843C25.5557 34.3529 27.4895 35.3198 29.3118 36.4231C34.2827 40.0304 34.6422 43.6254 35.6959 47.803C36.4149 46.0675 36.8736 44.3816 37.1463 42.7824C44.9684 51.0756 49.927 67.1785 47.8072 74.2072ZM47.8072 74.2072C47.8444 74.2692 47.8444 74.2692 47.8072 74.2072Z" stroke="#333333" stroke-width="1.11071" stroke-miterlimit="10"></path>
  <path d="M14.7957 40.8363L54.4393 80.4799" stroke="#333333" stroke-width="1.11071" stroke-miterlimit="10"></path>
</svg>
