<?xml version="1.0" encoding="UTF-8"?>
<svg preserveAspectRatio="xMidYMid slice" xmlns="http://www.w3.org/2000/svg" width="68px" height="58px" viewBox="0 0 100 86" fill="none">
  <g opacity="0.2">
    <path d="M8.4899 67.2384C8.7781 67.4305 9.0663 67.6227 9.36651 67.8028L38.3309 51.3152C38.3309 50.9669 38.3188 50.6187 38.2948 50.2825L8.4899 67.2384Z" fill="#E2C64F"></path>
    <path d="M11.9243 69.0636C12.2965 69.2198 12.6688 69.3518 13.0531 69.4719L37.8865 55.326C37.9706 54.9297 38.0426 54.5454 38.1027 54.1492L11.9243 69.0636Z" fill="#E2C64F"></path>
    <path d="M10.0992 68.211C10.4234 68.3911 10.7477 68.5472 11.0839 68.7033L38.211 53.2605C38.247 52.8882 38.271 52.528 38.283 52.1557L10.0992 68.211Z" fill="#E2C64F"></path>
    <path d="M4.58746 63.7798C4.79161 64.02 5.00776 64.2481 5.22391 64.4763L37.5746 46.0554C37.4906 45.7551 37.4065 45.4549 37.2984 45.1547L4.58746 63.7798Z" fill="#E2C64F"></path>
    <path d="M5.74026 65.0169C5.96843 65.245 6.20859 65.4612 6.44876 65.6774L37.9709 47.7247C37.9109 47.4125 37.8388 47.1003 37.7668 46.7881L5.74026 65.0169Z" fill="#E2C64F"></path>
    <path d="M7.03714 66.1697C7.28932 66.3738 7.5535 66.59 7.81769 66.7821L38.223 49.466C38.187 49.1297 38.151 48.8055 38.091 48.4813L7.03714 66.1697Z" fill="#E2C64F"></path>
    <path d="M3.55469 62.4709C3.73481 62.7231 3.93896 62.9512 4.13109 63.2034L37.0342 44.4703C36.9261 44.1821 36.8301 43.8939 36.698 43.6057L3.55469 62.4709Z" fill="#E2C64F"></path>
    <path d="M16.4156 70.2885C16.932 70.3606 17.4483 70.4326 17.9767 70.4566L36.2055 60.0813C36.4457 59.613 36.6618 59.1327 36.854 58.6523L16.4156 70.2885Z" fill="#E2C64F"></path>
    <path d="M13.9781 69.784C14.4105 69.9041 14.8548 70.0001 15.2991 70.0842L37.2625 57.5834C37.4066 57.1511 37.5507 56.7308 37.6708 56.2865L13.9781 69.784Z" fill="#E2C64F"></path>
    <path d="M14.3379 32.7982C12.7408 33.2185 11.1797 33.8189 9.6786 34.6715C8.17755 35.5241 6.85662 36.5688 5.6918 37.7216L14.3379 32.7982Z" fill="#E2C64F"></path>
    <path d="M32.8911 64.6927L23.6446 69.9524C25.3618 69.5321 27.043 68.8956 28.6401 67.983C30.2493 67.0824 31.6663 65.9656 32.8911 64.6927Z" fill="#E2C64F"></path>
    <path d="M19.3813 70.4926C20.0778 70.4926 20.7743 70.4446 21.4708 70.3605L34.3558 63.0233C34.7881 62.471 35.1724 61.8825 35.5326 61.2941L19.3813 70.4926Z" fill="#E2C64F"></path>
    <path d="M0 51.255C0 51.6032 0.0120085 51.9515 0.024017 52.2997L29.7569 35.3798C29.4687 35.1877 29.1685 34.9956 28.8683 34.8275L0 51.255Z" fill="#E2C64F"></path>
    <path d="M2.66599 61.0899C2.82209 61.3541 2.99021 61.6062 3.15833 61.8584L36.3857 42.9571C36.2536 42.6809 36.1215 42.4047 35.9654 42.1406L2.66599 61.0899Z" fill="#E2C64F"></path>
    <path d="M1.09257 44.9509C0.936457 45.3832 0.792356 45.8155 0.672272 46.2478L24.2208 32.8344C23.7765 32.7143 23.3322 32.6302 22.8879 32.5342L1.09257 44.9509Z" fill="#E2C64F"></path>
    <path d="M4.13122 39.439C3.6749 40.0154 3.2546 40.6038 2.87033 41.2162L18.7695 32.1619C18.049 32.1739 17.3285 32.2459 16.596 32.342L4.13122 39.439Z" fill="#E2C64F"></path>
    <path d="M2.18578 42.4288C1.94561 42.8971 1.71745 43.3775 1.51331 43.8698L21.7475 32.3537C21.2191 32.2817 20.6908 32.2216 20.1624 32.1976L2.18578 42.4288Z" fill="#E2C64F"></path>
    <path d="M0.107832 49.2978C0.071807 49.67 0.0357816 50.0303 0.0237732 50.4026L28.1235 34.4073C27.7993 34.2392 27.463 34.0711 27.1268 33.915L0.107832 49.2978Z" fill="#E2C64F"></path>
    <path d="M0.456279 47.2084C0.37222 47.6046 0.288161 48.0009 0.228119 48.3972L26.2984 33.5548C25.9262 33.4107 25.5419 33.2786 25.1576 33.1465L0.456279 47.2084Z" fill="#E2C64F"></path>
    <path d="M1.24841 58.1119C1.35649 58.4001 1.45256 58.7003 1.58465 58.9765L34.7039 40.1233C34.5238 39.8711 34.3196 39.6429 34.1275 39.3907L1.24841 58.1119Z" fill="#E2C64F"></path>
    <path d="M1.89771 59.6251C2.0298 59.9013 2.16189 60.1775 2.318 60.4537L35.6054 41.5044C35.4493 41.2402 35.2811 40.988 35.113 40.7238L1.89771 59.6251Z" fill="#E2C64F"></path>
    <path d="M0.0839233 53.1045C0.119949 53.4287 0.155974 53.7649 0.204008 54.0892L31.2098 36.4368C30.9456 36.2326 30.6814 36.0165 30.4172 35.8243L0.0839233 53.1045Z" fill="#E2C64F"></path>
    <path d="M0.324249 54.8457C0.384291 55.158 0.444333 55.4822 0.516384 55.7944L32.5069 37.5896C32.2787 37.3615 32.0385 37.1453 31.7984 36.9412L0.324249 54.8457Z" fill="#E2C64F"></path>
    <path d="M0.720337 56.5149C0.804396 56.8151 0.888455 57.1273 0.984522 57.4275L33.6715 38.8145C33.4673 38.5743 33.2392 38.3461 33.023 38.118L0.720337 56.5149Z" fill="#E2C64F"></path>
  </g>
  <g opacity="0.2">
    <path d="M89.9309 64.4286C90.087 64.8368 90.5434 65.029 90.9517 64.8729C91.3599 64.7168 91.5521 64.2604 91.396 63.8521C91.2399 63.4439 90.7835 63.2517 90.3752 63.4078C89.967 63.576 89.7748 64.0323 89.9309 64.4286Z" fill="#007199"></path>
    <path d="M89.2826 72.9306C89.4387 73.3389 89.895 73.531 90.3033 73.3749C90.7116 73.2188 90.9037 72.7625 90.7476 72.3542C90.5915 71.9459 90.1352 71.7537 89.7269 71.9099C89.3306 72.078 89.1265 72.5343 89.2826 72.9306Z" fill="#007199"></path>
    <path d="M76.3138 57.6916C76.4699 58.0999 76.9262 58.292 77.3345 58.1359C77.7428 57.9798 77.9349 57.5235 77.7788 57.1152C77.6227 56.7069 77.1664 56.5148 76.7581 56.6709C76.3498 56.827 76.1577 57.2833 76.3138 57.6916Z" fill="#007199"></path>
    <path d="M79.0035 54.8818C79.1596 55.2901 79.616 55.4822 80.0243 55.3261C80.4325 55.17 80.6247 54.7137 80.4686 54.3054C80.3125 53.8971 79.8561 53.705 79.4478 53.8611C79.0396 54.0172 78.8474 54.4735 79.0035 54.8818Z" fill="#007199"></path>
    <path d="M71.9421 73.4469C72.0982 73.8552 72.5546 74.0473 72.9628 73.8912C73.3711 73.7351 73.5633 73.2788 73.4072 72.8705C73.2511 72.4622 72.7947 72.2701 72.3864 72.4262C71.9782 72.5943 71.774 73.0386 71.9421 73.4469Z" fill="#007199"></path>
    <path d="M87.4453 80.3157C87.6014 80.724 88.0577 80.9161 88.466 80.76C88.8743 80.6039 89.0664 80.1476 88.9103 79.7393C88.7542 79.331 88.2979 79.1389 87.8896 79.295C87.4813 79.4631 87.2772 79.9074 87.4453 80.3157Z" fill="#007199"></path>
    <path d="M77.8986 61.4146C78.0547 61.8229 78.511 62.0151 78.9193 61.859C79.3276 61.7028 79.5197 61.2465 79.3636 60.8382C79.2075 60.4299 78.7512 60.2378 78.3429 60.3939C77.9466 60.55 77.7425 61.0063 77.8986 61.4146Z" fill="#007199"></path>
    <path d="M82.8582 56.1787C83.0143 56.575 83.4706 56.7791 83.8789 56.623C84.2872 56.4669 84.4793 56.0106 84.3232 55.6023C84.1671 55.194 83.7108 55.0018 83.3025 55.158C82.8942 55.3141 82.6901 55.7704 82.8582 56.1787Z" fill="#007199"></path>
    <path d="M91.1322 76.461C91.2883 76.8692 91.7446 77.0614 92.1529 76.9053C92.5612 76.7492 92.7533 76.2928 92.5972 75.8846C92.4411 75.4763 91.9848 75.2841 91.5765 75.4402C91.1682 75.6084 90.9761 76.0527 91.1322 76.461Z" fill="#007199"></path>
    <path d="M82.1372 63.1677C82.2933 63.576 82.7496 63.7682 83.1579 63.6121C83.5662 63.456 83.7583 62.9996 83.6022 62.5913C83.4461 62.1831 82.9898 61.9909 82.5815 62.147C82.1732 62.3152 81.9811 62.7715 82.1372 63.1677Z" fill="#007199"></path>
    <path d="M59.3937 79.5473C59.5498 79.9556 60.0062 80.1478 60.4145 79.9916C60.8227 79.8355 61.0149 79.3792 60.8588 78.9709C60.7027 78.5626 60.2463 78.3705 59.8381 78.5266C59.4298 78.6947 59.2376 79.139 59.3937 79.5473Z" fill="#007199"></path>
    <path d="M86.4485 70.8289C86.6046 71.2372 87.0609 71.4294 87.4692 71.2733C87.8775 71.1171 88.0696 70.6608 87.9135 70.2525C87.7574 69.8443 87.3011 69.6521 86.8928 69.8082C86.4845 69.9643 86.2924 70.4207 86.4485 70.8289Z" fill="#007199"></path>
    <path d="M76.6619 82.1051C76.818 82.5134 77.2743 82.7055 77.6826 82.5494C78.0909 82.3933 78.283 81.937 78.1269 81.5287C77.9708 81.1324 77.5145 80.9283 77.1062 81.0844C76.7099 81.2525 76.5058 81.7088 76.6619 82.1051Z" fill="#007199"></path>
    <path d="M88.6102 60.7059C88.7663 61.1142 89.2226 61.3063 89.6309 61.1502C90.0392 60.9941 90.2313 60.5378 90.0752 60.1295C89.9191 59.7212 89.4628 59.5291 89.0545 59.6852C88.6462 59.8413 88.442 60.2976 88.6102 60.7059Z" fill="#007199"></path>
    <path d="M79.3638 64.8249C79.5199 65.2331 79.9762 65.4253 80.3845 65.2692C80.7928 65.1131 80.9849 64.6567 80.8288 64.2485C80.6727 63.8402 80.2164 63.648 79.8081 63.8041C79.3998 63.9602 79.2077 64.4166 79.3638 64.8249Z" fill="#007199"></path>
    <path d="M81.117 74.5036C81.2731 74.9119 81.7294 75.104 82.1377 74.9479C82.546 74.7918 82.7381 74.3355 82.582 73.9272C82.4259 73.5189 81.9696 73.3268 81.5613 73.4829C81.165 73.651 80.9608 74.1073 81.117 74.5036Z" fill="#007199"></path>
    <path d="M92.5607 79.9555C92.7168 80.3638 93.1731 80.556 93.5814 80.3998C93.9897 80.2437 94.1818 79.7874 94.0257 79.3791C93.8696 78.9708 93.4133 78.7787 93.005 78.9348C92.6087 79.1029 92.4046 79.5593 92.5607 79.9555Z" fill="#007199"></path>
    <path d="M82.6055 59.7931C82.7616 60.2014 83.218 60.3935 83.6262 60.2374C84.0345 60.0813 84.2267 59.625 84.0706 59.2167C83.9144 58.8084 83.4581 58.6163 83.0498 58.7724C82.6415 58.9285 82.4494 59.3848 82.6055 59.7931Z" fill="#007199"></path>
    <path d="M66.9347 70.0725C67.0908 70.4808 67.5471 70.673 67.9554 70.5168C68.3637 70.3607 68.5558 69.9044 68.3997 69.4961C68.2436 69.0878 67.7873 68.8957 67.379 69.0518C66.9707 69.2199 66.7666 69.6763 66.9347 70.0725Z" fill="#007199"></path>
    <path d="M77.7422 73.7234C77.8984 74.1316 78.3547 74.3238 78.763 74.1677C79.1713 74.0116 79.3634 73.5552 79.2073 73.1469C79.0512 72.7387 78.5948 72.5465 78.1866 72.7026C77.7783 72.8708 77.5861 73.3271 77.7422 73.7234Z" fill="#007199"></path>
    <path d="M87.7459 68.0071C87.902 68.4154 88.3583 68.6076 88.7666 68.4515C89.1749 68.2953 89.3671 67.839 89.2109 67.4307C89.0548 67.0345 88.5985 66.8303 88.1902 66.9864C87.794 67.1425 87.5898 67.5989 87.7459 68.0071Z" fill="#007199"></path>
    <path d="M81.1886 52.3602C81.3447 52.7685 81.8011 52.9606 82.2093 52.8045C82.6176 52.6484 82.8098 52.1921 82.6537 51.7838C82.4975 51.3755 82.0412 51.1834 81.6329 51.3395C81.2246 51.5076 81.0205 51.9639 81.1886 52.3602Z" fill="#007199"></path>
    <path d="M85.452 61.7147C85.6081 62.123 86.0644 62.3151 86.4727 62.159C86.881 62.0029 87.0731 61.5466 86.917 61.1383C86.7609 60.73 86.3046 60.5379 85.8963 60.694C85.488 60.8501 85.2838 61.3064 85.452 61.7147Z" fill="#007199"></path>
    <path d="M79.1593 80.2438C79.3154 80.6521 79.7718 80.8442 80.18 80.6881C80.5883 80.532 80.7805 80.0757 80.6244 79.6674C80.4682 79.2591 80.0119 79.067 79.6036 79.2231C79.1954 79.3912 78.9912 79.8475 79.1593 80.2438Z" fill="#007199"></path>
    <path d="M95.3713 84.3985C95.5274 84.7948 95.9837 84.9989 96.392 84.8428C96.8003 84.6867 96.9924 84.2304 96.8363 83.8221C96.6802 83.4138 96.2239 83.2217 95.8156 83.3778C95.4193 83.5459 95.2152 84.0022 95.3713 84.3985Z" fill="#007199"></path>
    <path d="M74.2004 60.8861C74.3565 61.2943 74.8129 61.4865 75.2212 61.3304C75.6294 61.1743 75.8216 60.7179 75.6655 60.3096C75.5094 59.9134 75.053 59.7092 74.6447 59.8653C74.2365 60.0335 74.0443 60.4778 74.2004 60.8861Z" fill="#007199"></path>
    <path d="M76.8896 67.6949C77.0457 68.1032 77.502 68.2953 77.9103 68.1392C78.3186 67.9831 78.5107 67.5268 78.3546 67.1185C78.1985 66.7222 77.7422 66.5181 77.3339 66.6742C76.9376 66.8423 76.7335 67.2866 76.8896 67.6949Z" fill="#007199"></path>
    <path d="M98.481 85.1552C98.6371 85.5635 99.0934 85.7556 99.5017 85.5995C99.91 85.4434 100.102 84.9871 99.946 84.5788C99.7899 84.1705 99.3336 83.9784 98.9253 84.1345C98.517 84.2906 98.3248 84.7469 98.481 85.1552Z" fill="#007199"></path>
    <path d="M92.177 84.2786C92.3331 84.6869 92.7895 84.879 93.1977 84.7229C93.606 84.5668 93.7982 84.1105 93.6421 83.7022C93.486 83.2939 93.0296 83.1018 92.6213 83.2579C92.2131 83.414 92.0209 83.8703 92.177 84.2786Z" fill="#007199"></path>
    <path d="M78.8113 70.8651C78.9674 71.2734 79.4237 71.4655 79.832 71.3094C80.2403 71.1533 80.4324 70.697 80.2763 70.2887C80.1202 69.8804 79.6639 69.6883 79.2556 69.8444C78.8473 70.0005 78.6432 70.4568 78.8113 70.8651Z" fill="#007199"></path>
    <path d="M74.3801 78.1661C74.5362 78.5744 74.9925 78.7665 75.4008 78.6104C75.8091 78.4543 76.0012 77.998 75.8451 77.5897C75.689 77.1814 75.2327 76.9893 74.8244 77.1454C74.4161 77.3135 74.224 77.7698 74.3801 78.1661Z" fill="#007199"></path>
    <path d="M85.056 74.0595C85.2121 74.4678 85.6684 74.6599 86.0767 74.5038C86.485 74.3477 86.6771 73.8914 86.521 73.4831C86.3649 73.0748 85.9086 72.8826 85.5003 73.0388C85.092 73.2069 84.8999 73.6512 85.056 74.0595Z" fill="#007199"></path>
    <path d="M68.1474 73.4229C68.3035 73.8312 68.7598 74.0233 69.1681 73.8672C69.5764 73.7111 69.7685 73.2548 69.6124 72.8465C69.4563 72.4382 69 72.246 68.5917 72.4022C68.1954 72.5583 67.9913 73.0146 68.1474 73.4229Z" fill="#007199"></path>
    <path d="M95.0106 77.662C95.1667 78.0583 95.623 78.2624 96.0313 78.1063C96.4396 77.9502 96.6318 77.4939 96.4756 77.0856C96.3195 76.6773 95.8632 76.4852 95.4549 76.6413C95.0466 76.8094 94.8545 77.2657 95.0106 77.662Z" fill="#007199"></path>
    <path d="M63.7163 80.2797C63.8724 80.688 64.3288 80.8802 64.737 80.7241C65.1453 80.568 65.3375 80.1116 65.1814 79.7033C65.0253 79.2951 64.5689 79.1029 64.1606 79.259C63.7524 79.4151 63.5482 79.8715 63.7163 80.2797Z" fill="#007199"></path>
    <path d="M84.5875 51.7838C84.7436 52.1801 85.2 52.3842 85.6082 52.2281C86.0165 52.072 86.2087 51.6157 86.0525 51.2074C85.8964 50.7991 85.4401 50.607 85.0318 50.7631C84.6235 50.9192 84.4314 51.3755 84.5875 51.7838Z" fill="#007199"></path>
    <path d="M70.7173 70.0606C70.8734 70.4689 71.3297 70.6611 71.738 70.5049C72.1463 70.3488 72.3384 69.8925 72.1823 69.4842C72.0262 69.0759 71.5699 68.8838 71.1616 69.0399C70.7653 69.208 70.5612 69.6644 70.7173 70.0606Z" fill="#007199"></path>
    <path d="M81.1407 82.9334C81.2968 83.3417 81.7531 83.5339 82.1614 83.3777C82.5697 83.2216 82.7618 82.7653 82.6057 82.357C82.4496 81.9487 81.9933 81.7566 81.585 81.9127C81.1767 82.0808 80.9845 82.5251 81.1407 82.9334Z" fill="#007199"></path>
    <path d="M69.6007 76.3051C69.7568 76.7133 70.2131 76.9055 70.6214 76.7494C71.0297 76.5933 71.2218 76.1369 71.0657 75.7287C70.9096 75.3324 70.4533 75.1282 70.045 75.2843C69.6367 75.4525 69.4326 75.8968 69.6007 76.3051Z" fill="#007199"></path>
    <path d="M86.0161 54.7017C86.1722 55.11 86.6285 55.3022 87.0368 55.1461C87.4451 54.9899 87.6373 54.5336 87.4811 54.1253C87.325 53.7171 86.8687 53.5249 86.4604 53.681C86.0521 53.8371 85.86 54.2935 86.0161 54.7017Z" fill="#007199"></path>
    <path d="M64.1731 75.8126C64.3292 76.2209 64.7855 76.413 65.1938 76.2569C65.6021 76.1008 65.7942 75.6445 65.6381 75.2362C65.482 74.8279 65.0257 74.6358 64.6174 74.7919C64.2091 74.948 64.017 75.4043 64.1731 75.8126Z" fill="#007199"></path>
    <path d="M82.906 71.1053C83.0621 71.5136 83.5184 71.7057 83.9267 71.5496C84.335 71.3935 84.5271 70.9372 84.371 70.5289C84.2149 70.1206 83.7586 69.9285 83.3503 70.0846C82.942 70.2407 82.7499 70.697 82.906 71.1053Z" fill="#007199"></path>
    <path d="M72.7349 67.0344C72.891 67.4427 73.3473 67.6348 73.7556 67.4787C74.1639 67.3226 74.356 66.8663 74.1999 66.458C74.0438 66.0497 73.5875 65.8576 73.1792 66.0137C72.7829 66.1818 72.5788 66.6381 72.7349 67.0344Z" fill="#007199"></path>
    <path d="M91.0842 68.007C91.2403 68.4153 91.6966 68.6075 92.1049 68.4514C92.5132 68.2952 92.7053 67.8389 92.5492 67.4306C92.3931 67.0224 91.9368 66.8302 91.5285 66.9863C91.1322 67.1544 90.9281 67.6108 91.0842 68.007Z" fill="#007199"></path>
    <path d="M86.629 57.7879C86.7851 58.1962 87.2415 58.3884 87.6497 58.2322C88.058 58.0761 88.2502 57.6198 88.0941 57.2115C87.9379 56.8032 87.4816 56.6111 87.0733 56.7672C86.665 56.9353 86.4729 57.3916 86.629 57.7879Z" fill="#007199"></path>
    <path d="M72.8912 81.6366C73.0473 82.0448 73.5036 82.237 73.9119 82.0809C74.3202 81.9248 74.5123 81.4684 74.3562 81.0602C74.2001 80.6519 73.7438 80.4597 73.3355 80.6158C72.9392 80.784 72.735 81.2403 72.8912 81.6366Z" fill="#007199"></path>
    <path d="M96.4158 81.0481C96.5719 81.4564 97.0282 81.6485 97.4365 81.4924C97.8448 81.3363 98.0369 80.88 97.8808 80.4717C97.7247 80.0634 97.2684 79.8713 96.8601 80.0274C96.4638 80.1955 96.2597 80.6518 96.4158 81.0481Z" fill="#007199"></path>
    <path d="M66.3824 78.1661C66.5385 78.5744 66.9948 78.7665 67.4031 78.6104C67.8114 78.4543 68.0036 77.998 67.8474 77.5897C67.6913 77.1814 67.235 76.9893 66.8267 77.1454C66.4184 77.3135 66.2263 77.7578 66.3824 78.1661Z" fill="#007199"></path>
    <path d="M90.1712 82.081C90.3273 82.4892 90.7837 82.6814 91.192 82.5253C91.6002 82.3692 91.7924 81.9128 91.6363 81.5046C91.4801 81.0963 91.0238 80.9041 90.6155 81.0602C90.2073 81.2164 90.0151 81.6727 90.1712 82.081Z" fill="#007199"></path>
    <path d="M79.6879 58.3042C79.844 58.7125 80.3003 58.9046 80.7086 58.7485C81.1169 58.5924 81.309 58.1361 81.1529 57.7278C80.9968 57.3315 80.5405 57.1274 80.1322 57.2835C79.7239 57.4396 79.5318 57.8959 79.6879 58.3042Z" fill="#007199"></path>
    <path d="M77.8262 77.2296C77.9823 77.6379 78.4386 77.83 78.8469 77.6739C79.2552 77.5178 79.4473 77.0615 79.2912 76.6532C79.1351 76.2449 78.6788 76.0528 78.2705 76.2089C77.8622 76.377 77.6701 76.8213 77.8262 77.2296Z" fill="#007199"></path>
    <path d="M84.071 81.7088C84.2271 82.1171 84.6835 82.3092 85.0918 82.1531C85.5 81.997 85.6922 81.5407 85.5361 81.1324C85.38 80.7241 84.9236 80.532 84.5154 80.6881C84.1071 80.8442 83.9029 81.3005 84.071 81.7088Z" fill="#007199"></path>
    <path d="M88.07 76.7614C88.2261 77.1697 88.6824 77.3619 89.0907 77.2058C89.499 77.0496 89.6911 76.5933 89.535 76.185C89.3789 75.7767 88.9226 75.5846 88.5143 75.7407C88.106 75.9088 87.9139 76.3652 88.07 76.7614Z" fill="#007199"></path>
    <path d="M83.9145 66.9745C84.0706 67.3827 84.5269 67.5749 84.9352 67.4188C85.3435 67.2627 85.5356 66.8063 85.3795 66.398C85.2234 65.9898 84.7671 65.7976 84.3588 65.9537C83.9505 66.1219 83.7584 66.5782 83.9145 66.9745Z" fill="#007199"></path>
    <path d="M69.0607 66.8063C69.2168 67.2146 69.6731 67.4067 70.0814 67.2506C70.4897 67.0945 70.6818 66.6382 70.5257 66.2299C70.3696 65.8216 69.9133 65.6295 69.505 65.7856C69.1087 65.9537 68.9046 66.41 69.0607 66.8063Z" fill="#007199"></path>
    <path d="M64.4012 72.7502C64.5573 73.1465 65.0136 73.3506 65.4219 73.1945C65.8302 73.0384 66.0223 72.5821 65.8662 72.1738C65.7101 71.7655 65.2538 71.5734 64.8455 71.7295C64.4372 71.8976 64.2451 72.3419 64.4012 72.7502Z" fill="#007199"></path>
    <path d="M92.2248 70.9971C92.3809 71.4054 92.8372 71.5975 93.2455 71.4414C93.6538 71.2853 93.8459 70.829 93.6898 70.4207C93.5337 70.0124 93.0774 69.8203 92.6691 69.9764C92.2728 70.1325 92.0687 70.5888 92.2248 70.9971Z" fill="#007199"></path>
    <path d="M81.9218 78.1183C82.0779 78.5265 82.5343 78.7187 82.9426 78.5626C83.3508 78.4065 83.543 77.9501 83.3869 77.5418C83.2308 77.1336 82.7744 76.9414 82.3662 77.0975C81.9579 77.2536 81.7537 77.71 81.9218 78.1183Z" fill="#007199"></path>
    <path d="M86.9767 84.0143C87.1328 84.4226 87.5891 84.6147 87.9974 84.4586C88.4057 84.3025 88.5978 83.8462 88.4417 83.4379C88.2856 83.0296 87.8293 82.8375 87.421 82.9936C87.0127 83.1617 86.8205 83.618 86.9767 84.0143Z" fill="#007199"></path>
    <path d="M61.255 76.8932C61.4111 77.3015 61.8674 77.4936 62.2757 77.3375C62.684 77.1814 62.8761 76.7251 62.72 76.3168C62.5639 75.9085 62.1076 75.7164 61.6993 75.8725C61.291 76.0286 61.0868 76.4849 61.255 76.8932Z" fill="#007199"></path>
    <path d="M83.3747 48.8176C83.5308 49.2259 83.9871 49.418 84.3954 49.2619C84.8037 49.1058 84.9958 48.6495 84.8397 48.2412C84.6836 47.8329 84.2273 47.6408 83.819 47.7969C83.4107 47.965 83.2186 48.4213 83.3747 48.8176Z" fill="#007199"></path>
    <path d="M84.8753 77.5058C85.0314 77.914 85.4878 78.1062 85.896 77.9501C86.3043 77.794 86.4965 77.3376 86.3404 76.9294C86.1842 76.5211 85.7279 76.3289 85.3196 76.485C84.9114 76.6532 84.7072 77.1095 84.8753 77.5058Z" fill="#007199"></path>
    <path d="M93.702 74.1553C93.8581 74.5516 94.3145 74.7557 94.7227 74.5996C95.131 74.4435 95.3232 73.9872 95.1671 73.5789C95.0109 73.1706 94.5546 72.9785 94.1463 73.1346C93.7381 73.2907 93.5459 73.747 93.702 74.1553Z" fill="#007199"></path>
    <path d="M80.8164 68.0792C80.9725 68.4875 81.4289 68.6796 81.8372 68.5235C82.2454 68.3674 82.4376 67.9111 82.2815 67.5028C82.1254 67.0945 81.669 66.9024 81.2607 67.0585C80.8525 67.2266 80.6603 67.6829 80.8164 68.0792Z" fill="#007199"></path>
    <path d="M71.8102 63.5399C71.9664 63.9482 72.4227 64.1403 72.831 63.9842C73.2392 63.8281 73.4314 63.3718 73.2753 62.9635C73.1192 62.5552 72.6628 62.3631 72.2546 62.5192C71.8463 62.6873 71.6541 63.1436 71.8102 63.5399Z" fill="#007199"></path>
    <path d="M68.3279 81.0843C68.484 81.4926 68.9403 81.6847 69.3486 81.5286C69.7569 81.3725 69.949 80.9162 69.7929 80.5079C69.6368 80.1116 69.1805 79.9075 68.7722 80.0636C68.3759 80.2317 68.1717 80.676 68.3279 81.0843Z" fill="#007199"></path>
    <path d="M74.5601 70.3006C74.7162 70.7089 75.1725 70.901 75.5808 70.7449C75.9891 70.5888 76.1812 70.1325 76.0251 69.7242C75.869 69.3159 75.4126 69.1238 75.0044 69.2799C74.5961 69.448 74.3919 69.9043 74.5601 70.3006Z" fill="#007199"></path>
    <path d="M75.5692 64.5368C75.7253 64.9451 76.1816 65.1372 76.5899 64.9811C76.9982 64.825 77.1903 64.3687 77.0342 63.9604C76.8781 63.5521 76.4218 63.3599 76.0135 63.5161C75.6052 63.6842 75.413 64.1405 75.5692 64.5368Z" fill="#007199"></path>
    <path d="M70.9336 78.9946C71.0897 79.4029 71.5461 79.5951 71.9543 79.4389C72.3626 79.2828 72.5548 78.8265 72.3987 78.4182C72.2425 78.022 71.7862 77.8178 71.3779 77.9739C70.9696 78.13 70.7775 78.5863 70.9336 78.9946Z" fill="#007199"></path>
    <path d="M74.7043 74.3476C74.8605 74.7558 75.3168 74.948 75.7251 74.7919C76.1333 74.6358 76.3255 74.1794 76.1694 73.7711C76.0133 73.3629 75.5569 73.1707 75.1487 73.3268C74.7404 73.483 74.5482 73.9393 74.7043 74.3476Z" fill="#007199"></path>
    <path d="M86.4247 64.7889C86.5808 65.1972 87.0371 65.3893 87.4454 65.2332C87.8537 65.0771 88.0458 64.6208 87.8897 64.2125C87.7336 63.8042 87.2773 63.6121 86.869 63.7682C86.4607 63.9243 86.2686 64.3806 86.4247 64.7889Z" fill="#007199"></path>
  </g>
  <path d="M78.8712 24.6927C84.227 30.3967 86.6047 38.0341 86.6047 38.0341C86.6047 38.0341 88.1778 43.1857 88.1778 48.3973C88.1778 67.6469 72.5788 83.2458 53.3293 83.2458C34.0798 83.2458 18.4808 67.6469 18.4808 48.3973C18.4808 43.2337 20.0539 38.0341 20.0539 38.0341C20.0539 38.0341 22.8759 29.0638 29.6847 22.9275C42.8099 11.0871 67.7394 12.8524 78.8712 24.6927Z" fill="white" stroke="#333333" stroke-width="1.72494" stroke-miterlimit="10"></path>
  <path d="M53.3177 83.2458C63.3255 83.2458 71.4384 67.6436 71.4384 48.3974C71.4384 29.1511 63.3255 13.5489 53.3177 13.5489C43.3099 13.5489 35.1969 29.1511 35.1969 48.3974C35.1969 67.6436 43.3099 83.2458 53.3177 83.2458Z" fill="white" stroke="#333333" stroke-width="1.72494" stroke-miterlimit="10"></path>
  <path d="M18.4688 48.3973H86.7727" stroke="#333333" stroke-width="1.72494" stroke-miterlimit="10"></path>
  <path d="M53.3172 13.5489V83.2458" stroke="#333333" stroke-width="1.72494" stroke-miterlimit="10"></path>
  <path d="M24.041 67.9111H82.5942" stroke="#333333" stroke-width="1.72494" stroke-miterlimit="10"></path>
  <path d="M64.461 16.3348H43.5544V48.3973H64.461V16.3348Z" fill="#999999" stroke="#333333" stroke-width="1.72494" stroke-miterlimit="10"></path>
  <path d="M49.1383 10.7508V1H46.3524L29.6246 16.3348V48.3973H43.5544V16.3348H46.3524V10.7508H49.1383Z" fill="white" stroke="#333333" stroke-width="1.72494" stroke-miterlimit="10"></path>
  <path d="M33.8039 42.8134H39.3758" stroke="#333333" stroke-width="1.72494" stroke-miterlimit="10"></path>
  <path d="M61.6872 10.751H46.3524V16.3229H61.6872V10.751Z" fill="#E2C64F" stroke="#333333" stroke-width="1.72494" stroke-miterlimit="10"></path>
  <path d="M50.5313 26.0854V21.9065H57.4962V26.0854" fill="#999999"></path>
  <path d="M50.5313 26.0854V21.9065H57.4962V26.0854" stroke="#333333" stroke-width="1.72494" stroke-miterlimit="10"></path>
  <path d="M50.5313 34.4554V30.2765H57.4962V34.4554" fill="#999999"></path>
  <path d="M50.5313 34.4554V30.2765H57.4962V34.4554" stroke="#333333" stroke-width="1.72494" stroke-miterlimit="10"></path>
  <path d="M50.5313 42.8134V38.6345H57.4962V42.8134" fill="#999999"></path>
  <path d="M50.5313 42.8134V38.6345H57.4962V42.8134" stroke="#333333" stroke-width="1.72494" stroke-miterlimit="10"></path>
  <path d="M33.8039 26.0858H39.3758" stroke="#333333" stroke-width="1.72494" stroke-miterlimit="10"></path>
  <path d="M33.8039 20.5137H39.3758" stroke="#333333" stroke-width="1.72494" stroke-miterlimit="10"></path>
  <path d="M33.8039 31.6696H39.3758" stroke="#333333" stroke-width="1.72494" stroke-miterlimit="10"></path>
  <path d="M33.8039 37.2415H39.3758" stroke="#333333" stroke-width="1.72494" stroke-miterlimit="10"></path>
  <path d="M74.224 48.3972V5.17889H57.4962V10.7508H61.6872V16.3347H64.4731V48.3972H74.224Z" fill="#F26839" stroke="#333333" stroke-width="1.72494" stroke-miterlimit="10"></path>
  <path d="M70.045 13.5489V17.7278" stroke="#333333" stroke-width="1.72494" stroke-miterlimit="10"></path>
  <path d="M70.045 20.5137V24.6926" stroke="#333333" stroke-width="1.72494" stroke-miterlimit="10"></path>
  <path d="M70.045 27.4786V31.6695" stroke="#333333" stroke-width="1.72494" stroke-miterlimit="10"></path>
  <path d="M70.045 34.4556V38.6345" stroke="#333333" stroke-width="1.72494" stroke-miterlimit="10"></path>
</svg>
